%TF.GenerationSoftware,KiCad,Pcbnew,9.0.1*%
%TF.CreationDate,2026-01-25T20:54:50-05:00*%
%TF.ProjectId,BREAD_Slice,42524541-445f-4536-9c69-63652e6b6963,rev?*%
%TF.SameCoordinates,PX74eba40PY8552dc0*%
%TF.FileFunction,Soldermask,Top*%
%TF.FilePolarity,Negative*%
%FSLAX46Y46*%
G04 Gerber Fmt 4.6, Leading zero omitted, Abs format (unit mm)*
G04 Created by KiCad (PCBNEW 9.0.1) date 2026-01-25 20:54:50*
%MOMM*%
%LPD*%
G01*
G04 APERTURE LIST*
G04 Aperture macros list*
%AMRoundRect*
0 Rectangle with rounded corners*
0 $1 Rounding radius*
0 $2 $3 $4 $5 $6 $7 $8 $9 X,Y pos of 4 corners*
0 Add a 4 corners polygon primitive as box body*
4,1,4,$2,$3,$4,$5,$6,$7,$8,$9,$2,$3,0*
0 Add four circle primitives for the rounded corners*
1,1,$1+$1,$2,$3*
1,1,$1+$1,$4,$5*
1,1,$1+$1,$6,$7*
1,1,$1+$1,$8,$9*
0 Add four rect primitives between the rounded corners*
20,1,$1+$1,$2,$3,$4,$5,0*
20,1,$1+$1,$4,$5,$6,$7,0*
20,1,$1+$1,$6,$7,$8,$9,0*
20,1,$1+$1,$8,$9,$2,$3,0*%
G04 Aperture macros list end*
%ADD10RoundRect,0.101600X-0.825500X-0.500000X0.825500X-0.500000X0.825500X0.500000X-0.825500X0.500000X0*%
%ADD11RoundRect,0.261906X0.838094X0.838094X-0.838094X0.838094X-0.838094X-0.838094X0.838094X-0.838094X0*%
%ADD12C,2.200000*%
%ADD13RoundRect,0.050000X-0.800000X-0.800000X0.800000X-0.800000X0.800000X0.800000X-0.800000X0.800000X0*%
%ADD14O,1.700000X1.700000*%
%ADD15RoundRect,0.261906X0.838094X-0.838094X0.838094X0.838094X-0.838094X0.838094X-0.838094X-0.838094X0*%
%ADD16RoundRect,1.008333X-5.041667X-5.041667X5.041667X-5.041667X5.041667X5.041667X-5.041667X5.041667X0*%
%ADD17C,5.100000*%
%ADD18RoundRect,0.050000X-0.850000X-0.850000X0.850000X-0.850000X0.850000X0.850000X-0.850000X0.850000X0*%
%ADD19C,1.800000*%
%TA.AperFunction,Profile*%
%ADD20C,0.050000*%
%TD*%
G04 APERTURE END LIST*
D10*
%TO.C,D1*%
X47923000Y5667231D03*
X47923000Y2467231D03*
X53077000Y2467231D03*
X53077000Y5667231D03*
%TD*%
D11*
%TO.C,J3*%
X56170000Y95500000D03*
D12*
X53630000Y95500000D03*
%TD*%
D11*
%TO.C,J6*%
X36370000Y95500000D03*
D12*
X33830000Y95500000D03*
%TD*%
D11*
%TO.C,J8*%
X23170000Y95500000D03*
D12*
X20630000Y95500000D03*
%TD*%
D11*
%TO.C,J9*%
X16630000Y95500000D03*
D12*
X14090000Y95500000D03*
%TD*%
D11*
%TO.C,J7*%
X29770000Y95500000D03*
D12*
X27230000Y95500000D03*
%TD*%
D11*
%TO.C,J4*%
X49570000Y95500000D03*
D12*
X47030000Y95500000D03*
%TD*%
D11*
%TO.C,J5*%
X42970000Y95500000D03*
D12*
X40430000Y95500000D03*
%TD*%
D13*
%TO.C,A1*%
X20010000Y42360000D03*
D14*
X20010000Y39820000D03*
X20010000Y37280000D03*
X20010000Y34740000D03*
X20010000Y32200000D03*
X20010000Y29660000D03*
X20010000Y27120000D03*
X20010000Y24580000D03*
X20010000Y22040000D03*
X20010000Y19500000D03*
X20010000Y16960000D03*
X20010000Y14420000D03*
X20010000Y11880000D03*
X20010000Y9340000D03*
X20010000Y6800000D03*
X35250000Y6800000D03*
X35250000Y9340000D03*
X35250000Y11880000D03*
X35250000Y14420000D03*
X35250000Y16960000D03*
X35250000Y19500000D03*
X35250000Y22040000D03*
X35250000Y24580000D03*
X35250000Y27120000D03*
X35250000Y29660000D03*
X35250000Y32200000D03*
X35250000Y34740000D03*
X35250000Y37280000D03*
X35250000Y39820000D03*
X35250000Y42360000D03*
%TD*%
D15*
%TO.C,J17*%
X65900000Y68500000D03*
D12*
X65900000Y71040000D03*
%TD*%
D15*
%TO.C,J16*%
X65900000Y61500000D03*
D12*
X65900000Y64040000D03*
%TD*%
D15*
%TO.C,J15*%
X65900000Y54900000D03*
D12*
X65900000Y57440000D03*
%TD*%
D15*
%TO.C,J14*%
X65900000Y48300000D03*
D12*
X65900000Y50840000D03*
%TD*%
D15*
%TO.C,J13*%
X65900000Y41700000D03*
D12*
X65900000Y44240000D03*
%TD*%
D15*
%TO.C,J12*%
X65900000Y35100000D03*
D12*
X65900000Y37640000D03*
%TD*%
D15*
%TO.C,J11*%
X65900000Y28500000D03*
D12*
X65900000Y31040000D03*
%TD*%
D15*
%TO.C,J10*%
X65900000Y21500000D03*
D12*
X65900000Y24040000D03*
%TD*%
D15*
%TO.C,J2*%
X65900000Y75500000D03*
D12*
X65900000Y78040000D03*
%TD*%
D16*
%TO.C,HS1*%
X9200000Y18350000D03*
%TD*%
D17*
%TO.C,H1*%
X5000000Y95000000D03*
%TD*%
%TO.C,H3*%
X65000000Y95000000D03*
%TD*%
%TO.C,H2*%
X5000000Y5000000D03*
%TD*%
%TO.C,H4*%
X65000000Y5000000D03*
%TD*%
D18*
%TO.C,J1*%
X3600000Y61450000D03*
D19*
X3600000Y58910000D03*
X3600000Y56370000D03*
X3600000Y53830000D03*
X3600000Y51290000D03*
X3600000Y48750000D03*
X3600000Y46210000D03*
X3600000Y43670000D03*
X3600000Y41130000D03*
X3600000Y38590000D03*
%TD*%
D18*
%TO.C,J18*%
X13260000Y80660000D03*
D19*
X15800000Y80660000D03*
X13260000Y78120000D03*
X15800000Y78120000D03*
X13260000Y75580000D03*
X15800000Y75580000D03*
X13260000Y73040000D03*
X15800000Y73040000D03*
X13260000Y70500000D03*
X15800000Y70500000D03*
X13260000Y67960000D03*
X15800000Y67960000D03*
X13260000Y65420000D03*
X15800000Y65420000D03*
X13260000Y62880000D03*
X15800000Y62880000D03*
X13260000Y60340000D03*
X15800000Y60340000D03*
X13260000Y57800000D03*
X15800000Y57800000D03*
%TD*%
D18*
%TO.C,J19*%
X26650000Y80700000D03*
D19*
X29190000Y80700000D03*
X26650000Y78160000D03*
X29190000Y78160000D03*
X26650000Y75620000D03*
X29190000Y75620000D03*
X26650000Y73080000D03*
X29190000Y73080000D03*
X26650000Y70540000D03*
X29190000Y70540000D03*
X26650000Y68000000D03*
X29190000Y68000000D03*
X26650000Y65460000D03*
X29190000Y65460000D03*
X26650000Y62920000D03*
X29190000Y62920000D03*
X26650000Y60380000D03*
X29190000Y60380000D03*
X26650000Y57840000D03*
X29190000Y57840000D03*
%TD*%
D18*
%TO.C,J20*%
X20000000Y80660000D03*
D19*
X22540000Y80660000D03*
X20000000Y78120000D03*
X22540000Y78120000D03*
X20000000Y75580000D03*
X22540000Y75580000D03*
X20000000Y73040000D03*
X22540000Y73040000D03*
X20000000Y70500000D03*
X22540000Y70500000D03*
X20000000Y67960000D03*
X22540000Y67960000D03*
X20000000Y65420000D03*
X22540000Y65420000D03*
X20000000Y62880000D03*
X22540000Y62880000D03*
X20000000Y60340000D03*
X22540000Y60340000D03*
X20000000Y57800000D03*
X22540000Y57800000D03*
%TD*%
D20*
X70000000Y95000000D02*
X70000000Y45000000D01*
X65000000Y100000000D02*
G75*
G02*
X70000000Y95000000I0J-5000000D01*
G01*
X70000000Y5000000D02*
G75*
G02*
X65000000Y0I-5000000J0D01*
G01*
X30000000Y100000000D02*
X65000000Y100000000D01*
X0Y95000000D02*
G75*
G02*
X5000000Y100000000I5000000J0D01*
G01*
X70000000Y45000000D02*
X70000000Y5000000D01*
X0Y5000000D02*
X0Y95000000D01*
X5000000Y100000000D02*
X30000000Y100000000D01*
X5000000Y0D02*
G75*
G02*
X0Y5000000I0J5000000D01*
G01*
X37588000Y0D02*
X65000000Y0D01*
X5000000Y0D02*
X37588000Y0D01*
M02*
