%TF.GenerationSoftware,KiCad,Pcbnew,9.0.1*%
%TF.CreationDate,2026-01-25T20:54:50-05:00*%
%TF.ProjectId,BREAD_Slice,42524541-445f-4536-9c69-63652e6b6963,rev?*%
%TF.SameCoordinates,PX74eba40PY8552dc0*%
%TF.FileFunction,Legend,Top*%
%TF.FilePolarity,Positive*%
%FSLAX46Y46*%
G04 Gerber Fmt 4.6, Leading zero omitted, Abs format (unit mm)*
G04 Created by KiCad (PCBNEW 9.0.1) date 2026-01-25 20:54:50*
%MOMM*%
%LPD*%
G01*
G04 APERTURE LIST*
G04 Aperture macros list*
%AMRoundRect*
0 Rectangle with rounded corners*
0 $1 Rounding radius*
0 $2 $3 $4 $5 $6 $7 $8 $9 X,Y pos of 4 corners*
0 Add a 4 corners polygon primitive as box body*
4,1,4,$2,$3,$4,$5,$6,$7,$8,$9,$2,$3,0*
0 Add four circle primitives for the rounded corners*
1,1,$1+$1,$2,$3*
1,1,$1+$1,$4,$5*
1,1,$1+$1,$6,$7*
1,1,$1+$1,$8,$9*
0 Add four rect primitives between the rounded corners*
20,1,$1+$1,$2,$3,$4,$5,0*
20,1,$1+$1,$4,$5,$6,$7,0*
20,1,$1+$1,$6,$7,$8,$9,0*
20,1,$1+$1,$8,$9,$2,$3,0*%
G04 Aperture macros list end*
%ADD10C,0.300000*%
%ADD11C,0.150000*%
%ADD12C,0.100000*%
%ADD13C,0.177800*%
%ADD14C,0.200000*%
%ADD15C,0.120000*%
%ADD16C,0.010000*%
%ADD17RoundRect,0.101600X-0.825500X-0.500000X0.825500X-0.500000X0.825500X0.500000X-0.825500X0.500000X0*%
%ADD18RoundRect,0.261906X0.838094X0.838094X-0.838094X0.838094X-0.838094X-0.838094X0.838094X-0.838094X0*%
%ADD19C,2.200000*%
%ADD20RoundRect,0.050000X-0.800000X-0.800000X0.800000X-0.800000X0.800000X0.800000X-0.800000X0.800000X0*%
%ADD21O,1.700000X1.700000*%
%ADD22RoundRect,0.261906X0.838094X-0.838094X0.838094X0.838094X-0.838094X0.838094X-0.838094X-0.838094X0*%
%ADD23RoundRect,1.008333X-5.041667X-5.041667X5.041667X-5.041667X5.041667X5.041667X-5.041667X5.041667X0*%
%ADD24C,5.100000*%
%ADD25RoundRect,0.050000X-0.850000X-0.850000X0.850000X-0.850000X0.850000X0.850000X-0.850000X0.850000X0*%
%ADD26C,1.800000*%
%TA.AperFunction,Profile*%
%ADD27C,0.050000*%
%TD*%
G04 APERTURE END LIST*
D10*
X57574060Y51242659D02*
X57431203Y51314088D01*
X57431203Y51314088D02*
X57216917Y51314088D01*
X57216917Y51314088D02*
X57002631Y51242659D01*
X57002631Y51242659D02*
X56859774Y51099802D01*
X56859774Y51099802D02*
X56788345Y50956945D01*
X56788345Y50956945D02*
X56716917Y50671231D01*
X56716917Y50671231D02*
X56716917Y50456945D01*
X56716917Y50456945D02*
X56788345Y50171231D01*
X56788345Y50171231D02*
X56859774Y50028374D01*
X56859774Y50028374D02*
X57002631Y49885516D01*
X57002631Y49885516D02*
X57216917Y49814088D01*
X57216917Y49814088D02*
X57359774Y49814088D01*
X57359774Y49814088D02*
X57574060Y49885516D01*
X57574060Y49885516D02*
X57645488Y49956945D01*
X57645488Y49956945D02*
X57645488Y50456945D01*
X57645488Y50456945D02*
X57359774Y50456945D01*
X58288345Y49814088D02*
X58288345Y51314088D01*
X58288345Y51314088D02*
X59145488Y49814088D01*
X59145488Y49814088D02*
X59145488Y51314088D01*
X59859774Y49814088D02*
X59859774Y51314088D01*
X59859774Y51314088D02*
X60216917Y51314088D01*
X60216917Y51314088D02*
X60431203Y51242659D01*
X60431203Y51242659D02*
X60574060Y51099802D01*
X60574060Y51099802D02*
X60645489Y50956945D01*
X60645489Y50956945D02*
X60716917Y50671231D01*
X60716917Y50671231D02*
X60716917Y50456945D01*
X60716917Y50456945D02*
X60645489Y50171231D01*
X60645489Y50171231D02*
X60574060Y50028374D01*
X60574060Y50028374D02*
X60431203Y49885516D01*
X60431203Y49885516D02*
X60216917Y49814088D01*
X60216917Y49814088D02*
X59859774Y49814088D01*
X58574061Y47827743D02*
X59288347Y47827743D01*
X58431204Y47399172D02*
X58931204Y48899172D01*
X58931204Y48899172D02*
X59431204Y47399172D01*
X59788346Y48899172D02*
X60716918Y48899172D01*
X60716918Y48899172D02*
X60216918Y48327743D01*
X60216918Y48327743D02*
X60431203Y48327743D01*
X60431203Y48327743D02*
X60574061Y48256315D01*
X60574061Y48256315D02*
X60645489Y48184886D01*
X60645489Y48184886D02*
X60716918Y48042029D01*
X60716918Y48042029D02*
X60716918Y47684886D01*
X60716918Y47684886D02*
X60645489Y47542029D01*
X60645489Y47542029D02*
X60574061Y47470600D01*
X60574061Y47470600D02*
X60431203Y47399172D01*
X60431203Y47399172D02*
X60002632Y47399172D01*
X60002632Y47399172D02*
X59859775Y47470600D01*
X59859775Y47470600D02*
X59788346Y47542029D01*
X57574060Y31442659D02*
X57431203Y31514088D01*
X57431203Y31514088D02*
X57216917Y31514088D01*
X57216917Y31514088D02*
X57002631Y31442659D01*
X57002631Y31442659D02*
X56859774Y31299802D01*
X56859774Y31299802D02*
X56788345Y31156945D01*
X56788345Y31156945D02*
X56716917Y30871231D01*
X56716917Y30871231D02*
X56716917Y30656945D01*
X56716917Y30656945D02*
X56788345Y30371231D01*
X56788345Y30371231D02*
X56859774Y30228374D01*
X56859774Y30228374D02*
X57002631Y30085516D01*
X57002631Y30085516D02*
X57216917Y30014088D01*
X57216917Y30014088D02*
X57359774Y30014088D01*
X57359774Y30014088D02*
X57574060Y30085516D01*
X57574060Y30085516D02*
X57645488Y30156945D01*
X57645488Y30156945D02*
X57645488Y30656945D01*
X57645488Y30656945D02*
X57359774Y30656945D01*
X58288345Y30014088D02*
X58288345Y31514088D01*
X58288345Y31514088D02*
X59145488Y30014088D01*
X59145488Y30014088D02*
X59145488Y31514088D01*
X59859774Y30014088D02*
X59859774Y31514088D01*
X59859774Y31514088D02*
X60216917Y31514088D01*
X60216917Y31514088D02*
X60431203Y31442659D01*
X60431203Y31442659D02*
X60574060Y31299802D01*
X60574060Y31299802D02*
X60645489Y31156945D01*
X60645489Y31156945D02*
X60716917Y30871231D01*
X60716917Y30871231D02*
X60716917Y30656945D01*
X60716917Y30656945D02*
X60645489Y30371231D01*
X60645489Y30371231D02*
X60574060Y30228374D01*
X60574060Y30228374D02*
X60431203Y30085516D01*
X60431203Y30085516D02*
X60216917Y30014088D01*
X60216917Y30014088D02*
X59859774Y30014088D01*
X58574061Y28027743D02*
X59288347Y28027743D01*
X58431204Y27599172D02*
X58931204Y29099172D01*
X58931204Y29099172D02*
X59431204Y27599172D01*
X60216918Y29099172D02*
X60359775Y29099172D01*
X60359775Y29099172D02*
X60502632Y29027743D01*
X60502632Y29027743D02*
X60574061Y28956315D01*
X60574061Y28956315D02*
X60645489Y28813458D01*
X60645489Y28813458D02*
X60716918Y28527743D01*
X60716918Y28527743D02*
X60716918Y28170600D01*
X60716918Y28170600D02*
X60645489Y27884886D01*
X60645489Y27884886D02*
X60574061Y27742029D01*
X60574061Y27742029D02*
X60502632Y27670600D01*
X60502632Y27670600D02*
X60359775Y27599172D01*
X60359775Y27599172D02*
X60216918Y27599172D01*
X60216918Y27599172D02*
X60074061Y27670600D01*
X60074061Y27670600D02*
X60002632Y27742029D01*
X60002632Y27742029D02*
X59931203Y27884886D01*
X59931203Y27884886D02*
X59859775Y28170600D01*
X59859775Y28170600D02*
X59859775Y28527743D01*
X59859775Y28527743D02*
X59931203Y28813458D01*
X59931203Y28813458D02*
X60002632Y28956315D01*
X60002632Y28956315D02*
X60074061Y29027743D01*
X60074061Y29027743D02*
X60216918Y29099172D01*
X57574060Y24442659D02*
X57431203Y24514088D01*
X57431203Y24514088D02*
X57216917Y24514088D01*
X57216917Y24514088D02*
X57002631Y24442659D01*
X57002631Y24442659D02*
X56859774Y24299802D01*
X56859774Y24299802D02*
X56788345Y24156945D01*
X56788345Y24156945D02*
X56716917Y23871231D01*
X56716917Y23871231D02*
X56716917Y23656945D01*
X56716917Y23656945D02*
X56788345Y23371231D01*
X56788345Y23371231D02*
X56859774Y23228374D01*
X56859774Y23228374D02*
X57002631Y23085516D01*
X57002631Y23085516D02*
X57216917Y23014088D01*
X57216917Y23014088D02*
X57359774Y23014088D01*
X57359774Y23014088D02*
X57574060Y23085516D01*
X57574060Y23085516D02*
X57645488Y23156945D01*
X57645488Y23156945D02*
X57645488Y23656945D01*
X57645488Y23656945D02*
X57359774Y23656945D01*
X58288345Y23014088D02*
X58288345Y24514088D01*
X58288345Y24514088D02*
X59145488Y23014088D01*
X59145488Y23014088D02*
X59145488Y24514088D01*
X59859774Y23014088D02*
X59859774Y24514088D01*
X59859774Y24514088D02*
X60216917Y24514088D01*
X60216917Y24514088D02*
X60431203Y24442659D01*
X60431203Y24442659D02*
X60574060Y24299802D01*
X60574060Y24299802D02*
X60645489Y24156945D01*
X60645489Y24156945D02*
X60716917Y23871231D01*
X60716917Y23871231D02*
X60716917Y23656945D01*
X60716917Y23656945D02*
X60645489Y23371231D01*
X60645489Y23371231D02*
X60574060Y23228374D01*
X60574060Y23228374D02*
X60431203Y23085516D01*
X60431203Y23085516D02*
X60216917Y23014088D01*
X60216917Y23014088D02*
X59859774Y23014088D01*
X55859775Y21027743D02*
X56574061Y21027743D01*
X55716918Y20599172D02*
X56216918Y22099172D01*
X56216918Y22099172D02*
X56716918Y20599172D01*
X58074060Y20599172D02*
X57574060Y21313458D01*
X57216917Y20599172D02*
X57216917Y22099172D01*
X57216917Y22099172D02*
X57788346Y22099172D01*
X57788346Y22099172D02*
X57931203Y22027743D01*
X57931203Y22027743D02*
X58002632Y21956315D01*
X58002632Y21956315D02*
X58074060Y21813458D01*
X58074060Y21813458D02*
X58074060Y21599172D01*
X58074060Y21599172D02*
X58002632Y21456315D01*
X58002632Y21456315D02*
X57931203Y21384886D01*
X57931203Y21384886D02*
X57788346Y21313458D01*
X57788346Y21313458D02*
X57216917Y21313458D01*
X58716917Y21384886D02*
X59216917Y21384886D01*
X59431203Y20599172D02*
X58716917Y20599172D01*
X58716917Y20599172D02*
X58716917Y22099172D01*
X58716917Y22099172D02*
X59431203Y22099172D01*
X60574060Y21384886D02*
X60074060Y21384886D01*
X60074060Y20599172D02*
X60074060Y22099172D01*
X60074060Y22099172D02*
X60788346Y22099172D01*
X57574060Y44642659D02*
X57431203Y44714088D01*
X57431203Y44714088D02*
X57216917Y44714088D01*
X57216917Y44714088D02*
X57002631Y44642659D01*
X57002631Y44642659D02*
X56859774Y44499802D01*
X56859774Y44499802D02*
X56788345Y44356945D01*
X56788345Y44356945D02*
X56716917Y44071231D01*
X56716917Y44071231D02*
X56716917Y43856945D01*
X56716917Y43856945D02*
X56788345Y43571231D01*
X56788345Y43571231D02*
X56859774Y43428374D01*
X56859774Y43428374D02*
X57002631Y43285516D01*
X57002631Y43285516D02*
X57216917Y43214088D01*
X57216917Y43214088D02*
X57359774Y43214088D01*
X57359774Y43214088D02*
X57574060Y43285516D01*
X57574060Y43285516D02*
X57645488Y43356945D01*
X57645488Y43356945D02*
X57645488Y43856945D01*
X57645488Y43856945D02*
X57359774Y43856945D01*
X58288345Y43214088D02*
X58288345Y44714088D01*
X58288345Y44714088D02*
X59145488Y43214088D01*
X59145488Y43214088D02*
X59145488Y44714088D01*
X59859774Y43214088D02*
X59859774Y44714088D01*
X59859774Y44714088D02*
X60216917Y44714088D01*
X60216917Y44714088D02*
X60431203Y44642659D01*
X60431203Y44642659D02*
X60574060Y44499802D01*
X60574060Y44499802D02*
X60645489Y44356945D01*
X60645489Y44356945D02*
X60716917Y44071231D01*
X60716917Y44071231D02*
X60716917Y43856945D01*
X60716917Y43856945D02*
X60645489Y43571231D01*
X60645489Y43571231D02*
X60574060Y43428374D01*
X60574060Y43428374D02*
X60431203Y43285516D01*
X60431203Y43285516D02*
X60216917Y43214088D01*
X60216917Y43214088D02*
X59859774Y43214088D01*
X58574061Y41227743D02*
X59288347Y41227743D01*
X58431204Y40799172D02*
X58931204Y42299172D01*
X58931204Y42299172D02*
X59431204Y40799172D01*
X59859775Y42156315D02*
X59931203Y42227743D01*
X59931203Y42227743D02*
X60074061Y42299172D01*
X60074061Y42299172D02*
X60431203Y42299172D01*
X60431203Y42299172D02*
X60574061Y42227743D01*
X60574061Y42227743D02*
X60645489Y42156315D01*
X60645489Y42156315D02*
X60716918Y42013458D01*
X60716918Y42013458D02*
X60716918Y41870600D01*
X60716918Y41870600D02*
X60645489Y41656315D01*
X60645489Y41656315D02*
X59788346Y40799172D01*
X59788346Y40799172D02*
X60716918Y40799172D01*
X57574060Y38042659D02*
X57431203Y38114088D01*
X57431203Y38114088D02*
X57216917Y38114088D01*
X57216917Y38114088D02*
X57002631Y38042659D01*
X57002631Y38042659D02*
X56859774Y37899802D01*
X56859774Y37899802D02*
X56788345Y37756945D01*
X56788345Y37756945D02*
X56716917Y37471231D01*
X56716917Y37471231D02*
X56716917Y37256945D01*
X56716917Y37256945D02*
X56788345Y36971231D01*
X56788345Y36971231D02*
X56859774Y36828374D01*
X56859774Y36828374D02*
X57002631Y36685516D01*
X57002631Y36685516D02*
X57216917Y36614088D01*
X57216917Y36614088D02*
X57359774Y36614088D01*
X57359774Y36614088D02*
X57574060Y36685516D01*
X57574060Y36685516D02*
X57645488Y36756945D01*
X57645488Y36756945D02*
X57645488Y37256945D01*
X57645488Y37256945D02*
X57359774Y37256945D01*
X58288345Y36614088D02*
X58288345Y38114088D01*
X58288345Y38114088D02*
X59145488Y36614088D01*
X59145488Y36614088D02*
X59145488Y38114088D01*
X59859774Y36614088D02*
X59859774Y38114088D01*
X59859774Y38114088D02*
X60216917Y38114088D01*
X60216917Y38114088D02*
X60431203Y38042659D01*
X60431203Y38042659D02*
X60574060Y37899802D01*
X60574060Y37899802D02*
X60645489Y37756945D01*
X60645489Y37756945D02*
X60716917Y37471231D01*
X60716917Y37471231D02*
X60716917Y37256945D01*
X60716917Y37256945D02*
X60645489Y36971231D01*
X60645489Y36971231D02*
X60574060Y36828374D01*
X60574060Y36828374D02*
X60431203Y36685516D01*
X60431203Y36685516D02*
X60216917Y36614088D01*
X60216917Y36614088D02*
X59859774Y36614088D01*
X58574061Y34627743D02*
X59288347Y34627743D01*
X58431204Y34199172D02*
X58931204Y35699172D01*
X58931204Y35699172D02*
X59431204Y34199172D01*
X60716918Y34199172D02*
X59859775Y34199172D01*
X60288346Y34199172D02*
X60288346Y35699172D01*
X60288346Y35699172D02*
X60145489Y35484886D01*
X60145489Y35484886D02*
X60002632Y35342029D01*
X60002632Y35342029D02*
X59859775Y35270600D01*
X57574060Y64442659D02*
X57431203Y64514088D01*
X57431203Y64514088D02*
X57216917Y64514088D01*
X57216917Y64514088D02*
X57002631Y64442659D01*
X57002631Y64442659D02*
X56859774Y64299802D01*
X56859774Y64299802D02*
X56788345Y64156945D01*
X56788345Y64156945D02*
X56716917Y63871231D01*
X56716917Y63871231D02*
X56716917Y63656945D01*
X56716917Y63656945D02*
X56788345Y63371231D01*
X56788345Y63371231D02*
X56859774Y63228374D01*
X56859774Y63228374D02*
X57002631Y63085516D01*
X57002631Y63085516D02*
X57216917Y63014088D01*
X57216917Y63014088D02*
X57359774Y63014088D01*
X57359774Y63014088D02*
X57574060Y63085516D01*
X57574060Y63085516D02*
X57645488Y63156945D01*
X57645488Y63156945D02*
X57645488Y63656945D01*
X57645488Y63656945D02*
X57359774Y63656945D01*
X58288345Y63014088D02*
X58288345Y64514088D01*
X58288345Y64514088D02*
X59145488Y63014088D01*
X59145488Y63014088D02*
X59145488Y64514088D01*
X59859774Y63014088D02*
X59859774Y64514088D01*
X59859774Y64514088D02*
X60216917Y64514088D01*
X60216917Y64514088D02*
X60431203Y64442659D01*
X60431203Y64442659D02*
X60574060Y64299802D01*
X60574060Y64299802D02*
X60645489Y64156945D01*
X60645489Y64156945D02*
X60716917Y63871231D01*
X60716917Y63871231D02*
X60716917Y63656945D01*
X60716917Y63656945D02*
X60645489Y63371231D01*
X60645489Y63371231D02*
X60574060Y63228374D01*
X60574060Y63228374D02*
X60431203Y63085516D01*
X60431203Y63085516D02*
X60216917Y63014088D01*
X60216917Y63014088D02*
X59859774Y63014088D01*
X58574061Y61027743D02*
X59288347Y61027743D01*
X58431204Y60599172D02*
X58931204Y62099172D01*
X58931204Y62099172D02*
X59431204Y60599172D01*
X59788346Y62099172D02*
X60788346Y62099172D01*
X60788346Y62099172D02*
X60145489Y60599172D01*
X57574060Y57842659D02*
X57431203Y57914088D01*
X57431203Y57914088D02*
X57216917Y57914088D01*
X57216917Y57914088D02*
X57002631Y57842659D01*
X57002631Y57842659D02*
X56859774Y57699802D01*
X56859774Y57699802D02*
X56788345Y57556945D01*
X56788345Y57556945D02*
X56716917Y57271231D01*
X56716917Y57271231D02*
X56716917Y57056945D01*
X56716917Y57056945D02*
X56788345Y56771231D01*
X56788345Y56771231D02*
X56859774Y56628374D01*
X56859774Y56628374D02*
X57002631Y56485516D01*
X57002631Y56485516D02*
X57216917Y56414088D01*
X57216917Y56414088D02*
X57359774Y56414088D01*
X57359774Y56414088D02*
X57574060Y56485516D01*
X57574060Y56485516D02*
X57645488Y56556945D01*
X57645488Y56556945D02*
X57645488Y57056945D01*
X57645488Y57056945D02*
X57359774Y57056945D01*
X58288345Y56414088D02*
X58288345Y57914088D01*
X58288345Y57914088D02*
X59145488Y56414088D01*
X59145488Y56414088D02*
X59145488Y57914088D01*
X59859774Y56414088D02*
X59859774Y57914088D01*
X59859774Y57914088D02*
X60216917Y57914088D01*
X60216917Y57914088D02*
X60431203Y57842659D01*
X60431203Y57842659D02*
X60574060Y57699802D01*
X60574060Y57699802D02*
X60645489Y57556945D01*
X60645489Y57556945D02*
X60716917Y57271231D01*
X60716917Y57271231D02*
X60716917Y57056945D01*
X60716917Y57056945D02*
X60645489Y56771231D01*
X60645489Y56771231D02*
X60574060Y56628374D01*
X60574060Y56628374D02*
X60431203Y56485516D01*
X60431203Y56485516D02*
X60216917Y56414088D01*
X60216917Y56414088D02*
X59859774Y56414088D01*
X58574061Y54427743D02*
X59288347Y54427743D01*
X58431204Y53999172D02*
X58931204Y55499172D01*
X58931204Y55499172D02*
X59431204Y53999172D01*
X60574061Y55499172D02*
X60288346Y55499172D01*
X60288346Y55499172D02*
X60145489Y55427743D01*
X60145489Y55427743D02*
X60074061Y55356315D01*
X60074061Y55356315D02*
X59931203Y55142029D01*
X59931203Y55142029D02*
X59859775Y54856315D01*
X59859775Y54856315D02*
X59859775Y54284886D01*
X59859775Y54284886D02*
X59931203Y54142029D01*
X59931203Y54142029D02*
X60002632Y54070600D01*
X60002632Y54070600D02*
X60145489Y53999172D01*
X60145489Y53999172D02*
X60431203Y53999172D01*
X60431203Y53999172D02*
X60574061Y54070600D01*
X60574061Y54070600D02*
X60645489Y54142029D01*
X60645489Y54142029D02*
X60716918Y54284886D01*
X60716918Y54284886D02*
X60716918Y54642029D01*
X60716918Y54642029D02*
X60645489Y54784886D01*
X60645489Y54784886D02*
X60574061Y54856315D01*
X60574061Y54856315D02*
X60431203Y54927743D01*
X60431203Y54927743D02*
X60145489Y54927743D01*
X60145489Y54927743D02*
X60002632Y54856315D01*
X60002632Y54856315D02*
X59931203Y54784886D01*
X59931203Y54784886D02*
X59859775Y54642029D01*
X57474060Y78442659D02*
X57331203Y78514088D01*
X57331203Y78514088D02*
X57116917Y78514088D01*
X57116917Y78514088D02*
X56902631Y78442659D01*
X56902631Y78442659D02*
X56759774Y78299802D01*
X56759774Y78299802D02*
X56688345Y78156945D01*
X56688345Y78156945D02*
X56616917Y77871231D01*
X56616917Y77871231D02*
X56616917Y77656945D01*
X56616917Y77656945D02*
X56688345Y77371231D01*
X56688345Y77371231D02*
X56759774Y77228374D01*
X56759774Y77228374D02*
X56902631Y77085516D01*
X56902631Y77085516D02*
X57116917Y77014088D01*
X57116917Y77014088D02*
X57259774Y77014088D01*
X57259774Y77014088D02*
X57474060Y77085516D01*
X57474060Y77085516D02*
X57545488Y77156945D01*
X57545488Y77156945D02*
X57545488Y77656945D01*
X57545488Y77656945D02*
X57259774Y77656945D01*
X58188345Y77014088D02*
X58188345Y78514088D01*
X58188345Y78514088D02*
X59045488Y77014088D01*
X59045488Y77014088D02*
X59045488Y78514088D01*
X59759774Y77014088D02*
X59759774Y78514088D01*
X59759774Y78514088D02*
X60116917Y78514088D01*
X60116917Y78514088D02*
X60331203Y78442659D01*
X60331203Y78442659D02*
X60474060Y78299802D01*
X60474060Y78299802D02*
X60545489Y78156945D01*
X60545489Y78156945D02*
X60616917Y77871231D01*
X60616917Y77871231D02*
X60616917Y77656945D01*
X60616917Y77656945D02*
X60545489Y77371231D01*
X60545489Y77371231D02*
X60474060Y77228374D01*
X60474060Y77228374D02*
X60331203Y77085516D01*
X60331203Y77085516D02*
X60116917Y77014088D01*
X60116917Y77014088D02*
X59759774Y77014088D01*
X56902632Y74599172D02*
X56902632Y76099172D01*
X56902632Y76099172D02*
X57259775Y76099172D01*
X57259775Y76099172D02*
X57474061Y76027743D01*
X57474061Y76027743D02*
X57616918Y75884886D01*
X57616918Y75884886D02*
X57688347Y75742029D01*
X57688347Y75742029D02*
X57759775Y75456315D01*
X57759775Y75456315D02*
X57759775Y75242029D01*
X57759775Y75242029D02*
X57688347Y74956315D01*
X57688347Y74956315D02*
X57616918Y74813458D01*
X57616918Y74813458D02*
X57474061Y74670600D01*
X57474061Y74670600D02*
X57259775Y74599172D01*
X57259775Y74599172D02*
X56902632Y74599172D01*
X59188347Y74599172D02*
X58331204Y74599172D01*
X58759775Y74599172D02*
X58759775Y76099172D01*
X58759775Y76099172D02*
X58616918Y75884886D01*
X58616918Y75884886D02*
X58474061Y75742029D01*
X58474061Y75742029D02*
X58331204Y75670600D01*
X59688346Y76099172D02*
X60616918Y76099172D01*
X60616918Y76099172D02*
X60116918Y75527743D01*
X60116918Y75527743D02*
X60331203Y75527743D01*
X60331203Y75527743D02*
X60474061Y75456315D01*
X60474061Y75456315D02*
X60545489Y75384886D01*
X60545489Y75384886D02*
X60616918Y75242029D01*
X60616918Y75242029D02*
X60616918Y74884886D01*
X60616918Y74884886D02*
X60545489Y74742029D01*
X60545489Y74742029D02*
X60474061Y74670600D01*
X60474061Y74670600D02*
X60331203Y74599172D01*
X60331203Y74599172D02*
X59902632Y74599172D01*
X59902632Y74599172D02*
X59759775Y74670600D01*
X59759775Y74670600D02*
X59688346Y74742029D01*
X57574060Y71442659D02*
X57431203Y71514088D01*
X57431203Y71514088D02*
X57216917Y71514088D01*
X57216917Y71514088D02*
X57002631Y71442659D01*
X57002631Y71442659D02*
X56859774Y71299802D01*
X56859774Y71299802D02*
X56788345Y71156945D01*
X56788345Y71156945D02*
X56716917Y70871231D01*
X56716917Y70871231D02*
X56716917Y70656945D01*
X56716917Y70656945D02*
X56788345Y70371231D01*
X56788345Y70371231D02*
X56859774Y70228374D01*
X56859774Y70228374D02*
X57002631Y70085516D01*
X57002631Y70085516D02*
X57216917Y70014088D01*
X57216917Y70014088D02*
X57359774Y70014088D01*
X57359774Y70014088D02*
X57574060Y70085516D01*
X57574060Y70085516D02*
X57645488Y70156945D01*
X57645488Y70156945D02*
X57645488Y70656945D01*
X57645488Y70656945D02*
X57359774Y70656945D01*
X58288345Y70014088D02*
X58288345Y71514088D01*
X58288345Y71514088D02*
X59145488Y70014088D01*
X59145488Y70014088D02*
X59145488Y71514088D01*
X59859774Y70014088D02*
X59859774Y71514088D01*
X59859774Y71514088D02*
X60216917Y71514088D01*
X60216917Y71514088D02*
X60431203Y71442659D01*
X60431203Y71442659D02*
X60574060Y71299802D01*
X60574060Y71299802D02*
X60645489Y71156945D01*
X60645489Y71156945D02*
X60716917Y70871231D01*
X60716917Y70871231D02*
X60716917Y70656945D01*
X60716917Y70656945D02*
X60645489Y70371231D01*
X60645489Y70371231D02*
X60574060Y70228374D01*
X60574060Y70228374D02*
X60431203Y70085516D01*
X60431203Y70085516D02*
X60216917Y70014088D01*
X60216917Y70014088D02*
X59859774Y70014088D01*
X55431203Y67599172D02*
X54931203Y68313458D01*
X54574060Y67599172D02*
X54574060Y69099172D01*
X54574060Y69099172D02*
X55145489Y69099172D01*
X55145489Y69099172D02*
X55288346Y69027743D01*
X55288346Y69027743D02*
X55359775Y68956315D01*
X55359775Y68956315D02*
X55431203Y68813458D01*
X55431203Y68813458D02*
X55431203Y68599172D01*
X55431203Y68599172D02*
X55359775Y68456315D01*
X55359775Y68456315D02*
X55288346Y68384886D01*
X55288346Y68384886D02*
X55145489Y68313458D01*
X55145489Y68313458D02*
X54574060Y68313458D01*
X56074060Y68384886D02*
X56574060Y68384886D01*
X56788346Y67599172D02*
X56074060Y67599172D01*
X56074060Y67599172D02*
X56074060Y69099172D01*
X56074060Y69099172D02*
X56788346Y69099172D01*
X57359775Y67670600D02*
X57574061Y67599172D01*
X57574061Y67599172D02*
X57931203Y67599172D01*
X57931203Y67599172D02*
X58074061Y67670600D01*
X58074061Y67670600D02*
X58145489Y67742029D01*
X58145489Y67742029D02*
X58216918Y67884886D01*
X58216918Y67884886D02*
X58216918Y68027743D01*
X58216918Y68027743D02*
X58145489Y68170600D01*
X58145489Y68170600D02*
X58074061Y68242029D01*
X58074061Y68242029D02*
X57931203Y68313458D01*
X57931203Y68313458D02*
X57645489Y68384886D01*
X57645489Y68384886D02*
X57502632Y68456315D01*
X57502632Y68456315D02*
X57431203Y68527743D01*
X57431203Y68527743D02*
X57359775Y68670600D01*
X57359775Y68670600D02*
X57359775Y68813458D01*
X57359775Y68813458D02*
X57431203Y68956315D01*
X57431203Y68956315D02*
X57502632Y69027743D01*
X57502632Y69027743D02*
X57645489Y69099172D01*
X57645489Y69099172D02*
X58002632Y69099172D01*
X58002632Y69099172D02*
X58216918Y69027743D01*
X58859774Y68384886D02*
X59359774Y68384886D01*
X59574060Y67599172D02*
X58859774Y67599172D01*
X58859774Y67599172D02*
X58859774Y69099172D01*
X58859774Y69099172D02*
X59574060Y69099172D01*
X60002632Y69099172D02*
X60859775Y69099172D01*
X60431203Y67599172D02*
X60431203Y69099172D01*
X52857341Y87174061D02*
X52785912Y87031203D01*
X52785912Y87031203D02*
X52785912Y86816918D01*
X52785912Y86816918D02*
X52857341Y86602632D01*
X52857341Y86602632D02*
X53000198Y86459775D01*
X53000198Y86459775D02*
X53143055Y86388346D01*
X53143055Y86388346D02*
X53428769Y86316918D01*
X53428769Y86316918D02*
X53643055Y86316918D01*
X53643055Y86316918D02*
X53928769Y86388346D01*
X53928769Y86388346D02*
X54071626Y86459775D01*
X54071626Y86459775D02*
X54214484Y86602632D01*
X54214484Y86602632D02*
X54285912Y86816918D01*
X54285912Y86816918D02*
X54285912Y86959775D01*
X54285912Y86959775D02*
X54214484Y87174061D01*
X54214484Y87174061D02*
X54143055Y87245489D01*
X54143055Y87245489D02*
X53643055Y87245489D01*
X53643055Y87245489D02*
X53643055Y86959775D01*
X54285912Y87888346D02*
X52785912Y87888346D01*
X52785912Y87888346D02*
X54285912Y88745489D01*
X54285912Y88745489D02*
X52785912Y88745489D01*
X54285912Y89459775D02*
X52785912Y89459775D01*
X52785912Y89459775D02*
X52785912Y89816918D01*
X52785912Y89816918D02*
X52857341Y90031204D01*
X52857341Y90031204D02*
X53000198Y90174061D01*
X53000198Y90174061D02*
X53143055Y90245490D01*
X53143055Y90245490D02*
X53428769Y90316918D01*
X53428769Y90316918D02*
X53643055Y90316918D01*
X53643055Y90316918D02*
X53928769Y90245490D01*
X53928769Y90245490D02*
X54071626Y90174061D01*
X54071626Y90174061D02*
X54214484Y90031204D01*
X54214484Y90031204D02*
X54285912Y89816918D01*
X54285912Y89816918D02*
X54285912Y89459775D01*
X56700828Y86602633D02*
X55200828Y86602633D01*
X55200828Y86602633D02*
X55200828Y86959776D01*
X55200828Y86959776D02*
X55272257Y87174062D01*
X55272257Y87174062D02*
X55415114Y87316919D01*
X55415114Y87316919D02*
X55557971Y87388348D01*
X55557971Y87388348D02*
X55843685Y87459776D01*
X55843685Y87459776D02*
X56057971Y87459776D01*
X56057971Y87459776D02*
X56343685Y87388348D01*
X56343685Y87388348D02*
X56486542Y87316919D01*
X56486542Y87316919D02*
X56629400Y87174062D01*
X56629400Y87174062D02*
X56700828Y86959776D01*
X56700828Y86959776D02*
X56700828Y86602633D01*
X56700828Y88888348D02*
X56700828Y88031205D01*
X56700828Y88459776D02*
X55200828Y88459776D01*
X55200828Y88459776D02*
X55415114Y88316919D01*
X55415114Y88316919D02*
X55557971Y88174062D01*
X55557971Y88174062D02*
X55629400Y88031205D01*
X55343685Y89459776D02*
X55272257Y89531204D01*
X55272257Y89531204D02*
X55200828Y89674061D01*
X55200828Y89674061D02*
X55200828Y90031204D01*
X55200828Y90031204D02*
X55272257Y90174061D01*
X55272257Y90174061D02*
X55343685Y90245490D01*
X55343685Y90245490D02*
X55486542Y90316919D01*
X55486542Y90316919D02*
X55629400Y90316919D01*
X55629400Y90316919D02*
X55843685Y90245490D01*
X55843685Y90245490D02*
X56700828Y89388347D01*
X56700828Y89388347D02*
X56700828Y90316919D01*
X39657341Y87474061D02*
X39585912Y87331203D01*
X39585912Y87331203D02*
X39585912Y87116918D01*
X39585912Y87116918D02*
X39657341Y86902632D01*
X39657341Y86902632D02*
X39800198Y86759775D01*
X39800198Y86759775D02*
X39943055Y86688346D01*
X39943055Y86688346D02*
X40228769Y86616918D01*
X40228769Y86616918D02*
X40443055Y86616918D01*
X40443055Y86616918D02*
X40728769Y86688346D01*
X40728769Y86688346D02*
X40871626Y86759775D01*
X40871626Y86759775D02*
X41014484Y86902632D01*
X41014484Y86902632D02*
X41085912Y87116918D01*
X41085912Y87116918D02*
X41085912Y87259775D01*
X41085912Y87259775D02*
X41014484Y87474061D01*
X41014484Y87474061D02*
X40943055Y87545489D01*
X40943055Y87545489D02*
X40443055Y87545489D01*
X40443055Y87545489D02*
X40443055Y87259775D01*
X41085912Y88188346D02*
X39585912Y88188346D01*
X39585912Y88188346D02*
X41085912Y89045489D01*
X41085912Y89045489D02*
X39585912Y89045489D01*
X41085912Y89759775D02*
X39585912Y89759775D01*
X39585912Y89759775D02*
X39585912Y90116918D01*
X39585912Y90116918D02*
X39657341Y90331204D01*
X39657341Y90331204D02*
X39800198Y90474061D01*
X39800198Y90474061D02*
X39943055Y90545490D01*
X39943055Y90545490D02*
X40228769Y90616918D01*
X40228769Y90616918D02*
X40443055Y90616918D01*
X40443055Y90616918D02*
X40728769Y90545490D01*
X40728769Y90545490D02*
X40871626Y90474061D01*
X40871626Y90474061D02*
X41014484Y90331204D01*
X41014484Y90331204D02*
X41085912Y90116918D01*
X41085912Y90116918D02*
X41085912Y89759775D01*
X43500828Y86902633D02*
X42000828Y86902633D01*
X42000828Y86902633D02*
X42000828Y87259776D01*
X42000828Y87259776D02*
X42072257Y87474062D01*
X42072257Y87474062D02*
X42215114Y87616919D01*
X42215114Y87616919D02*
X42357971Y87688348D01*
X42357971Y87688348D02*
X42643685Y87759776D01*
X42643685Y87759776D02*
X42857971Y87759776D01*
X42857971Y87759776D02*
X43143685Y87688348D01*
X43143685Y87688348D02*
X43286542Y87616919D01*
X43286542Y87616919D02*
X43429400Y87474062D01*
X43429400Y87474062D02*
X43500828Y87259776D01*
X43500828Y87259776D02*
X43500828Y86902633D01*
X43500828Y89188348D02*
X43500828Y88331205D01*
X43500828Y88759776D02*
X42000828Y88759776D01*
X42000828Y88759776D02*
X42215114Y88616919D01*
X42215114Y88616919D02*
X42357971Y88474062D01*
X42357971Y88474062D02*
X42429400Y88331205D01*
X42000828Y90116919D02*
X42000828Y90259776D01*
X42000828Y90259776D02*
X42072257Y90402633D01*
X42072257Y90402633D02*
X42143685Y90474061D01*
X42143685Y90474061D02*
X42286542Y90545490D01*
X42286542Y90545490D02*
X42572257Y90616919D01*
X42572257Y90616919D02*
X42929400Y90616919D01*
X42929400Y90616919D02*
X43215114Y90545490D01*
X43215114Y90545490D02*
X43357971Y90474061D01*
X43357971Y90474061D02*
X43429400Y90402633D01*
X43429400Y90402633D02*
X43500828Y90259776D01*
X43500828Y90259776D02*
X43500828Y90116919D01*
X43500828Y90116919D02*
X43429400Y89974061D01*
X43429400Y89974061D02*
X43357971Y89902633D01*
X43357971Y89902633D02*
X43215114Y89831204D01*
X43215114Y89831204D02*
X42929400Y89759776D01*
X42929400Y89759776D02*
X42572257Y89759776D01*
X42572257Y89759776D02*
X42286542Y89831204D01*
X42286542Y89831204D02*
X42143685Y89902633D01*
X42143685Y89902633D02*
X42072257Y89974061D01*
X42072257Y89974061D02*
X42000828Y90116919D01*
X46257341Y87174061D02*
X46185912Y87031203D01*
X46185912Y87031203D02*
X46185912Y86816918D01*
X46185912Y86816918D02*
X46257341Y86602632D01*
X46257341Y86602632D02*
X46400198Y86459775D01*
X46400198Y86459775D02*
X46543055Y86388346D01*
X46543055Y86388346D02*
X46828769Y86316918D01*
X46828769Y86316918D02*
X47043055Y86316918D01*
X47043055Y86316918D02*
X47328769Y86388346D01*
X47328769Y86388346D02*
X47471626Y86459775D01*
X47471626Y86459775D02*
X47614484Y86602632D01*
X47614484Y86602632D02*
X47685912Y86816918D01*
X47685912Y86816918D02*
X47685912Y86959775D01*
X47685912Y86959775D02*
X47614484Y87174061D01*
X47614484Y87174061D02*
X47543055Y87245489D01*
X47543055Y87245489D02*
X47043055Y87245489D01*
X47043055Y87245489D02*
X47043055Y86959775D01*
X47685912Y87888346D02*
X46185912Y87888346D01*
X46185912Y87888346D02*
X47685912Y88745489D01*
X47685912Y88745489D02*
X46185912Y88745489D01*
X47685912Y89459775D02*
X46185912Y89459775D01*
X46185912Y89459775D02*
X46185912Y89816918D01*
X46185912Y89816918D02*
X46257341Y90031204D01*
X46257341Y90031204D02*
X46400198Y90174061D01*
X46400198Y90174061D02*
X46543055Y90245490D01*
X46543055Y90245490D02*
X46828769Y90316918D01*
X46828769Y90316918D02*
X47043055Y90316918D01*
X47043055Y90316918D02*
X47328769Y90245490D01*
X47328769Y90245490D02*
X47471626Y90174061D01*
X47471626Y90174061D02*
X47614484Y90031204D01*
X47614484Y90031204D02*
X47685912Y89816918D01*
X47685912Y89816918D02*
X47685912Y89459775D01*
X50100828Y86602633D02*
X48600828Y86602633D01*
X48600828Y86602633D02*
X48600828Y86959776D01*
X48600828Y86959776D02*
X48672257Y87174062D01*
X48672257Y87174062D02*
X48815114Y87316919D01*
X48815114Y87316919D02*
X48957971Y87388348D01*
X48957971Y87388348D02*
X49243685Y87459776D01*
X49243685Y87459776D02*
X49457971Y87459776D01*
X49457971Y87459776D02*
X49743685Y87388348D01*
X49743685Y87388348D02*
X49886542Y87316919D01*
X49886542Y87316919D02*
X50029400Y87174062D01*
X50029400Y87174062D02*
X50100828Y86959776D01*
X50100828Y86959776D02*
X50100828Y86602633D01*
X50100828Y88888348D02*
X50100828Y88031205D01*
X50100828Y88459776D02*
X48600828Y88459776D01*
X48600828Y88459776D02*
X48815114Y88316919D01*
X48815114Y88316919D02*
X48957971Y88174062D01*
X48957971Y88174062D02*
X49029400Y88031205D01*
X50100828Y90316919D02*
X50100828Y89459776D01*
X50100828Y89888347D02*
X48600828Y89888347D01*
X48600828Y89888347D02*
X48815114Y89745490D01*
X48815114Y89745490D02*
X48957971Y89602633D01*
X48957971Y89602633D02*
X49029400Y89459776D01*
X26457341Y87474061D02*
X26385912Y87331203D01*
X26385912Y87331203D02*
X26385912Y87116918D01*
X26385912Y87116918D02*
X26457341Y86902632D01*
X26457341Y86902632D02*
X26600198Y86759775D01*
X26600198Y86759775D02*
X26743055Y86688346D01*
X26743055Y86688346D02*
X27028769Y86616918D01*
X27028769Y86616918D02*
X27243055Y86616918D01*
X27243055Y86616918D02*
X27528769Y86688346D01*
X27528769Y86688346D02*
X27671626Y86759775D01*
X27671626Y86759775D02*
X27814484Y86902632D01*
X27814484Y86902632D02*
X27885912Y87116918D01*
X27885912Y87116918D02*
X27885912Y87259775D01*
X27885912Y87259775D02*
X27814484Y87474061D01*
X27814484Y87474061D02*
X27743055Y87545489D01*
X27743055Y87545489D02*
X27243055Y87545489D01*
X27243055Y87545489D02*
X27243055Y87259775D01*
X27885912Y88188346D02*
X26385912Y88188346D01*
X26385912Y88188346D02*
X27885912Y89045489D01*
X27885912Y89045489D02*
X26385912Y89045489D01*
X27885912Y89759775D02*
X26385912Y89759775D01*
X26385912Y89759775D02*
X26385912Y90116918D01*
X26385912Y90116918D02*
X26457341Y90331204D01*
X26457341Y90331204D02*
X26600198Y90474061D01*
X26600198Y90474061D02*
X26743055Y90545490D01*
X26743055Y90545490D02*
X27028769Y90616918D01*
X27028769Y90616918D02*
X27243055Y90616918D01*
X27243055Y90616918D02*
X27528769Y90545490D01*
X27528769Y90545490D02*
X27671626Y90474061D01*
X27671626Y90474061D02*
X27814484Y90331204D01*
X27814484Y90331204D02*
X27885912Y90116918D01*
X27885912Y90116918D02*
X27885912Y89759775D01*
X30300828Y88331204D02*
X28800828Y88331204D01*
X28800828Y88331204D02*
X28800828Y88688347D01*
X28800828Y88688347D02*
X28872257Y88902633D01*
X28872257Y88902633D02*
X29015114Y89045490D01*
X29015114Y89045490D02*
X29157971Y89116919D01*
X29157971Y89116919D02*
X29443685Y89188347D01*
X29443685Y89188347D02*
X29657971Y89188347D01*
X29657971Y89188347D02*
X29943685Y89116919D01*
X29943685Y89116919D02*
X30086542Y89045490D01*
X30086542Y89045490D02*
X30229400Y88902633D01*
X30229400Y88902633D02*
X30300828Y88688347D01*
X30300828Y88688347D02*
X30300828Y88331204D01*
X29443685Y90045490D02*
X29372257Y89902633D01*
X29372257Y89902633D02*
X29300828Y89831204D01*
X29300828Y89831204D02*
X29157971Y89759776D01*
X29157971Y89759776D02*
X29086542Y89759776D01*
X29086542Y89759776D02*
X28943685Y89831204D01*
X28943685Y89831204D02*
X28872257Y89902633D01*
X28872257Y89902633D02*
X28800828Y90045490D01*
X28800828Y90045490D02*
X28800828Y90331204D01*
X28800828Y90331204D02*
X28872257Y90474061D01*
X28872257Y90474061D02*
X28943685Y90545490D01*
X28943685Y90545490D02*
X29086542Y90616919D01*
X29086542Y90616919D02*
X29157971Y90616919D01*
X29157971Y90616919D02*
X29300828Y90545490D01*
X29300828Y90545490D02*
X29372257Y90474061D01*
X29372257Y90474061D02*
X29443685Y90331204D01*
X29443685Y90331204D02*
X29443685Y90045490D01*
X29443685Y90045490D02*
X29515114Y89902633D01*
X29515114Y89902633D02*
X29586542Y89831204D01*
X29586542Y89831204D02*
X29729400Y89759776D01*
X29729400Y89759776D02*
X30015114Y89759776D01*
X30015114Y89759776D02*
X30157971Y89831204D01*
X30157971Y89831204D02*
X30229400Y89902633D01*
X30229400Y89902633D02*
X30300828Y90045490D01*
X30300828Y90045490D02*
X30300828Y90331204D01*
X30300828Y90331204D02*
X30229400Y90474061D01*
X30229400Y90474061D02*
X30157971Y90545490D01*
X30157971Y90545490D02*
X30015114Y90616919D01*
X30015114Y90616919D02*
X29729400Y90616919D01*
X29729400Y90616919D02*
X29586542Y90545490D01*
X29586542Y90545490D02*
X29515114Y90474061D01*
X29515114Y90474061D02*
X29443685Y90331204D01*
X33057341Y87474061D02*
X32985912Y87331203D01*
X32985912Y87331203D02*
X32985912Y87116918D01*
X32985912Y87116918D02*
X33057341Y86902632D01*
X33057341Y86902632D02*
X33200198Y86759775D01*
X33200198Y86759775D02*
X33343055Y86688346D01*
X33343055Y86688346D02*
X33628769Y86616918D01*
X33628769Y86616918D02*
X33843055Y86616918D01*
X33843055Y86616918D02*
X34128769Y86688346D01*
X34128769Y86688346D02*
X34271626Y86759775D01*
X34271626Y86759775D02*
X34414484Y86902632D01*
X34414484Y86902632D02*
X34485912Y87116918D01*
X34485912Y87116918D02*
X34485912Y87259775D01*
X34485912Y87259775D02*
X34414484Y87474061D01*
X34414484Y87474061D02*
X34343055Y87545489D01*
X34343055Y87545489D02*
X33843055Y87545489D01*
X33843055Y87545489D02*
X33843055Y87259775D01*
X34485912Y88188346D02*
X32985912Y88188346D01*
X32985912Y88188346D02*
X34485912Y89045489D01*
X34485912Y89045489D02*
X32985912Y89045489D01*
X34485912Y89759775D02*
X32985912Y89759775D01*
X32985912Y89759775D02*
X32985912Y90116918D01*
X32985912Y90116918D02*
X33057341Y90331204D01*
X33057341Y90331204D02*
X33200198Y90474061D01*
X33200198Y90474061D02*
X33343055Y90545490D01*
X33343055Y90545490D02*
X33628769Y90616918D01*
X33628769Y90616918D02*
X33843055Y90616918D01*
X33843055Y90616918D02*
X34128769Y90545490D01*
X34128769Y90545490D02*
X34271626Y90474061D01*
X34271626Y90474061D02*
X34414484Y90331204D01*
X34414484Y90331204D02*
X34485912Y90116918D01*
X34485912Y90116918D02*
X34485912Y89759775D01*
X36900828Y88331204D02*
X35400828Y88331204D01*
X35400828Y88331204D02*
X35400828Y88688347D01*
X35400828Y88688347D02*
X35472257Y88902633D01*
X35472257Y88902633D02*
X35615114Y89045490D01*
X35615114Y89045490D02*
X35757971Y89116919D01*
X35757971Y89116919D02*
X36043685Y89188347D01*
X36043685Y89188347D02*
X36257971Y89188347D01*
X36257971Y89188347D02*
X36543685Y89116919D01*
X36543685Y89116919D02*
X36686542Y89045490D01*
X36686542Y89045490D02*
X36829400Y88902633D01*
X36829400Y88902633D02*
X36900828Y88688347D01*
X36900828Y88688347D02*
X36900828Y88331204D01*
X36900828Y89902633D02*
X36900828Y90188347D01*
X36900828Y90188347D02*
X36829400Y90331204D01*
X36829400Y90331204D02*
X36757971Y90402633D01*
X36757971Y90402633D02*
X36543685Y90545490D01*
X36543685Y90545490D02*
X36257971Y90616919D01*
X36257971Y90616919D02*
X35686542Y90616919D01*
X35686542Y90616919D02*
X35543685Y90545490D01*
X35543685Y90545490D02*
X35472257Y90474061D01*
X35472257Y90474061D02*
X35400828Y90331204D01*
X35400828Y90331204D02*
X35400828Y90045490D01*
X35400828Y90045490D02*
X35472257Y89902633D01*
X35472257Y89902633D02*
X35543685Y89831204D01*
X35543685Y89831204D02*
X35686542Y89759776D01*
X35686542Y89759776D02*
X36043685Y89759776D01*
X36043685Y89759776D02*
X36186542Y89831204D01*
X36186542Y89831204D02*
X36257971Y89902633D01*
X36257971Y89902633D02*
X36329400Y90045490D01*
X36329400Y90045490D02*
X36329400Y90331204D01*
X36329400Y90331204D02*
X36257971Y90474061D01*
X36257971Y90474061D02*
X36186542Y90545490D01*
X36186542Y90545490D02*
X36043685Y90616919D01*
X19857341Y87474061D02*
X19785912Y87331203D01*
X19785912Y87331203D02*
X19785912Y87116918D01*
X19785912Y87116918D02*
X19857341Y86902632D01*
X19857341Y86902632D02*
X20000198Y86759775D01*
X20000198Y86759775D02*
X20143055Y86688346D01*
X20143055Y86688346D02*
X20428769Y86616918D01*
X20428769Y86616918D02*
X20643055Y86616918D01*
X20643055Y86616918D02*
X20928769Y86688346D01*
X20928769Y86688346D02*
X21071626Y86759775D01*
X21071626Y86759775D02*
X21214484Y86902632D01*
X21214484Y86902632D02*
X21285912Y87116918D01*
X21285912Y87116918D02*
X21285912Y87259775D01*
X21285912Y87259775D02*
X21214484Y87474061D01*
X21214484Y87474061D02*
X21143055Y87545489D01*
X21143055Y87545489D02*
X20643055Y87545489D01*
X20643055Y87545489D02*
X20643055Y87259775D01*
X21285912Y88188346D02*
X19785912Y88188346D01*
X19785912Y88188346D02*
X21285912Y89045489D01*
X21285912Y89045489D02*
X19785912Y89045489D01*
X21285912Y89759775D02*
X19785912Y89759775D01*
X19785912Y89759775D02*
X19785912Y90116918D01*
X19785912Y90116918D02*
X19857341Y90331204D01*
X19857341Y90331204D02*
X20000198Y90474061D01*
X20000198Y90474061D02*
X20143055Y90545490D01*
X20143055Y90545490D02*
X20428769Y90616918D01*
X20428769Y90616918D02*
X20643055Y90616918D01*
X20643055Y90616918D02*
X20928769Y90545490D01*
X20928769Y90545490D02*
X21071626Y90474061D01*
X21071626Y90474061D02*
X21214484Y90331204D01*
X21214484Y90331204D02*
X21285912Y90116918D01*
X21285912Y90116918D02*
X21285912Y89759775D01*
X23700828Y88331204D02*
X22200828Y88331204D01*
X22200828Y88331204D02*
X22200828Y88688347D01*
X22200828Y88688347D02*
X22272257Y88902633D01*
X22272257Y88902633D02*
X22415114Y89045490D01*
X22415114Y89045490D02*
X22557971Y89116919D01*
X22557971Y89116919D02*
X22843685Y89188347D01*
X22843685Y89188347D02*
X23057971Y89188347D01*
X23057971Y89188347D02*
X23343685Y89116919D01*
X23343685Y89116919D02*
X23486542Y89045490D01*
X23486542Y89045490D02*
X23629400Y88902633D01*
X23629400Y88902633D02*
X23700828Y88688347D01*
X23700828Y88688347D02*
X23700828Y88331204D01*
X22200828Y89688347D02*
X22200828Y90688347D01*
X22200828Y90688347D02*
X23700828Y90045490D01*
X13357341Y87474061D02*
X13285912Y87331203D01*
X13285912Y87331203D02*
X13285912Y87116918D01*
X13285912Y87116918D02*
X13357341Y86902632D01*
X13357341Y86902632D02*
X13500198Y86759775D01*
X13500198Y86759775D02*
X13643055Y86688346D01*
X13643055Y86688346D02*
X13928769Y86616918D01*
X13928769Y86616918D02*
X14143055Y86616918D01*
X14143055Y86616918D02*
X14428769Y86688346D01*
X14428769Y86688346D02*
X14571626Y86759775D01*
X14571626Y86759775D02*
X14714484Y86902632D01*
X14714484Y86902632D02*
X14785912Y87116918D01*
X14785912Y87116918D02*
X14785912Y87259775D01*
X14785912Y87259775D02*
X14714484Y87474061D01*
X14714484Y87474061D02*
X14643055Y87545489D01*
X14643055Y87545489D02*
X14143055Y87545489D01*
X14143055Y87545489D02*
X14143055Y87259775D01*
X14785912Y88188346D02*
X13285912Y88188346D01*
X13285912Y88188346D02*
X14785912Y89045489D01*
X14785912Y89045489D02*
X13285912Y89045489D01*
X14785912Y89759775D02*
X13285912Y89759775D01*
X13285912Y89759775D02*
X13285912Y90116918D01*
X13285912Y90116918D02*
X13357341Y90331204D01*
X13357341Y90331204D02*
X13500198Y90474061D01*
X13500198Y90474061D02*
X13643055Y90545490D01*
X13643055Y90545490D02*
X13928769Y90616918D01*
X13928769Y90616918D02*
X14143055Y90616918D01*
X14143055Y90616918D02*
X14428769Y90545490D01*
X14428769Y90545490D02*
X14571626Y90474061D01*
X14571626Y90474061D02*
X14714484Y90331204D01*
X14714484Y90331204D02*
X14785912Y90116918D01*
X14785912Y90116918D02*
X14785912Y89759775D01*
X17200828Y88331204D02*
X15700828Y88331204D01*
X15700828Y88331204D02*
X15700828Y88688347D01*
X15700828Y88688347D02*
X15772257Y88902633D01*
X15772257Y88902633D02*
X15915114Y89045490D01*
X15915114Y89045490D02*
X16057971Y89116919D01*
X16057971Y89116919D02*
X16343685Y89188347D01*
X16343685Y89188347D02*
X16557971Y89188347D01*
X16557971Y89188347D02*
X16843685Y89116919D01*
X16843685Y89116919D02*
X16986542Y89045490D01*
X16986542Y89045490D02*
X17129400Y88902633D01*
X17129400Y88902633D02*
X17200828Y88688347D01*
X17200828Y88688347D02*
X17200828Y88331204D01*
X15700828Y90474061D02*
X15700828Y90188347D01*
X15700828Y90188347D02*
X15772257Y90045490D01*
X15772257Y90045490D02*
X15843685Y89974061D01*
X15843685Y89974061D02*
X16057971Y89831204D01*
X16057971Y89831204D02*
X16343685Y89759776D01*
X16343685Y89759776D02*
X16915114Y89759776D01*
X16915114Y89759776D02*
X17057971Y89831204D01*
X17057971Y89831204D02*
X17129400Y89902633D01*
X17129400Y89902633D02*
X17200828Y90045490D01*
X17200828Y90045490D02*
X17200828Y90331204D01*
X17200828Y90331204D02*
X17129400Y90474061D01*
X17129400Y90474061D02*
X17057971Y90545490D01*
X17057971Y90545490D02*
X16915114Y90616919D01*
X16915114Y90616919D02*
X16557971Y90616919D01*
X16557971Y90616919D02*
X16415114Y90545490D01*
X16415114Y90545490D02*
X16343685Y90474061D01*
X16343685Y90474061D02*
X16272257Y90331204D01*
X16272257Y90331204D02*
X16272257Y90045490D01*
X16272257Y90045490D02*
X16343685Y89902633D01*
X16343685Y89902633D02*
X16415114Y89831204D01*
X16415114Y89831204D02*
X16557971Y89759776D01*
D11*
X6686666Y51677610D02*
X6610476Y51715705D01*
X6610476Y51715705D02*
X6496190Y51715705D01*
X6496190Y51715705D02*
X6381904Y51677610D01*
X6381904Y51677610D02*
X6305714Y51601420D01*
X6305714Y51601420D02*
X6267619Y51525229D01*
X6267619Y51525229D02*
X6229523Y51372848D01*
X6229523Y51372848D02*
X6229523Y51258562D01*
X6229523Y51258562D02*
X6267619Y51106181D01*
X6267619Y51106181D02*
X6305714Y51029991D01*
X6305714Y51029991D02*
X6381904Y50953800D01*
X6381904Y50953800D02*
X6496190Y50915705D01*
X6496190Y50915705D02*
X6572381Y50915705D01*
X6572381Y50915705D02*
X6686666Y50953800D01*
X6686666Y50953800D02*
X6724762Y50991896D01*
X6724762Y50991896D02*
X6724762Y51258562D01*
X6724762Y51258562D02*
X6572381Y51258562D01*
X7067619Y50915705D02*
X7067619Y51715705D01*
X7067619Y51715705D02*
X7524762Y50915705D01*
X7524762Y50915705D02*
X7524762Y51715705D01*
X7905714Y50915705D02*
X7905714Y51715705D01*
X7905714Y51715705D02*
X8096190Y51715705D01*
X8096190Y51715705D02*
X8210476Y51677610D01*
X8210476Y51677610D02*
X8286666Y51601420D01*
X8286666Y51601420D02*
X8324761Y51525229D01*
X8324761Y51525229D02*
X8362857Y51372848D01*
X8362857Y51372848D02*
X8362857Y51258562D01*
X8362857Y51258562D02*
X8324761Y51106181D01*
X8324761Y51106181D02*
X8286666Y51029991D01*
X8286666Y51029991D02*
X8210476Y50953800D01*
X8210476Y50953800D02*
X8096190Y50915705D01*
X8096190Y50915705D02*
X7905714Y50915705D01*
X55157142Y3145181D02*
X54680952Y3145181D01*
X54680952Y3145181D02*
X54680952Y4145181D01*
X55490476Y3668991D02*
X55823809Y3668991D01*
X55966666Y3145181D02*
X55490476Y3145181D01*
X55490476Y3145181D02*
X55490476Y4145181D01*
X55490476Y4145181D02*
X55966666Y4145181D01*
X56395238Y3145181D02*
X56395238Y4145181D01*
X56395238Y4145181D02*
X56633333Y4145181D01*
X56633333Y4145181D02*
X56776190Y4097562D01*
X56776190Y4097562D02*
X56871428Y4002324D01*
X56871428Y4002324D02*
X56919047Y3907086D01*
X56919047Y3907086D02*
X56966666Y3716610D01*
X56966666Y3716610D02*
X56966666Y3573753D01*
X56966666Y3573753D02*
X56919047Y3383277D01*
X56919047Y3383277D02*
X56871428Y3288039D01*
X56871428Y3288039D02*
X56776190Y3192800D01*
X56776190Y3192800D02*
X56633333Y3145181D01*
X56633333Y3145181D02*
X56395238Y3145181D01*
X6686666Y40765705D02*
X6229523Y40765705D01*
X6458095Y40765705D02*
X6458095Y41565705D01*
X6458095Y41565705D02*
X6381904Y41451420D01*
X6381904Y41451420D02*
X6305714Y41375229D01*
X6305714Y41375229D02*
X6229523Y41337134D01*
X6991428Y41489515D02*
X7029524Y41527610D01*
X7029524Y41527610D02*
X7105714Y41565705D01*
X7105714Y41565705D02*
X7296190Y41565705D01*
X7296190Y41565705D02*
X7372381Y41527610D01*
X7372381Y41527610D02*
X7410476Y41489515D01*
X7410476Y41489515D02*
X7448571Y41413324D01*
X7448571Y41413324D02*
X7448571Y41337134D01*
X7448571Y41337134D02*
X7410476Y41222848D01*
X7410476Y41222848D02*
X6953333Y40765705D01*
X6953333Y40765705D02*
X7448571Y40765705D01*
X7677143Y41565705D02*
X7943810Y40765705D01*
X7943810Y40765705D02*
X8210476Y41565705D01*
X6229523Y45903800D02*
X6343809Y45865705D01*
X6343809Y45865705D02*
X6534285Y45865705D01*
X6534285Y45865705D02*
X6610476Y45903800D01*
X6610476Y45903800D02*
X6648571Y45941896D01*
X6648571Y45941896D02*
X6686666Y46018086D01*
X6686666Y46018086D02*
X6686666Y46094277D01*
X6686666Y46094277D02*
X6648571Y46170467D01*
X6648571Y46170467D02*
X6610476Y46208562D01*
X6610476Y46208562D02*
X6534285Y46246658D01*
X6534285Y46246658D02*
X6381904Y46284753D01*
X6381904Y46284753D02*
X6305714Y46322848D01*
X6305714Y46322848D02*
X6267619Y46360943D01*
X6267619Y46360943D02*
X6229523Y46437134D01*
X6229523Y46437134D02*
X6229523Y46513324D01*
X6229523Y46513324D02*
X6267619Y46589515D01*
X6267619Y46589515D02*
X6305714Y46627610D01*
X6305714Y46627610D02*
X6381904Y46665705D01*
X6381904Y46665705D02*
X6572381Y46665705D01*
X6572381Y46665705D02*
X6686666Y46627610D01*
X7181905Y46246658D02*
X7181905Y45865705D01*
X6915238Y46665705D02*
X7181905Y46246658D01*
X7181905Y46246658D02*
X7448571Y46665705D01*
X7715238Y45865705D02*
X7715238Y46665705D01*
X7715238Y46665705D02*
X8172381Y45865705D01*
X8172381Y45865705D02*
X8172381Y46665705D01*
X9010476Y45941896D02*
X8972380Y45903800D01*
X8972380Y45903800D02*
X8858095Y45865705D01*
X8858095Y45865705D02*
X8781904Y45865705D01*
X8781904Y45865705D02*
X8667618Y45903800D01*
X8667618Y45903800D02*
X8591428Y45979991D01*
X8591428Y45979991D02*
X8553333Y46056181D01*
X8553333Y46056181D02*
X8515237Y46208562D01*
X8515237Y46208562D02*
X8515237Y46322848D01*
X8515237Y46322848D02*
X8553333Y46475229D01*
X8553333Y46475229D02*
X8591428Y46551420D01*
X8591428Y46551420D02*
X8667618Y46627610D01*
X8667618Y46627610D02*
X8781904Y46665705D01*
X8781904Y46665705D02*
X8858095Y46665705D01*
X8858095Y46665705D02*
X8972380Y46627610D01*
X8972380Y46627610D02*
X9010476Y46589515D01*
X6686666Y39027610D02*
X6610476Y39065705D01*
X6610476Y39065705D02*
X6496190Y39065705D01*
X6496190Y39065705D02*
X6381904Y39027610D01*
X6381904Y39027610D02*
X6305714Y38951420D01*
X6305714Y38951420D02*
X6267619Y38875229D01*
X6267619Y38875229D02*
X6229523Y38722848D01*
X6229523Y38722848D02*
X6229523Y38608562D01*
X6229523Y38608562D02*
X6267619Y38456181D01*
X6267619Y38456181D02*
X6305714Y38379991D01*
X6305714Y38379991D02*
X6381904Y38303800D01*
X6381904Y38303800D02*
X6496190Y38265705D01*
X6496190Y38265705D02*
X6572381Y38265705D01*
X6572381Y38265705D02*
X6686666Y38303800D01*
X6686666Y38303800D02*
X6724762Y38341896D01*
X6724762Y38341896D02*
X6724762Y38608562D01*
X6724762Y38608562D02*
X6572381Y38608562D01*
X7067619Y38265705D02*
X7067619Y39065705D01*
X7067619Y39065705D02*
X7524762Y38265705D01*
X7524762Y38265705D02*
X7524762Y39065705D01*
X7905714Y38265705D02*
X7905714Y39065705D01*
X7905714Y39065705D02*
X8096190Y39065705D01*
X8096190Y39065705D02*
X8210476Y39027610D01*
X8210476Y39027610D02*
X8286666Y38951420D01*
X8286666Y38951420D02*
X8324761Y38875229D01*
X8324761Y38875229D02*
X8362857Y38722848D01*
X8362857Y38722848D02*
X8362857Y38608562D01*
X8362857Y38608562D02*
X8324761Y38456181D01*
X8324761Y38456181D02*
X8286666Y38379991D01*
X8286666Y38379991D02*
X8210476Y38303800D01*
X8210476Y38303800D02*
X8096190Y38265705D01*
X8096190Y38265705D02*
X7905714Y38265705D01*
X8688878Y35629888D02*
X8641259Y35487031D01*
X8641259Y35487031D02*
X8593640Y35439412D01*
X8593640Y35439412D02*
X8498402Y35391793D01*
X8498402Y35391793D02*
X8355545Y35391793D01*
X8355545Y35391793D02*
X8260307Y35439412D01*
X8260307Y35439412D02*
X8212688Y35487031D01*
X8212688Y35487031D02*
X8165068Y35582269D01*
X8165068Y35582269D02*
X8165068Y35963221D01*
X8165068Y35963221D02*
X9165068Y35963221D01*
X9165068Y35963221D02*
X9165068Y35629888D01*
X9165068Y35629888D02*
X9117449Y35534650D01*
X9117449Y35534650D02*
X9069830Y35487031D01*
X9069830Y35487031D02*
X8974592Y35439412D01*
X8974592Y35439412D02*
X8879354Y35439412D01*
X8879354Y35439412D02*
X8784116Y35487031D01*
X8784116Y35487031D02*
X8736497Y35534650D01*
X8736497Y35534650D02*
X8688878Y35629888D01*
X8688878Y35629888D02*
X8688878Y35963221D01*
X8165068Y34391793D02*
X8641259Y34725126D01*
X8165068Y34963221D02*
X9165068Y34963221D01*
X9165068Y34963221D02*
X9165068Y34582269D01*
X9165068Y34582269D02*
X9117449Y34487031D01*
X9117449Y34487031D02*
X9069830Y34439412D01*
X9069830Y34439412D02*
X8974592Y34391793D01*
X8974592Y34391793D02*
X8831735Y34391793D01*
X8831735Y34391793D02*
X8736497Y34439412D01*
X8736497Y34439412D02*
X8688878Y34487031D01*
X8688878Y34487031D02*
X8641259Y34582269D01*
X8641259Y34582269D02*
X8641259Y34963221D01*
X8688878Y33963221D02*
X8688878Y33629888D01*
X8165068Y33487031D02*
X8165068Y33963221D01*
X8165068Y33963221D02*
X9165068Y33963221D01*
X9165068Y33963221D02*
X9165068Y33487031D01*
X8450783Y33106078D02*
X8450783Y32629888D01*
X8165068Y33201316D02*
X9165068Y32867983D01*
X9165068Y32867983D02*
X8165068Y32534650D01*
X8165068Y32201316D02*
X9165068Y32201316D01*
X9165068Y32201316D02*
X9165068Y31963221D01*
X9165068Y31963221D02*
X9117449Y31820364D01*
X9117449Y31820364D02*
X9022211Y31725126D01*
X9022211Y31725126D02*
X8926973Y31677507D01*
X8926973Y31677507D02*
X8736497Y31629888D01*
X8736497Y31629888D02*
X8593640Y31629888D01*
X8593640Y31629888D02*
X8403164Y31677507D01*
X8403164Y31677507D02*
X8307926Y31725126D01*
X8307926Y31725126D02*
X8212688Y31820364D01*
X8212688Y31820364D02*
X8165068Y31963221D01*
X8165068Y31963221D02*
X8165068Y32201316D01*
X8212688Y30487030D02*
X8165068Y30344173D01*
X8165068Y30344173D02*
X8165068Y30106078D01*
X8165068Y30106078D02*
X8212688Y30010840D01*
X8212688Y30010840D02*
X8260307Y29963221D01*
X8260307Y29963221D02*
X8355545Y29915602D01*
X8355545Y29915602D02*
X8450783Y29915602D01*
X8450783Y29915602D02*
X8546021Y29963221D01*
X8546021Y29963221D02*
X8593640Y30010840D01*
X8593640Y30010840D02*
X8641259Y30106078D01*
X8641259Y30106078D02*
X8688878Y30296554D01*
X8688878Y30296554D02*
X8736497Y30391792D01*
X8736497Y30391792D02*
X8784116Y30439411D01*
X8784116Y30439411D02*
X8879354Y30487030D01*
X8879354Y30487030D02*
X8974592Y30487030D01*
X8974592Y30487030D02*
X9069830Y30439411D01*
X9069830Y30439411D02*
X9117449Y30391792D01*
X9117449Y30391792D02*
X9165068Y30296554D01*
X9165068Y30296554D02*
X9165068Y30058459D01*
X9165068Y30058459D02*
X9117449Y29915602D01*
X8165068Y29344173D02*
X8212688Y29439411D01*
X8212688Y29439411D02*
X8307926Y29487030D01*
X8307926Y29487030D02*
X9165068Y29487030D01*
X8165068Y28963220D02*
X8831735Y28963220D01*
X9165068Y28963220D02*
X9117449Y29010839D01*
X9117449Y29010839D02*
X9069830Y28963220D01*
X9069830Y28963220D02*
X9117449Y28915601D01*
X9117449Y28915601D02*
X9165068Y28963220D01*
X9165068Y28963220D02*
X9069830Y28963220D01*
X8212688Y28058459D02*
X8165068Y28153697D01*
X8165068Y28153697D02*
X8165068Y28344173D01*
X8165068Y28344173D02*
X8212688Y28439411D01*
X8212688Y28439411D02*
X8260307Y28487030D01*
X8260307Y28487030D02*
X8355545Y28534649D01*
X8355545Y28534649D02*
X8641259Y28534649D01*
X8641259Y28534649D02*
X8736497Y28487030D01*
X8736497Y28487030D02*
X8784116Y28439411D01*
X8784116Y28439411D02*
X8831735Y28344173D01*
X8831735Y28344173D02*
X8831735Y28153697D01*
X8831735Y28153697D02*
X8784116Y28058459D01*
X8212688Y27248935D02*
X8165068Y27344173D01*
X8165068Y27344173D02*
X8165068Y27534649D01*
X8165068Y27534649D02*
X8212688Y27629887D01*
X8212688Y27629887D02*
X8307926Y27677506D01*
X8307926Y27677506D02*
X8688878Y27677506D01*
X8688878Y27677506D02*
X8784116Y27629887D01*
X8784116Y27629887D02*
X8831735Y27534649D01*
X8831735Y27534649D02*
X8831735Y27344173D01*
X8831735Y27344173D02*
X8784116Y27248935D01*
X8784116Y27248935D02*
X8688878Y27201316D01*
X8688878Y27201316D02*
X8593640Y27201316D01*
X8593640Y27201316D02*
X8498402Y27677506D01*
X7555124Y36106078D02*
X7555124Y35534650D01*
X6555124Y35820364D02*
X7555124Y35820364D01*
X6602744Y34820364D02*
X6555124Y34915602D01*
X6555124Y34915602D02*
X6555124Y35106078D01*
X6555124Y35106078D02*
X6602744Y35201316D01*
X6602744Y35201316D02*
X6697982Y35248935D01*
X6697982Y35248935D02*
X7078934Y35248935D01*
X7078934Y35248935D02*
X7174172Y35201316D01*
X7174172Y35201316D02*
X7221791Y35106078D01*
X7221791Y35106078D02*
X7221791Y34915602D01*
X7221791Y34915602D02*
X7174172Y34820364D01*
X7174172Y34820364D02*
X7078934Y34772745D01*
X7078934Y34772745D02*
X6983696Y34772745D01*
X6983696Y34772745D02*
X6888458Y35248935D01*
X6555124Y34344173D02*
X7221791Y34344173D01*
X7126553Y34344173D02*
X7174172Y34296554D01*
X7174172Y34296554D02*
X7221791Y34201316D01*
X7221791Y34201316D02*
X7221791Y34058459D01*
X7221791Y34058459D02*
X7174172Y33963221D01*
X7174172Y33963221D02*
X7078934Y33915602D01*
X7078934Y33915602D02*
X6555124Y33915602D01*
X7078934Y33915602D02*
X7174172Y33867983D01*
X7174172Y33867983D02*
X7221791Y33772745D01*
X7221791Y33772745D02*
X7221791Y33629888D01*
X7221791Y33629888D02*
X7174172Y33534649D01*
X7174172Y33534649D02*
X7078934Y33487030D01*
X7078934Y33487030D02*
X6555124Y33487030D01*
X7221791Y33010840D02*
X6221791Y33010840D01*
X7174172Y33010840D02*
X7221791Y32915602D01*
X7221791Y32915602D02*
X7221791Y32725126D01*
X7221791Y32725126D02*
X7174172Y32629888D01*
X7174172Y32629888D02*
X7126553Y32582269D01*
X7126553Y32582269D02*
X7031315Y32534650D01*
X7031315Y32534650D02*
X6745601Y32534650D01*
X6745601Y32534650D02*
X6650363Y32582269D01*
X6650363Y32582269D02*
X6602744Y32629888D01*
X6602744Y32629888D02*
X6555124Y32725126D01*
X6555124Y32725126D02*
X6555124Y32915602D01*
X6555124Y32915602D02*
X6602744Y33010840D01*
X6555124Y31963221D02*
X6602744Y32058459D01*
X6602744Y32058459D02*
X6697982Y32106078D01*
X6697982Y32106078D02*
X7555124Y32106078D01*
X6555124Y31153697D02*
X7078934Y31153697D01*
X7078934Y31153697D02*
X7174172Y31201316D01*
X7174172Y31201316D02*
X7221791Y31296554D01*
X7221791Y31296554D02*
X7221791Y31487030D01*
X7221791Y31487030D02*
X7174172Y31582268D01*
X6602744Y31153697D02*
X6555124Y31248935D01*
X6555124Y31248935D02*
X6555124Y31487030D01*
X6555124Y31487030D02*
X6602744Y31582268D01*
X6602744Y31582268D02*
X6697982Y31629887D01*
X6697982Y31629887D02*
X6793220Y31629887D01*
X6793220Y31629887D02*
X6888458Y31582268D01*
X6888458Y31582268D02*
X6936077Y31487030D01*
X6936077Y31487030D02*
X6936077Y31248935D01*
X6936077Y31248935D02*
X6983696Y31153697D01*
X7221791Y30820363D02*
X7221791Y30439411D01*
X7555124Y30677506D02*
X6697982Y30677506D01*
X6697982Y30677506D02*
X6602744Y30629887D01*
X6602744Y30629887D02*
X6555124Y30534649D01*
X6555124Y30534649D02*
X6555124Y30439411D01*
X6602744Y29725125D02*
X6555124Y29820363D01*
X6555124Y29820363D02*
X6555124Y30010839D01*
X6555124Y30010839D02*
X6602744Y30106077D01*
X6602744Y30106077D02*
X6697982Y30153696D01*
X6697982Y30153696D02*
X7078934Y30153696D01*
X7078934Y30153696D02*
X7174172Y30106077D01*
X7174172Y30106077D02*
X7221791Y30010839D01*
X7221791Y30010839D02*
X7221791Y29820363D01*
X7221791Y29820363D02*
X7174172Y29725125D01*
X7174172Y29725125D02*
X7078934Y29677506D01*
X7078934Y29677506D02*
X6983696Y29677506D01*
X6983696Y29677506D02*
X6888458Y30153696D01*
X6650363Y29248934D02*
X6602744Y29201315D01*
X6602744Y29201315D02*
X6555124Y29248934D01*
X6555124Y29248934D02*
X6602744Y29296553D01*
X6602744Y29296553D02*
X6650363Y29248934D01*
X6650363Y29248934D02*
X6555124Y29248934D01*
X7174172Y29248934D02*
X7126553Y29201315D01*
X7126553Y29201315D02*
X7078934Y29248934D01*
X7078934Y29248934D02*
X7126553Y29296553D01*
X7126553Y29296553D02*
X7174172Y29248934D01*
X7174172Y29248934D02*
X7078934Y29248934D01*
X5326133Y35963221D02*
X5326133Y35201316D01*
X5611847Y34725126D02*
X5326133Y33963221D01*
X5326133Y33963221D02*
X5040419Y34725126D01*
X5040419Y32153698D02*
X4992800Y32201317D01*
X4992800Y32201317D02*
X4945180Y32344174D01*
X4945180Y32344174D02*
X4945180Y32439412D01*
X4945180Y32439412D02*
X4992800Y32582269D01*
X4992800Y32582269D02*
X5088038Y32677507D01*
X5088038Y32677507D02*
X5183276Y32725126D01*
X5183276Y32725126D02*
X5373752Y32772745D01*
X5373752Y32772745D02*
X5516609Y32772745D01*
X5516609Y32772745D02*
X5707085Y32725126D01*
X5707085Y32725126D02*
X5802323Y32677507D01*
X5802323Y32677507D02*
X5897561Y32582269D01*
X5897561Y32582269D02*
X5945180Y32439412D01*
X5945180Y32439412D02*
X5945180Y32344174D01*
X5945180Y32344174D02*
X5897561Y32201317D01*
X5897561Y32201317D02*
X5849942Y32153698D01*
X4945180Y31582269D02*
X4992800Y31677507D01*
X4992800Y31677507D02*
X5040419Y31725126D01*
X5040419Y31725126D02*
X5135657Y31772745D01*
X5135657Y31772745D02*
X5421371Y31772745D01*
X5421371Y31772745D02*
X5516609Y31725126D01*
X5516609Y31725126D02*
X5564228Y31677507D01*
X5564228Y31677507D02*
X5611847Y31582269D01*
X5611847Y31582269D02*
X5611847Y31439412D01*
X5611847Y31439412D02*
X5564228Y31344174D01*
X5564228Y31344174D02*
X5516609Y31296555D01*
X5516609Y31296555D02*
X5421371Y31248936D01*
X5421371Y31248936D02*
X5135657Y31248936D01*
X5135657Y31248936D02*
X5040419Y31296555D01*
X5040419Y31296555D02*
X4992800Y31344174D01*
X4992800Y31344174D02*
X4945180Y31439412D01*
X4945180Y31439412D02*
X4945180Y31582269D01*
X5611847Y30820364D02*
X4945180Y30820364D01*
X5516609Y30820364D02*
X5564228Y30772745D01*
X5564228Y30772745D02*
X5611847Y30677507D01*
X5611847Y30677507D02*
X5611847Y30534650D01*
X5611847Y30534650D02*
X5564228Y30439412D01*
X5564228Y30439412D02*
X5468990Y30391793D01*
X5468990Y30391793D02*
X4945180Y30391793D01*
X5611847Y29915602D02*
X4945180Y29915602D01*
X5516609Y29915602D02*
X5564228Y29867983D01*
X5564228Y29867983D02*
X5611847Y29772745D01*
X5611847Y29772745D02*
X5611847Y29629888D01*
X5611847Y29629888D02*
X5564228Y29534650D01*
X5564228Y29534650D02*
X5468990Y29487031D01*
X5468990Y29487031D02*
X4945180Y29487031D01*
X3382856Y36010840D02*
X3335236Y35867983D01*
X3335236Y35867983D02*
X3335236Y35629888D01*
X3335236Y35629888D02*
X3382856Y35534650D01*
X3382856Y35534650D02*
X3430475Y35487031D01*
X3430475Y35487031D02*
X3525713Y35439412D01*
X3525713Y35439412D02*
X3620951Y35439412D01*
X3620951Y35439412D02*
X3716189Y35487031D01*
X3716189Y35487031D02*
X3763808Y35534650D01*
X3763808Y35534650D02*
X3811427Y35629888D01*
X3811427Y35629888D02*
X3859046Y35820364D01*
X3859046Y35820364D02*
X3906665Y35915602D01*
X3906665Y35915602D02*
X3954284Y35963221D01*
X3954284Y35963221D02*
X4049522Y36010840D01*
X4049522Y36010840D02*
X4144760Y36010840D01*
X4144760Y36010840D02*
X4239998Y35963221D01*
X4239998Y35963221D02*
X4287617Y35915602D01*
X4287617Y35915602D02*
X4335236Y35820364D01*
X4335236Y35820364D02*
X4335236Y35582269D01*
X4335236Y35582269D02*
X4287617Y35439412D01*
X3335236Y34534650D02*
X3335236Y35010840D01*
X3335236Y35010840D02*
X4335236Y35010840D01*
X3430475Y33629888D02*
X3382856Y33677507D01*
X3382856Y33677507D02*
X3335236Y33820364D01*
X3335236Y33820364D02*
X3335236Y33915602D01*
X3335236Y33915602D02*
X3382856Y34058459D01*
X3382856Y34058459D02*
X3478094Y34153697D01*
X3478094Y34153697D02*
X3573332Y34201316D01*
X3573332Y34201316D02*
X3763808Y34248935D01*
X3763808Y34248935D02*
X3906665Y34248935D01*
X3906665Y34248935D02*
X4097141Y34201316D01*
X4097141Y34201316D02*
X4192379Y34153697D01*
X4192379Y34153697D02*
X4287617Y34058459D01*
X4287617Y34058459D02*
X4335236Y33915602D01*
X4335236Y33915602D02*
X4335236Y33820364D01*
X4335236Y33820364D02*
X4287617Y33677507D01*
X4287617Y33677507D02*
X4239998Y33629888D01*
X3239998Y33439411D02*
X3239998Y32677507D01*
X3335236Y32439411D02*
X4335236Y32439411D01*
X4335236Y32439411D02*
X4335236Y32058459D01*
X4335236Y32058459D02*
X4287617Y31963221D01*
X4287617Y31963221D02*
X4239998Y31915602D01*
X4239998Y31915602D02*
X4144760Y31867983D01*
X4144760Y31867983D02*
X4001903Y31867983D01*
X4001903Y31867983D02*
X3906665Y31915602D01*
X3906665Y31915602D02*
X3859046Y31963221D01*
X3859046Y31963221D02*
X3811427Y32058459D01*
X3811427Y32058459D02*
X3811427Y32439411D01*
X3335236Y30867983D02*
X3811427Y31201316D01*
X3335236Y31439411D02*
X4335236Y31439411D01*
X4335236Y31439411D02*
X4335236Y31058459D01*
X4335236Y31058459D02*
X4287617Y30963221D01*
X4287617Y30963221D02*
X4239998Y30915602D01*
X4239998Y30915602D02*
X4144760Y30867983D01*
X4144760Y30867983D02*
X4001903Y30867983D01*
X4001903Y30867983D02*
X3906665Y30915602D01*
X3906665Y30915602D02*
X3859046Y30963221D01*
X3859046Y30963221D02*
X3811427Y31058459D01*
X3811427Y31058459D02*
X3811427Y31439411D01*
X4335236Y30582268D02*
X4335236Y30010840D01*
X3335236Y30296554D02*
X4335236Y30296554D01*
X4335236Y29487030D02*
X4335236Y29296554D01*
X4335236Y29296554D02*
X4287617Y29201316D01*
X4287617Y29201316D02*
X4192379Y29106078D01*
X4192379Y29106078D02*
X4001903Y29058459D01*
X4001903Y29058459D02*
X3668570Y29058459D01*
X3668570Y29058459D02*
X3478094Y29106078D01*
X3478094Y29106078D02*
X3382856Y29201316D01*
X3382856Y29201316D02*
X3335236Y29296554D01*
X3335236Y29296554D02*
X3335236Y29487030D01*
X3335236Y29487030D02*
X3382856Y29582268D01*
X3382856Y29582268D02*
X3478094Y29677506D01*
X3478094Y29677506D02*
X3668570Y29725125D01*
X3668570Y29725125D02*
X4001903Y29725125D01*
X4001903Y29725125D02*
X4192379Y29677506D01*
X4192379Y29677506D02*
X4287617Y29582268D01*
X4287617Y29582268D02*
X4335236Y29487030D01*
X1725292Y35391793D02*
X2201483Y35725126D01*
X1725292Y35963221D02*
X2725292Y35963221D01*
X2725292Y35963221D02*
X2725292Y35582269D01*
X2725292Y35582269D02*
X2677673Y35487031D01*
X2677673Y35487031D02*
X2630054Y35439412D01*
X2630054Y35439412D02*
X2534816Y35391793D01*
X2534816Y35391793D02*
X2391959Y35391793D01*
X2391959Y35391793D02*
X2296721Y35439412D01*
X2296721Y35439412D02*
X2249102Y35487031D01*
X2249102Y35487031D02*
X2201483Y35582269D01*
X2201483Y35582269D02*
X2201483Y35963221D01*
X2630054Y35010840D02*
X2677673Y34963221D01*
X2677673Y34963221D02*
X2725292Y34867983D01*
X2725292Y34867983D02*
X2725292Y34629888D01*
X2725292Y34629888D02*
X2677673Y34534650D01*
X2677673Y34534650D02*
X2630054Y34487031D01*
X2630054Y34487031D02*
X2534816Y34439412D01*
X2534816Y34439412D02*
X2439578Y34439412D01*
X2439578Y34439412D02*
X2296721Y34487031D01*
X2296721Y34487031D02*
X1725292Y35058459D01*
X1725292Y35058459D02*
X1725292Y34439412D01*
X2725292Y33058459D02*
X2725292Y32963221D01*
X2725292Y32963221D02*
X2677673Y32867983D01*
X2677673Y32867983D02*
X2630054Y32820364D01*
X2630054Y32820364D02*
X2534816Y32772745D01*
X2534816Y32772745D02*
X2344340Y32725126D01*
X2344340Y32725126D02*
X2106245Y32725126D01*
X2106245Y32725126D02*
X1915769Y32772745D01*
X1915769Y32772745D02*
X1820531Y32820364D01*
X1820531Y32820364D02*
X1772912Y32867983D01*
X1772912Y32867983D02*
X1725292Y32963221D01*
X1725292Y32963221D02*
X1725292Y33058459D01*
X1725292Y33058459D02*
X1772912Y33153697D01*
X1772912Y33153697D02*
X1820531Y33201316D01*
X1820531Y33201316D02*
X1915769Y33248935D01*
X1915769Y33248935D02*
X2106245Y33296554D01*
X2106245Y33296554D02*
X2344340Y33296554D01*
X2344340Y33296554D02*
X2534816Y33248935D01*
X2534816Y33248935D02*
X2630054Y33201316D01*
X2630054Y33201316D02*
X2677673Y33153697D01*
X2677673Y33153697D02*
X2725292Y33058459D01*
X2391959Y31867983D02*
X1725292Y31867983D01*
X2772912Y32106078D02*
X2058626Y32344173D01*
X2058626Y32344173D02*
X2058626Y31725126D01*
X2106245Y31344173D02*
X2106245Y30582268D01*
X2630054Y30153697D02*
X2677673Y30106078D01*
X2677673Y30106078D02*
X2725292Y30010840D01*
X2725292Y30010840D02*
X2725292Y29772745D01*
X2725292Y29772745D02*
X2677673Y29677507D01*
X2677673Y29677507D02*
X2630054Y29629888D01*
X2630054Y29629888D02*
X2534816Y29582269D01*
X2534816Y29582269D02*
X2439578Y29582269D01*
X2439578Y29582269D02*
X2296721Y29629888D01*
X2296721Y29629888D02*
X1725292Y30201316D01*
X1725292Y30201316D02*
X1725292Y29582269D01*
X2725292Y28963221D02*
X2725292Y28867983D01*
X2725292Y28867983D02*
X2677673Y28772745D01*
X2677673Y28772745D02*
X2630054Y28725126D01*
X2630054Y28725126D02*
X2534816Y28677507D01*
X2534816Y28677507D02*
X2344340Y28629888D01*
X2344340Y28629888D02*
X2106245Y28629888D01*
X2106245Y28629888D02*
X1915769Y28677507D01*
X1915769Y28677507D02*
X1820531Y28725126D01*
X1820531Y28725126D02*
X1772912Y28772745D01*
X1772912Y28772745D02*
X1725292Y28867983D01*
X1725292Y28867983D02*
X1725292Y28963221D01*
X1725292Y28963221D02*
X1772912Y29058459D01*
X1772912Y29058459D02*
X1820531Y29106078D01*
X1820531Y29106078D02*
X1915769Y29153697D01*
X1915769Y29153697D02*
X2106245Y29201316D01*
X2106245Y29201316D02*
X2344340Y29201316D01*
X2344340Y29201316D02*
X2534816Y29153697D01*
X2534816Y29153697D02*
X2630054Y29106078D01*
X2630054Y29106078D02*
X2677673Y29058459D01*
X2677673Y29058459D02*
X2725292Y28963221D01*
X2630054Y28248935D02*
X2677673Y28201316D01*
X2677673Y28201316D02*
X2725292Y28106078D01*
X2725292Y28106078D02*
X2725292Y27867983D01*
X2725292Y27867983D02*
X2677673Y27772745D01*
X2677673Y27772745D02*
X2630054Y27725126D01*
X2630054Y27725126D02*
X2534816Y27677507D01*
X2534816Y27677507D02*
X2439578Y27677507D01*
X2439578Y27677507D02*
X2296721Y27725126D01*
X2296721Y27725126D02*
X1725292Y28296554D01*
X1725292Y28296554D02*
X1725292Y27677507D01*
X2725292Y26772745D02*
X2725292Y27248935D01*
X2725292Y27248935D02*
X2249102Y27296554D01*
X2249102Y27296554D02*
X2296721Y27248935D01*
X2296721Y27248935D02*
X2344340Y27153697D01*
X2344340Y27153697D02*
X2344340Y26915602D01*
X2344340Y26915602D02*
X2296721Y26820364D01*
X2296721Y26820364D02*
X2249102Y26772745D01*
X2249102Y26772745D02*
X2153864Y26725126D01*
X2153864Y26725126D02*
X1915769Y26725126D01*
X1915769Y26725126D02*
X1820531Y26772745D01*
X1820531Y26772745D02*
X1772912Y26820364D01*
X1772912Y26820364D02*
X1725292Y26915602D01*
X1725292Y26915602D02*
X1725292Y27153697D01*
X1725292Y27153697D02*
X1772912Y27248935D01*
X1772912Y27248935D02*
X1820531Y27296554D01*
X6686666Y61877610D02*
X6610476Y61915705D01*
X6610476Y61915705D02*
X6496190Y61915705D01*
X6496190Y61915705D02*
X6381904Y61877610D01*
X6381904Y61877610D02*
X6305714Y61801420D01*
X6305714Y61801420D02*
X6267619Y61725229D01*
X6267619Y61725229D02*
X6229523Y61572848D01*
X6229523Y61572848D02*
X6229523Y61458562D01*
X6229523Y61458562D02*
X6267619Y61306181D01*
X6267619Y61306181D02*
X6305714Y61229991D01*
X6305714Y61229991D02*
X6381904Y61153800D01*
X6381904Y61153800D02*
X6496190Y61115705D01*
X6496190Y61115705D02*
X6572381Y61115705D01*
X6572381Y61115705D02*
X6686666Y61153800D01*
X6686666Y61153800D02*
X6724762Y61191896D01*
X6724762Y61191896D02*
X6724762Y61458562D01*
X6724762Y61458562D02*
X6572381Y61458562D01*
X7067619Y61115705D02*
X7067619Y61915705D01*
X7067619Y61915705D02*
X7524762Y61115705D01*
X7524762Y61115705D02*
X7524762Y61915705D01*
X7905714Y61115705D02*
X7905714Y61915705D01*
X7905714Y61915705D02*
X8096190Y61915705D01*
X8096190Y61915705D02*
X8210476Y61877610D01*
X8210476Y61877610D02*
X8286666Y61801420D01*
X8286666Y61801420D02*
X8324761Y61725229D01*
X8324761Y61725229D02*
X8362857Y61572848D01*
X8362857Y61572848D02*
X8362857Y61458562D01*
X8362857Y61458562D02*
X8324761Y61306181D01*
X8324761Y61306181D02*
X8286666Y61229991D01*
X8286666Y61229991D02*
X8210476Y61153800D01*
X8210476Y61153800D02*
X8096190Y61115705D01*
X8096190Y61115705D02*
X7905714Y61115705D01*
D10*
X13614484Y50204511D02*
X13614484Y51347368D01*
X14185912Y50775940D02*
X13043055Y50775940D01*
X14185912Y52847369D02*
X14185912Y51990226D01*
X14185912Y52418797D02*
X12685912Y52418797D01*
X12685912Y52418797D02*
X12900198Y52275940D01*
X12900198Y52275940D02*
X13043055Y52133083D01*
X13043055Y52133083D02*
X13114484Y51990226D01*
X12828769Y53418797D02*
X12757341Y53490225D01*
X12757341Y53490225D02*
X12685912Y53633082D01*
X12685912Y53633082D02*
X12685912Y53990225D01*
X12685912Y53990225D02*
X12757341Y54133082D01*
X12757341Y54133082D02*
X12828769Y54204511D01*
X12828769Y54204511D02*
X12971626Y54275940D01*
X12971626Y54275940D02*
X13114484Y54275940D01*
X13114484Y54275940D02*
X13328769Y54204511D01*
X13328769Y54204511D02*
X14185912Y53347368D01*
X14185912Y53347368D02*
X14185912Y54275940D01*
X12685912Y54704511D02*
X14185912Y55204511D01*
X14185912Y55204511D02*
X12685912Y55704511D01*
X15172257Y52133083D02*
X15100828Y51990225D01*
X15100828Y51990225D02*
X15100828Y51775940D01*
X15100828Y51775940D02*
X15172257Y51561654D01*
X15172257Y51561654D02*
X15315114Y51418797D01*
X15315114Y51418797D02*
X15457971Y51347368D01*
X15457971Y51347368D02*
X15743685Y51275940D01*
X15743685Y51275940D02*
X15957971Y51275940D01*
X15957971Y51275940D02*
X16243685Y51347368D01*
X16243685Y51347368D02*
X16386542Y51418797D01*
X16386542Y51418797D02*
X16529400Y51561654D01*
X16529400Y51561654D02*
X16600828Y51775940D01*
X16600828Y51775940D02*
X16600828Y51918797D01*
X16600828Y51918797D02*
X16529400Y52133083D01*
X16529400Y52133083D02*
X16457971Y52204511D01*
X16457971Y52204511D02*
X15957971Y52204511D01*
X15957971Y52204511D02*
X15957971Y51918797D01*
X16600828Y52847368D02*
X15100828Y52847368D01*
X15100828Y52847368D02*
X16600828Y53704511D01*
X16600828Y53704511D02*
X15100828Y53704511D01*
X16600828Y54418797D02*
X15100828Y54418797D01*
X15100828Y54418797D02*
X15100828Y54775940D01*
X15100828Y54775940D02*
X15172257Y54990226D01*
X15172257Y54990226D02*
X15315114Y55133083D01*
X15315114Y55133083D02*
X15457971Y55204512D01*
X15457971Y55204512D02*
X15743685Y55275940D01*
X15743685Y55275940D02*
X15957971Y55275940D01*
X15957971Y55275940D02*
X16243685Y55204512D01*
X16243685Y55204512D02*
X16386542Y55133083D01*
X16386542Y55133083D02*
X16529400Y54990226D01*
X16529400Y54990226D02*
X16600828Y54775940D01*
X16600828Y54775940D02*
X16600828Y54418797D01*
X26814484Y50554511D02*
X26814484Y51697368D01*
X27385912Y51125940D02*
X26243055Y51125940D01*
X25885912Y53125940D02*
X25885912Y52411654D01*
X25885912Y52411654D02*
X26600198Y52340226D01*
X26600198Y52340226D02*
X26528769Y52411654D01*
X26528769Y52411654D02*
X26457341Y52554511D01*
X26457341Y52554511D02*
X26457341Y52911654D01*
X26457341Y52911654D02*
X26528769Y53054511D01*
X26528769Y53054511D02*
X26600198Y53125940D01*
X26600198Y53125940D02*
X26743055Y53197369D01*
X26743055Y53197369D02*
X27100198Y53197369D01*
X27100198Y53197369D02*
X27243055Y53125940D01*
X27243055Y53125940D02*
X27314484Y53054511D01*
X27314484Y53054511D02*
X27385912Y52911654D01*
X27385912Y52911654D02*
X27385912Y52554511D01*
X27385912Y52554511D02*
X27314484Y52411654D01*
X27314484Y52411654D02*
X27243055Y52340226D01*
X25885912Y53625940D02*
X27385912Y54125940D01*
X27385912Y54125940D02*
X25885912Y54625940D01*
X28372257Y52483083D02*
X28300828Y52340225D01*
X28300828Y52340225D02*
X28300828Y52125940D01*
X28300828Y52125940D02*
X28372257Y51911654D01*
X28372257Y51911654D02*
X28515114Y51768797D01*
X28515114Y51768797D02*
X28657971Y51697368D01*
X28657971Y51697368D02*
X28943685Y51625940D01*
X28943685Y51625940D02*
X29157971Y51625940D01*
X29157971Y51625940D02*
X29443685Y51697368D01*
X29443685Y51697368D02*
X29586542Y51768797D01*
X29586542Y51768797D02*
X29729400Y51911654D01*
X29729400Y51911654D02*
X29800828Y52125940D01*
X29800828Y52125940D02*
X29800828Y52268797D01*
X29800828Y52268797D02*
X29729400Y52483083D01*
X29729400Y52483083D02*
X29657971Y52554511D01*
X29657971Y52554511D02*
X29157971Y52554511D01*
X29157971Y52554511D02*
X29157971Y52268797D01*
X29800828Y53197368D02*
X28300828Y53197368D01*
X28300828Y53197368D02*
X29800828Y54054511D01*
X29800828Y54054511D02*
X28300828Y54054511D01*
X29800828Y54768797D02*
X28300828Y54768797D01*
X28300828Y54768797D02*
X28300828Y55125940D01*
X28300828Y55125940D02*
X28372257Y55340226D01*
X28372257Y55340226D02*
X28515114Y55483083D01*
X28515114Y55483083D02*
X28657971Y55554512D01*
X28657971Y55554512D02*
X28943685Y55625940D01*
X28943685Y55625940D02*
X29157971Y55625940D01*
X29157971Y55625940D02*
X29443685Y55554512D01*
X29443685Y55554512D02*
X29586542Y55483083D01*
X29586542Y55483083D02*
X29729400Y55340226D01*
X29729400Y55340226D02*
X29800828Y55125940D01*
X29800828Y55125940D02*
X29800828Y54768797D01*
D11*
X6267618Y48834753D02*
X6534284Y48834753D01*
X6648570Y48415705D02*
X6267618Y48415705D01*
X6267618Y48415705D02*
X6267618Y49215705D01*
X6267618Y49215705D02*
X6648570Y49215705D01*
X6953332Y48453800D02*
X7067618Y48415705D01*
X7067618Y48415705D02*
X7258094Y48415705D01*
X7258094Y48415705D02*
X7334285Y48453800D01*
X7334285Y48453800D02*
X7372380Y48491896D01*
X7372380Y48491896D02*
X7410475Y48568086D01*
X7410475Y48568086D02*
X7410475Y48644277D01*
X7410475Y48644277D02*
X7372380Y48720467D01*
X7372380Y48720467D02*
X7334285Y48758562D01*
X7334285Y48758562D02*
X7258094Y48796658D01*
X7258094Y48796658D02*
X7105713Y48834753D01*
X7105713Y48834753D02*
X7029523Y48872848D01*
X7029523Y48872848D02*
X6991428Y48910943D01*
X6991428Y48910943D02*
X6953332Y48987134D01*
X6953332Y48987134D02*
X6953332Y49063324D01*
X6953332Y49063324D02*
X6991428Y49139515D01*
X6991428Y49139515D02*
X7029523Y49177610D01*
X7029523Y49177610D02*
X7105713Y49215705D01*
X7105713Y49215705D02*
X7296190Y49215705D01*
X7296190Y49215705D02*
X7410475Y49177610D01*
X7639047Y49215705D02*
X8096190Y49215705D01*
X7867618Y48415705D02*
X7867618Y49215705D01*
X8515238Y49215705D02*
X8667619Y49215705D01*
X8667619Y49215705D02*
X8743809Y49177610D01*
X8743809Y49177610D02*
X8820000Y49101420D01*
X8820000Y49101420D02*
X8858095Y48949039D01*
X8858095Y48949039D02*
X8858095Y48682372D01*
X8858095Y48682372D02*
X8820000Y48529991D01*
X8820000Y48529991D02*
X8743809Y48453800D01*
X8743809Y48453800D02*
X8667619Y48415705D01*
X8667619Y48415705D02*
X8515238Y48415705D01*
X8515238Y48415705D02*
X8439047Y48453800D01*
X8439047Y48453800D02*
X8362857Y48529991D01*
X8362857Y48529991D02*
X8324761Y48682372D01*
X8324761Y48682372D02*
X8324761Y48949039D01*
X8324761Y48949039D02*
X8362857Y49101420D01*
X8362857Y49101420D02*
X8439047Y49177610D01*
X8439047Y49177610D02*
X8515238Y49215705D01*
X9200952Y48415705D02*
X9200952Y49215705D01*
X9200952Y49215705D02*
X9505714Y49215705D01*
X9505714Y49215705D02*
X9581904Y49177610D01*
X9581904Y49177610D02*
X9619999Y49139515D01*
X9619999Y49139515D02*
X9658095Y49063324D01*
X9658095Y49063324D02*
X9658095Y48949039D01*
X9658095Y48949039D02*
X9619999Y48872848D01*
X9619999Y48872848D02*
X9581904Y48834753D01*
X9581904Y48834753D02*
X9505714Y48796658D01*
X9505714Y48796658D02*
X9200952Y48796658D01*
X6267619Y43315705D02*
X6267619Y44115705D01*
X6648571Y43315705D02*
X6648571Y44115705D01*
X6648571Y44115705D02*
X7105714Y43315705D01*
X7105714Y43315705D02*
X7105714Y44115705D01*
X7372380Y44115705D02*
X7829523Y44115705D01*
X7600951Y43315705D02*
X7600951Y44115705D01*
D10*
X20204484Y50204511D02*
X20204484Y51347368D01*
X20775912Y50775940D02*
X19633055Y50775940D01*
X19275912Y51918797D02*
X19275912Y52847369D01*
X19275912Y52847369D02*
X19847341Y52347369D01*
X19847341Y52347369D02*
X19847341Y52561654D01*
X19847341Y52561654D02*
X19918769Y52704511D01*
X19918769Y52704511D02*
X19990198Y52775940D01*
X19990198Y52775940D02*
X20133055Y52847369D01*
X20133055Y52847369D02*
X20490198Y52847369D01*
X20490198Y52847369D02*
X20633055Y52775940D01*
X20633055Y52775940D02*
X20704484Y52704511D01*
X20704484Y52704511D02*
X20775912Y52561654D01*
X20775912Y52561654D02*
X20775912Y52133083D01*
X20775912Y52133083D02*
X20704484Y51990226D01*
X20704484Y51990226D02*
X20633055Y51918797D01*
X19275912Y53275940D02*
X20775912Y53775940D01*
X20775912Y53775940D02*
X19275912Y54275940D01*
X19275912Y54633082D02*
X19275912Y55561654D01*
X19275912Y55561654D02*
X19847341Y55061654D01*
X19847341Y55061654D02*
X19847341Y55275939D01*
X19847341Y55275939D02*
X19918769Y55418796D01*
X19918769Y55418796D02*
X19990198Y55490225D01*
X19990198Y55490225D02*
X20133055Y55561654D01*
X20133055Y55561654D02*
X20490198Y55561654D01*
X20490198Y55561654D02*
X20633055Y55490225D01*
X20633055Y55490225D02*
X20704484Y55418796D01*
X20704484Y55418796D02*
X20775912Y55275939D01*
X20775912Y55275939D02*
X20775912Y54847368D01*
X20775912Y54847368D02*
X20704484Y54704511D01*
X20704484Y54704511D02*
X20633055Y54633082D01*
X21762257Y52133083D02*
X21690828Y51990225D01*
X21690828Y51990225D02*
X21690828Y51775940D01*
X21690828Y51775940D02*
X21762257Y51561654D01*
X21762257Y51561654D02*
X21905114Y51418797D01*
X21905114Y51418797D02*
X22047971Y51347368D01*
X22047971Y51347368D02*
X22333685Y51275940D01*
X22333685Y51275940D02*
X22547971Y51275940D01*
X22547971Y51275940D02*
X22833685Y51347368D01*
X22833685Y51347368D02*
X22976542Y51418797D01*
X22976542Y51418797D02*
X23119400Y51561654D01*
X23119400Y51561654D02*
X23190828Y51775940D01*
X23190828Y51775940D02*
X23190828Y51918797D01*
X23190828Y51918797D02*
X23119400Y52133083D01*
X23119400Y52133083D02*
X23047971Y52204511D01*
X23047971Y52204511D02*
X22547971Y52204511D01*
X22547971Y52204511D02*
X22547971Y51918797D01*
X23190828Y52847368D02*
X21690828Y52847368D01*
X21690828Y52847368D02*
X23190828Y53704511D01*
X23190828Y53704511D02*
X21690828Y53704511D01*
X23190828Y54418797D02*
X21690828Y54418797D01*
X21690828Y54418797D02*
X21690828Y54775940D01*
X21690828Y54775940D02*
X21762257Y54990226D01*
X21762257Y54990226D02*
X21905114Y55133083D01*
X21905114Y55133083D02*
X22047971Y55204512D01*
X22047971Y55204512D02*
X22333685Y55275940D01*
X22333685Y55275940D02*
X22547971Y55275940D01*
X22547971Y55275940D02*
X22833685Y55204512D01*
X22833685Y55204512D02*
X22976542Y55133083D01*
X22976542Y55133083D02*
X23119400Y54990226D01*
X23119400Y54990226D02*
X23190828Y54775940D01*
X23190828Y54775940D02*
X23190828Y54418797D01*
D11*
X6229523Y53503800D02*
X6343809Y53465705D01*
X6343809Y53465705D02*
X6534285Y53465705D01*
X6534285Y53465705D02*
X6610476Y53503800D01*
X6610476Y53503800D02*
X6648571Y53541896D01*
X6648571Y53541896D02*
X6686666Y53618086D01*
X6686666Y53618086D02*
X6686666Y53694277D01*
X6686666Y53694277D02*
X6648571Y53770467D01*
X6648571Y53770467D02*
X6610476Y53808562D01*
X6610476Y53808562D02*
X6534285Y53846658D01*
X6534285Y53846658D02*
X6381904Y53884753D01*
X6381904Y53884753D02*
X6305714Y53922848D01*
X6305714Y53922848D02*
X6267619Y53960943D01*
X6267619Y53960943D02*
X6229523Y54037134D01*
X6229523Y54037134D02*
X6229523Y54113324D01*
X6229523Y54113324D02*
X6267619Y54189515D01*
X6267619Y54189515D02*
X6305714Y54227610D01*
X6305714Y54227610D02*
X6381904Y54265705D01*
X6381904Y54265705D02*
X6572381Y54265705D01*
X6572381Y54265705D02*
X6686666Y54227610D01*
X7029524Y53465705D02*
X7029524Y54265705D01*
X7029524Y54265705D02*
X7220000Y54265705D01*
X7220000Y54265705D02*
X7334286Y54227610D01*
X7334286Y54227610D02*
X7410476Y54151420D01*
X7410476Y54151420D02*
X7448571Y54075229D01*
X7448571Y54075229D02*
X7486667Y53922848D01*
X7486667Y53922848D02*
X7486667Y53808562D01*
X7486667Y53808562D02*
X7448571Y53656181D01*
X7448571Y53656181D02*
X7410476Y53579991D01*
X7410476Y53579991D02*
X7334286Y53503800D01*
X7334286Y53503800D02*
X7220000Y53465705D01*
X7220000Y53465705D02*
X7029524Y53465705D01*
X7791428Y53694277D02*
X8172381Y53694277D01*
X7715238Y53465705D02*
X7981905Y54265705D01*
X7981905Y54265705D02*
X8248571Y53465705D01*
X6229523Y56053800D02*
X6343809Y56015705D01*
X6343809Y56015705D02*
X6534285Y56015705D01*
X6534285Y56015705D02*
X6610476Y56053800D01*
X6610476Y56053800D02*
X6648571Y56091896D01*
X6648571Y56091896D02*
X6686666Y56168086D01*
X6686666Y56168086D02*
X6686666Y56244277D01*
X6686666Y56244277D02*
X6648571Y56320467D01*
X6648571Y56320467D02*
X6610476Y56358562D01*
X6610476Y56358562D02*
X6534285Y56396658D01*
X6534285Y56396658D02*
X6381904Y56434753D01*
X6381904Y56434753D02*
X6305714Y56472848D01*
X6305714Y56472848D02*
X6267619Y56510943D01*
X6267619Y56510943D02*
X6229523Y56587134D01*
X6229523Y56587134D02*
X6229523Y56663324D01*
X6229523Y56663324D02*
X6267619Y56739515D01*
X6267619Y56739515D02*
X6305714Y56777610D01*
X6305714Y56777610D02*
X6381904Y56815705D01*
X6381904Y56815705D02*
X6572381Y56815705D01*
X6572381Y56815705D02*
X6686666Y56777610D01*
X7486667Y56091896D02*
X7448571Y56053800D01*
X7448571Y56053800D02*
X7334286Y56015705D01*
X7334286Y56015705D02*
X7258095Y56015705D01*
X7258095Y56015705D02*
X7143809Y56053800D01*
X7143809Y56053800D02*
X7067619Y56129991D01*
X7067619Y56129991D02*
X7029524Y56206181D01*
X7029524Y56206181D02*
X6991428Y56358562D01*
X6991428Y56358562D02*
X6991428Y56472848D01*
X6991428Y56472848D02*
X7029524Y56625229D01*
X7029524Y56625229D02*
X7067619Y56701420D01*
X7067619Y56701420D02*
X7143809Y56777610D01*
X7143809Y56777610D02*
X7258095Y56815705D01*
X7258095Y56815705D02*
X7334286Y56815705D01*
X7334286Y56815705D02*
X7448571Y56777610D01*
X7448571Y56777610D02*
X7486667Y56739515D01*
X8210476Y56015705D02*
X7829524Y56015705D01*
X7829524Y56015705D02*
X7829524Y56815705D01*
X27966009Y12452858D02*
X27966009Y13405239D01*
X28537438Y12262382D02*
X26537438Y12929048D01*
X26537438Y12929048D02*
X28537438Y13595715D01*
X28537438Y15405239D02*
X27585057Y14738572D01*
X28537438Y14262382D02*
X26537438Y14262382D01*
X26537438Y14262382D02*
X26537438Y15024287D01*
X26537438Y15024287D02*
X26632676Y15214763D01*
X26632676Y15214763D02*
X26727914Y15310001D01*
X26727914Y15310001D02*
X26918390Y15405239D01*
X26918390Y15405239D02*
X27204104Y15405239D01*
X27204104Y15405239D02*
X27394580Y15310001D01*
X27394580Y15310001D02*
X27489819Y15214763D01*
X27489819Y15214763D02*
X27585057Y15024287D01*
X27585057Y15024287D02*
X27585057Y14262382D01*
X28537438Y16262382D02*
X26537438Y16262382D01*
X26537438Y16262382D02*
X26537438Y16738572D01*
X26537438Y16738572D02*
X26632676Y17024287D01*
X26632676Y17024287D02*
X26823152Y17214763D01*
X26823152Y17214763D02*
X27013628Y17310001D01*
X27013628Y17310001D02*
X27394580Y17405239D01*
X27394580Y17405239D02*
X27680295Y17405239D01*
X27680295Y17405239D02*
X28061247Y17310001D01*
X28061247Y17310001D02*
X28251723Y17214763D01*
X28251723Y17214763D02*
X28442200Y17024287D01*
X28442200Y17024287D02*
X28537438Y16738572D01*
X28537438Y16738572D02*
X28537438Y16262382D01*
X26537438Y18262382D02*
X28156485Y18262382D01*
X28156485Y18262382D02*
X28346961Y18357620D01*
X28346961Y18357620D02*
X28442200Y18452858D01*
X28442200Y18452858D02*
X28537438Y18643334D01*
X28537438Y18643334D02*
X28537438Y19024287D01*
X28537438Y19024287D02*
X28442200Y19214763D01*
X28442200Y19214763D02*
X28346961Y19310001D01*
X28346961Y19310001D02*
X28156485Y19405239D01*
X28156485Y19405239D02*
X26537438Y19405239D01*
X28537438Y20357620D02*
X26537438Y20357620D01*
X28537438Y21310001D02*
X26537438Y21310001D01*
X26537438Y21310001D02*
X28537438Y22452858D01*
X28537438Y22452858D02*
X26537438Y22452858D01*
X26537438Y23786191D02*
X26537438Y24167144D01*
X26537438Y24167144D02*
X26632676Y24357620D01*
X26632676Y24357620D02*
X26823152Y24548096D01*
X26823152Y24548096D02*
X27204104Y24643334D01*
X27204104Y24643334D02*
X27870771Y24643334D01*
X27870771Y24643334D02*
X28251723Y24548096D01*
X28251723Y24548096D02*
X28442200Y24357620D01*
X28442200Y24357620D02*
X28537438Y24167144D01*
X28537438Y24167144D02*
X28537438Y23786191D01*
X28537438Y23786191D02*
X28442200Y23595715D01*
X28442200Y23595715D02*
X28251723Y23405239D01*
X28251723Y23405239D02*
X27870771Y23310001D01*
X27870771Y23310001D02*
X27204104Y23310001D01*
X27204104Y23310001D02*
X26823152Y23405239D01*
X26823152Y23405239D02*
X26632676Y23595715D01*
X26632676Y23595715D02*
X26537438Y23786191D01*
X28537438Y27024287D02*
X26537438Y27024287D01*
X26537438Y27024287D02*
X28537438Y28167144D01*
X28537438Y28167144D02*
X26537438Y28167144D01*
X27966009Y29024287D02*
X27966009Y29976668D01*
X28537438Y28833811D02*
X26537438Y29500477D01*
X26537438Y29500477D02*
X28537438Y30167144D01*
X28537438Y30833811D02*
X26537438Y30833811D01*
X26537438Y30833811D02*
X28537438Y31976668D01*
X28537438Y31976668D02*
X26537438Y31976668D01*
X26537438Y33310001D02*
X26537438Y33690954D01*
X26537438Y33690954D02*
X26632676Y33881430D01*
X26632676Y33881430D02*
X26823152Y34071906D01*
X26823152Y34071906D02*
X27204104Y34167144D01*
X27204104Y34167144D02*
X27870771Y34167144D01*
X27870771Y34167144D02*
X28251723Y34071906D01*
X28251723Y34071906D02*
X28442200Y33881430D01*
X28442200Y33881430D02*
X28537438Y33690954D01*
X28537438Y33690954D02*
X28537438Y33310001D01*
X28537438Y33310001D02*
X28442200Y33119525D01*
X28442200Y33119525D02*
X28251723Y32929049D01*
X28251723Y32929049D02*
X27870771Y32833811D01*
X27870771Y32833811D02*
X27204104Y32833811D01*
X27204104Y32833811D02*
X26823152Y32929049D01*
X26823152Y32929049D02*
X26632676Y33119525D01*
X26632676Y33119525D02*
X26537438Y33310001D01*
X6686666Y58565705D02*
X6229523Y58565705D01*
X6458095Y58565705D02*
X6458095Y59365705D01*
X6458095Y59365705D02*
X6381904Y59251420D01*
X6381904Y59251420D02*
X6305714Y59175229D01*
X6305714Y59175229D02*
X6229523Y59137134D01*
X6991428Y59289515D02*
X7029524Y59327610D01*
X7029524Y59327610D02*
X7105714Y59365705D01*
X7105714Y59365705D02*
X7296190Y59365705D01*
X7296190Y59365705D02*
X7372381Y59327610D01*
X7372381Y59327610D02*
X7410476Y59289515D01*
X7410476Y59289515D02*
X7448571Y59213324D01*
X7448571Y59213324D02*
X7448571Y59137134D01*
X7448571Y59137134D02*
X7410476Y59022848D01*
X7410476Y59022848D02*
X6953333Y58565705D01*
X6953333Y58565705D02*
X7448571Y58565705D01*
X7677143Y59365705D02*
X7943810Y58565705D01*
X7943810Y58565705D02*
X8210476Y59365705D01*
X54566666Y98045181D02*
X54566666Y97330896D01*
X54566666Y97330896D02*
X54519047Y97188039D01*
X54519047Y97188039D02*
X54423809Y97092800D01*
X54423809Y97092800D02*
X54280952Y97045181D01*
X54280952Y97045181D02*
X54185714Y97045181D01*
X54947619Y98045181D02*
X55566666Y98045181D01*
X55566666Y98045181D02*
X55233333Y97664229D01*
X55233333Y97664229D02*
X55376190Y97664229D01*
X55376190Y97664229D02*
X55471428Y97616610D01*
X55471428Y97616610D02*
X55519047Y97568991D01*
X55519047Y97568991D02*
X55566666Y97473753D01*
X55566666Y97473753D02*
X55566666Y97235658D01*
X55566666Y97235658D02*
X55519047Y97140420D01*
X55519047Y97140420D02*
X55471428Y97092800D01*
X55471428Y97092800D02*
X55376190Y97045181D01*
X55376190Y97045181D02*
X55090476Y97045181D01*
X55090476Y97045181D02*
X54995238Y97092800D01*
X54995238Y97092800D02*
X54947619Y97140420D01*
X34766666Y98045181D02*
X34766666Y97330896D01*
X34766666Y97330896D02*
X34719047Y97188039D01*
X34719047Y97188039D02*
X34623809Y97092800D01*
X34623809Y97092800D02*
X34480952Y97045181D01*
X34480952Y97045181D02*
X34385714Y97045181D01*
X35671428Y98045181D02*
X35480952Y98045181D01*
X35480952Y98045181D02*
X35385714Y97997562D01*
X35385714Y97997562D02*
X35338095Y97949943D01*
X35338095Y97949943D02*
X35242857Y97807086D01*
X35242857Y97807086D02*
X35195238Y97616610D01*
X35195238Y97616610D02*
X35195238Y97235658D01*
X35195238Y97235658D02*
X35242857Y97140420D01*
X35242857Y97140420D02*
X35290476Y97092800D01*
X35290476Y97092800D02*
X35385714Y97045181D01*
X35385714Y97045181D02*
X35576190Y97045181D01*
X35576190Y97045181D02*
X35671428Y97092800D01*
X35671428Y97092800D02*
X35719047Y97140420D01*
X35719047Y97140420D02*
X35766666Y97235658D01*
X35766666Y97235658D02*
X35766666Y97473753D01*
X35766666Y97473753D02*
X35719047Y97568991D01*
X35719047Y97568991D02*
X35671428Y97616610D01*
X35671428Y97616610D02*
X35576190Y97664229D01*
X35576190Y97664229D02*
X35385714Y97664229D01*
X35385714Y97664229D02*
X35290476Y97616610D01*
X35290476Y97616610D02*
X35242857Y97568991D01*
X35242857Y97568991D02*
X35195238Y97473753D01*
X21566666Y98045181D02*
X21566666Y97330896D01*
X21566666Y97330896D02*
X21519047Y97188039D01*
X21519047Y97188039D02*
X21423809Y97092800D01*
X21423809Y97092800D02*
X21280952Y97045181D01*
X21280952Y97045181D02*
X21185714Y97045181D01*
X22185714Y97616610D02*
X22090476Y97664229D01*
X22090476Y97664229D02*
X22042857Y97711848D01*
X22042857Y97711848D02*
X21995238Y97807086D01*
X21995238Y97807086D02*
X21995238Y97854705D01*
X21995238Y97854705D02*
X22042857Y97949943D01*
X22042857Y97949943D02*
X22090476Y97997562D01*
X22090476Y97997562D02*
X22185714Y98045181D01*
X22185714Y98045181D02*
X22376190Y98045181D01*
X22376190Y98045181D02*
X22471428Y97997562D01*
X22471428Y97997562D02*
X22519047Y97949943D01*
X22519047Y97949943D02*
X22566666Y97854705D01*
X22566666Y97854705D02*
X22566666Y97807086D01*
X22566666Y97807086D02*
X22519047Y97711848D01*
X22519047Y97711848D02*
X22471428Y97664229D01*
X22471428Y97664229D02*
X22376190Y97616610D01*
X22376190Y97616610D02*
X22185714Y97616610D01*
X22185714Y97616610D02*
X22090476Y97568991D01*
X22090476Y97568991D02*
X22042857Y97521372D01*
X22042857Y97521372D02*
X21995238Y97426134D01*
X21995238Y97426134D02*
X21995238Y97235658D01*
X21995238Y97235658D02*
X22042857Y97140420D01*
X22042857Y97140420D02*
X22090476Y97092800D01*
X22090476Y97092800D02*
X22185714Y97045181D01*
X22185714Y97045181D02*
X22376190Y97045181D01*
X22376190Y97045181D02*
X22471428Y97092800D01*
X22471428Y97092800D02*
X22519047Y97140420D01*
X22519047Y97140420D02*
X22566666Y97235658D01*
X22566666Y97235658D02*
X22566666Y97426134D01*
X22566666Y97426134D02*
X22519047Y97521372D01*
X22519047Y97521372D02*
X22471428Y97568991D01*
X22471428Y97568991D02*
X22376190Y97616610D01*
X15066666Y98045181D02*
X15066666Y97330896D01*
X15066666Y97330896D02*
X15019047Y97188039D01*
X15019047Y97188039D02*
X14923809Y97092800D01*
X14923809Y97092800D02*
X14780952Y97045181D01*
X14780952Y97045181D02*
X14685714Y97045181D01*
X15590476Y97045181D02*
X15780952Y97045181D01*
X15780952Y97045181D02*
X15876190Y97092800D01*
X15876190Y97092800D02*
X15923809Y97140420D01*
X15923809Y97140420D02*
X16019047Y97283277D01*
X16019047Y97283277D02*
X16066666Y97473753D01*
X16066666Y97473753D02*
X16066666Y97854705D01*
X16066666Y97854705D02*
X16019047Y97949943D01*
X16019047Y97949943D02*
X15971428Y97997562D01*
X15971428Y97997562D02*
X15876190Y98045181D01*
X15876190Y98045181D02*
X15685714Y98045181D01*
X15685714Y98045181D02*
X15590476Y97997562D01*
X15590476Y97997562D02*
X15542857Y97949943D01*
X15542857Y97949943D02*
X15495238Y97854705D01*
X15495238Y97854705D02*
X15495238Y97616610D01*
X15495238Y97616610D02*
X15542857Y97521372D01*
X15542857Y97521372D02*
X15590476Y97473753D01*
X15590476Y97473753D02*
X15685714Y97426134D01*
X15685714Y97426134D02*
X15876190Y97426134D01*
X15876190Y97426134D02*
X15971428Y97473753D01*
X15971428Y97473753D02*
X16019047Y97521372D01*
X16019047Y97521372D02*
X16066666Y97616610D01*
X28166666Y98045181D02*
X28166666Y97330896D01*
X28166666Y97330896D02*
X28119047Y97188039D01*
X28119047Y97188039D02*
X28023809Y97092800D01*
X28023809Y97092800D02*
X27880952Y97045181D01*
X27880952Y97045181D02*
X27785714Y97045181D01*
X28547619Y98045181D02*
X29214285Y98045181D01*
X29214285Y98045181D02*
X28785714Y97045181D01*
X47966666Y98045181D02*
X47966666Y97330896D01*
X47966666Y97330896D02*
X47919047Y97188039D01*
X47919047Y97188039D02*
X47823809Y97092800D01*
X47823809Y97092800D02*
X47680952Y97045181D01*
X47680952Y97045181D02*
X47585714Y97045181D01*
X48871428Y97711848D02*
X48871428Y97045181D01*
X48633333Y98092800D02*
X48395238Y97378515D01*
X48395238Y97378515D02*
X49014285Y97378515D01*
X41366666Y98045181D02*
X41366666Y97330896D01*
X41366666Y97330896D02*
X41319047Y97188039D01*
X41319047Y97188039D02*
X41223809Y97092800D01*
X41223809Y97092800D02*
X41080952Y97045181D01*
X41080952Y97045181D02*
X40985714Y97045181D01*
X42319047Y98045181D02*
X41842857Y98045181D01*
X41842857Y98045181D02*
X41795238Y97568991D01*
X41795238Y97568991D02*
X41842857Y97616610D01*
X41842857Y97616610D02*
X41938095Y97664229D01*
X41938095Y97664229D02*
X42176190Y97664229D01*
X42176190Y97664229D02*
X42271428Y97616610D01*
X42271428Y97616610D02*
X42319047Y97568991D01*
X42319047Y97568991D02*
X42366666Y97473753D01*
X42366666Y97473753D02*
X42366666Y97235658D01*
X42366666Y97235658D02*
X42319047Y97140420D01*
X42319047Y97140420D02*
X42271428Y97092800D01*
X42271428Y97092800D02*
X42176190Y97045181D01*
X42176190Y97045181D02*
X41938095Y97045181D01*
X41938095Y97045181D02*
X41842857Y97092800D01*
X41842857Y97092800D02*
X41795238Y97140420D01*
X26915714Y47270896D02*
X27391904Y47270896D01*
X26820476Y46985181D02*
X27153809Y47985181D01*
X27153809Y47985181D02*
X27487142Y46985181D01*
X28344285Y46985181D02*
X27772857Y46985181D01*
X28058571Y46985181D02*
X28058571Y47985181D01*
X28058571Y47985181D02*
X27963333Y47842324D01*
X27963333Y47842324D02*
X27868095Y47747086D01*
X27868095Y47747086D02*
X27772857Y47699467D01*
X26368095Y7345181D02*
X26368095Y6535658D01*
X26368095Y6535658D02*
X26415714Y6440420D01*
X26415714Y6440420D02*
X26463333Y6392800D01*
X26463333Y6392800D02*
X26558571Y6345181D01*
X26558571Y6345181D02*
X26749047Y6345181D01*
X26749047Y6345181D02*
X26844285Y6392800D01*
X26844285Y6392800D02*
X26891904Y6440420D01*
X26891904Y6440420D02*
X26939523Y6535658D01*
X26939523Y6535658D02*
X26939523Y7345181D01*
X27368095Y6392800D02*
X27510952Y6345181D01*
X27510952Y6345181D02*
X27749047Y6345181D01*
X27749047Y6345181D02*
X27844285Y6392800D01*
X27844285Y6392800D02*
X27891904Y6440420D01*
X27891904Y6440420D02*
X27939523Y6535658D01*
X27939523Y6535658D02*
X27939523Y6630896D01*
X27939523Y6630896D02*
X27891904Y6726134D01*
X27891904Y6726134D02*
X27844285Y6773753D01*
X27844285Y6773753D02*
X27749047Y6821372D01*
X27749047Y6821372D02*
X27558571Y6868991D01*
X27558571Y6868991D02*
X27463333Y6916610D01*
X27463333Y6916610D02*
X27415714Y6964229D01*
X27415714Y6964229D02*
X27368095Y7059467D01*
X27368095Y7059467D02*
X27368095Y7154705D01*
X27368095Y7154705D02*
X27415714Y7249943D01*
X27415714Y7249943D02*
X27463333Y7297562D01*
X27463333Y7297562D02*
X27558571Y7345181D01*
X27558571Y7345181D02*
X27796666Y7345181D01*
X27796666Y7345181D02*
X27939523Y7297562D01*
X28701428Y6868991D02*
X28844285Y6821372D01*
X28844285Y6821372D02*
X28891904Y6773753D01*
X28891904Y6773753D02*
X28939523Y6678515D01*
X28939523Y6678515D02*
X28939523Y6535658D01*
X28939523Y6535658D02*
X28891904Y6440420D01*
X28891904Y6440420D02*
X28844285Y6392800D01*
X28844285Y6392800D02*
X28749047Y6345181D01*
X28749047Y6345181D02*
X28368095Y6345181D01*
X28368095Y6345181D02*
X28368095Y7345181D01*
X28368095Y7345181D02*
X28701428Y7345181D01*
X28701428Y7345181D02*
X28796666Y7297562D01*
X28796666Y7297562D02*
X28844285Y7249943D01*
X28844285Y7249943D02*
X28891904Y7154705D01*
X28891904Y7154705D02*
X28891904Y7059467D01*
X28891904Y7059467D02*
X28844285Y6964229D01*
X28844285Y6964229D02*
X28796666Y6916610D01*
X28796666Y6916610D02*
X28701428Y6868991D01*
X28701428Y6868991D02*
X28368095Y6868991D01*
X67354819Y68990477D02*
X68069104Y68990477D01*
X68069104Y68990477D02*
X68211961Y68942858D01*
X68211961Y68942858D02*
X68307200Y68847620D01*
X68307200Y68847620D02*
X68354819Y68704763D01*
X68354819Y68704763D02*
X68354819Y68609525D01*
X68354819Y69990477D02*
X68354819Y69419049D01*
X68354819Y69704763D02*
X67354819Y69704763D01*
X67354819Y69704763D02*
X67497676Y69609525D01*
X67497676Y69609525D02*
X67592914Y69514287D01*
X67592914Y69514287D02*
X67640533Y69419049D01*
X67354819Y70323811D02*
X67354819Y70990477D01*
X67354819Y70990477D02*
X68354819Y70561906D01*
X67354819Y61990477D02*
X68069104Y61990477D01*
X68069104Y61990477D02*
X68211961Y61942858D01*
X68211961Y61942858D02*
X68307200Y61847620D01*
X68307200Y61847620D02*
X68354819Y61704763D01*
X68354819Y61704763D02*
X68354819Y61609525D01*
X68354819Y62990477D02*
X68354819Y62419049D01*
X68354819Y62704763D02*
X67354819Y62704763D01*
X67354819Y62704763D02*
X67497676Y62609525D01*
X67497676Y62609525D02*
X67592914Y62514287D01*
X67592914Y62514287D02*
X67640533Y62419049D01*
X67354819Y63847620D02*
X67354819Y63657144D01*
X67354819Y63657144D02*
X67402438Y63561906D01*
X67402438Y63561906D02*
X67450057Y63514287D01*
X67450057Y63514287D02*
X67592914Y63419049D01*
X67592914Y63419049D02*
X67783390Y63371430D01*
X67783390Y63371430D02*
X68164342Y63371430D01*
X68164342Y63371430D02*
X68259580Y63419049D01*
X68259580Y63419049D02*
X68307200Y63466668D01*
X68307200Y63466668D02*
X68354819Y63561906D01*
X68354819Y63561906D02*
X68354819Y63752382D01*
X68354819Y63752382D02*
X68307200Y63847620D01*
X68307200Y63847620D02*
X68259580Y63895239D01*
X68259580Y63895239D02*
X68164342Y63942858D01*
X68164342Y63942858D02*
X67926247Y63942858D01*
X67926247Y63942858D02*
X67831009Y63895239D01*
X67831009Y63895239D02*
X67783390Y63847620D01*
X67783390Y63847620D02*
X67735771Y63752382D01*
X67735771Y63752382D02*
X67735771Y63561906D01*
X67735771Y63561906D02*
X67783390Y63466668D01*
X67783390Y63466668D02*
X67831009Y63419049D01*
X67831009Y63419049D02*
X67926247Y63371430D01*
X67354819Y55390477D02*
X68069104Y55390477D01*
X68069104Y55390477D02*
X68211961Y55342858D01*
X68211961Y55342858D02*
X68307200Y55247620D01*
X68307200Y55247620D02*
X68354819Y55104763D01*
X68354819Y55104763D02*
X68354819Y55009525D01*
X68354819Y56390477D02*
X68354819Y55819049D01*
X68354819Y56104763D02*
X67354819Y56104763D01*
X67354819Y56104763D02*
X67497676Y56009525D01*
X67497676Y56009525D02*
X67592914Y55914287D01*
X67592914Y55914287D02*
X67640533Y55819049D01*
X67354819Y57295239D02*
X67354819Y56819049D01*
X67354819Y56819049D02*
X67831009Y56771430D01*
X67831009Y56771430D02*
X67783390Y56819049D01*
X67783390Y56819049D02*
X67735771Y56914287D01*
X67735771Y56914287D02*
X67735771Y57152382D01*
X67735771Y57152382D02*
X67783390Y57247620D01*
X67783390Y57247620D02*
X67831009Y57295239D01*
X67831009Y57295239D02*
X67926247Y57342858D01*
X67926247Y57342858D02*
X68164342Y57342858D01*
X68164342Y57342858D02*
X68259580Y57295239D01*
X68259580Y57295239D02*
X68307200Y57247620D01*
X68307200Y57247620D02*
X68354819Y57152382D01*
X68354819Y57152382D02*
X68354819Y56914287D01*
X68354819Y56914287D02*
X68307200Y56819049D01*
X68307200Y56819049D02*
X68259580Y56771430D01*
X67354819Y48790477D02*
X68069104Y48790477D01*
X68069104Y48790477D02*
X68211961Y48742858D01*
X68211961Y48742858D02*
X68307200Y48647620D01*
X68307200Y48647620D02*
X68354819Y48504763D01*
X68354819Y48504763D02*
X68354819Y48409525D01*
X68354819Y49790477D02*
X68354819Y49219049D01*
X68354819Y49504763D02*
X67354819Y49504763D01*
X67354819Y49504763D02*
X67497676Y49409525D01*
X67497676Y49409525D02*
X67592914Y49314287D01*
X67592914Y49314287D02*
X67640533Y49219049D01*
X67688152Y50647620D02*
X68354819Y50647620D01*
X67307200Y50409525D02*
X68021485Y50171430D01*
X68021485Y50171430D02*
X68021485Y50790477D01*
X67354819Y42190477D02*
X68069104Y42190477D01*
X68069104Y42190477D02*
X68211961Y42142858D01*
X68211961Y42142858D02*
X68307200Y42047620D01*
X68307200Y42047620D02*
X68354819Y41904763D01*
X68354819Y41904763D02*
X68354819Y41809525D01*
X68354819Y43190477D02*
X68354819Y42619049D01*
X68354819Y42904763D02*
X67354819Y42904763D01*
X67354819Y42904763D02*
X67497676Y42809525D01*
X67497676Y42809525D02*
X67592914Y42714287D01*
X67592914Y42714287D02*
X67640533Y42619049D01*
X67354819Y43523811D02*
X67354819Y44142858D01*
X67354819Y44142858D02*
X67735771Y43809525D01*
X67735771Y43809525D02*
X67735771Y43952382D01*
X67735771Y43952382D02*
X67783390Y44047620D01*
X67783390Y44047620D02*
X67831009Y44095239D01*
X67831009Y44095239D02*
X67926247Y44142858D01*
X67926247Y44142858D02*
X68164342Y44142858D01*
X68164342Y44142858D02*
X68259580Y44095239D01*
X68259580Y44095239D02*
X68307200Y44047620D01*
X68307200Y44047620D02*
X68354819Y43952382D01*
X68354819Y43952382D02*
X68354819Y43666668D01*
X68354819Y43666668D02*
X68307200Y43571430D01*
X68307200Y43571430D02*
X68259580Y43523811D01*
X67354819Y35590477D02*
X68069104Y35590477D01*
X68069104Y35590477D02*
X68211961Y35542858D01*
X68211961Y35542858D02*
X68307200Y35447620D01*
X68307200Y35447620D02*
X68354819Y35304763D01*
X68354819Y35304763D02*
X68354819Y35209525D01*
X68354819Y36590477D02*
X68354819Y36019049D01*
X68354819Y36304763D02*
X67354819Y36304763D01*
X67354819Y36304763D02*
X67497676Y36209525D01*
X67497676Y36209525D02*
X67592914Y36114287D01*
X67592914Y36114287D02*
X67640533Y36019049D01*
X67450057Y36971430D02*
X67402438Y37019049D01*
X67402438Y37019049D02*
X67354819Y37114287D01*
X67354819Y37114287D02*
X67354819Y37352382D01*
X67354819Y37352382D02*
X67402438Y37447620D01*
X67402438Y37447620D02*
X67450057Y37495239D01*
X67450057Y37495239D02*
X67545295Y37542858D01*
X67545295Y37542858D02*
X67640533Y37542858D01*
X67640533Y37542858D02*
X67783390Y37495239D01*
X67783390Y37495239D02*
X68354819Y36923811D01*
X68354819Y36923811D02*
X68354819Y37542858D01*
X67354819Y28990477D02*
X68069104Y28990477D01*
X68069104Y28990477D02*
X68211961Y28942858D01*
X68211961Y28942858D02*
X68307200Y28847620D01*
X68307200Y28847620D02*
X68354819Y28704763D01*
X68354819Y28704763D02*
X68354819Y28609525D01*
X68354819Y29990477D02*
X68354819Y29419049D01*
X68354819Y29704763D02*
X67354819Y29704763D01*
X67354819Y29704763D02*
X67497676Y29609525D01*
X67497676Y29609525D02*
X67592914Y29514287D01*
X67592914Y29514287D02*
X67640533Y29419049D01*
X68354819Y30942858D02*
X68354819Y30371430D01*
X68354819Y30657144D02*
X67354819Y30657144D01*
X67354819Y30657144D02*
X67497676Y30561906D01*
X67497676Y30561906D02*
X67592914Y30466668D01*
X67592914Y30466668D02*
X67640533Y30371430D01*
X67354819Y21990477D02*
X68069104Y21990477D01*
X68069104Y21990477D02*
X68211961Y21942858D01*
X68211961Y21942858D02*
X68307200Y21847620D01*
X68307200Y21847620D02*
X68354819Y21704763D01*
X68354819Y21704763D02*
X68354819Y21609525D01*
X68354819Y22990477D02*
X68354819Y22419049D01*
X68354819Y22704763D02*
X67354819Y22704763D01*
X67354819Y22704763D02*
X67497676Y22609525D01*
X67497676Y22609525D02*
X67592914Y22514287D01*
X67592914Y22514287D02*
X67640533Y22419049D01*
X67354819Y23609525D02*
X67354819Y23704763D01*
X67354819Y23704763D02*
X67402438Y23800001D01*
X67402438Y23800001D02*
X67450057Y23847620D01*
X67450057Y23847620D02*
X67545295Y23895239D01*
X67545295Y23895239D02*
X67735771Y23942858D01*
X67735771Y23942858D02*
X67973866Y23942858D01*
X67973866Y23942858D02*
X68164342Y23895239D01*
X68164342Y23895239D02*
X68259580Y23847620D01*
X68259580Y23847620D02*
X68307200Y23800001D01*
X68307200Y23800001D02*
X68354819Y23704763D01*
X68354819Y23704763D02*
X68354819Y23609525D01*
X68354819Y23609525D02*
X68307200Y23514287D01*
X68307200Y23514287D02*
X68259580Y23466668D01*
X68259580Y23466668D02*
X68164342Y23419049D01*
X68164342Y23419049D02*
X67973866Y23371430D01*
X67973866Y23371430D02*
X67735771Y23371430D01*
X67735771Y23371430D02*
X67545295Y23419049D01*
X67545295Y23419049D02*
X67450057Y23466668D01*
X67450057Y23466668D02*
X67402438Y23514287D01*
X67402438Y23514287D02*
X67354819Y23609525D01*
X67354819Y76466667D02*
X68069104Y76466667D01*
X68069104Y76466667D02*
X68211961Y76419048D01*
X68211961Y76419048D02*
X68307200Y76323810D01*
X68307200Y76323810D02*
X68354819Y76180953D01*
X68354819Y76180953D02*
X68354819Y76085715D01*
X67450057Y76895239D02*
X67402438Y76942858D01*
X67402438Y76942858D02*
X67354819Y77038096D01*
X67354819Y77038096D02*
X67354819Y77276191D01*
X67354819Y77276191D02*
X67402438Y77371429D01*
X67402438Y77371429D02*
X67450057Y77419048D01*
X67450057Y77419048D02*
X67545295Y77466667D01*
X67545295Y77466667D02*
X67640533Y77466667D01*
X67640533Y77466667D02*
X67783390Y77419048D01*
X67783390Y77419048D02*
X68354819Y76847620D01*
X68354819Y76847620D02*
X68354819Y77466667D01*
D12*
X5795238Y24592581D02*
X5795238Y25592581D01*
X5795238Y25116391D02*
X6366666Y25116391D01*
X6366666Y24592581D02*
X6366666Y25592581D01*
X7223809Y24640200D02*
X7128571Y24592581D01*
X7128571Y24592581D02*
X6938095Y24592581D01*
X6938095Y24592581D02*
X6842857Y24640200D01*
X6842857Y24640200D02*
X6795238Y24735439D01*
X6795238Y24735439D02*
X6795238Y25116391D01*
X6795238Y25116391D02*
X6842857Y25211629D01*
X6842857Y25211629D02*
X6938095Y25259248D01*
X6938095Y25259248D02*
X7128571Y25259248D01*
X7128571Y25259248D02*
X7223809Y25211629D01*
X7223809Y25211629D02*
X7271428Y25116391D01*
X7271428Y25116391D02*
X7271428Y25021153D01*
X7271428Y25021153D02*
X6795238Y24925915D01*
X8128571Y24592581D02*
X8128571Y25116391D01*
X8128571Y25116391D02*
X8080952Y25211629D01*
X8080952Y25211629D02*
X7985714Y25259248D01*
X7985714Y25259248D02*
X7795238Y25259248D01*
X7795238Y25259248D02*
X7700000Y25211629D01*
X8128571Y24640200D02*
X8033333Y24592581D01*
X8033333Y24592581D02*
X7795238Y24592581D01*
X7795238Y24592581D02*
X7700000Y24640200D01*
X7700000Y24640200D02*
X7652381Y24735439D01*
X7652381Y24735439D02*
X7652381Y24830677D01*
X7652381Y24830677D02*
X7700000Y24925915D01*
X7700000Y24925915D02*
X7795238Y24973534D01*
X7795238Y24973534D02*
X8033333Y24973534D01*
X8033333Y24973534D02*
X8128571Y25021153D01*
X8461905Y25259248D02*
X8842857Y25259248D01*
X8604762Y25592581D02*
X8604762Y24735439D01*
X8604762Y24735439D02*
X8652381Y24640200D01*
X8652381Y24640200D02*
X8747619Y24592581D01*
X8747619Y24592581D02*
X8842857Y24592581D01*
X9890477Y24640200D02*
X10033334Y24592581D01*
X10033334Y24592581D02*
X10271429Y24592581D01*
X10271429Y24592581D02*
X10366667Y24640200D01*
X10366667Y24640200D02*
X10414286Y24687820D01*
X10414286Y24687820D02*
X10461905Y24783058D01*
X10461905Y24783058D02*
X10461905Y24878296D01*
X10461905Y24878296D02*
X10414286Y24973534D01*
X10414286Y24973534D02*
X10366667Y25021153D01*
X10366667Y25021153D02*
X10271429Y25068772D01*
X10271429Y25068772D02*
X10080953Y25116391D01*
X10080953Y25116391D02*
X9985715Y25164010D01*
X9985715Y25164010D02*
X9938096Y25211629D01*
X9938096Y25211629D02*
X9890477Y25306867D01*
X9890477Y25306867D02*
X9890477Y25402105D01*
X9890477Y25402105D02*
X9938096Y25497343D01*
X9938096Y25497343D02*
X9985715Y25544962D01*
X9985715Y25544962D02*
X10080953Y25592581D01*
X10080953Y25592581D02*
X10319048Y25592581D01*
X10319048Y25592581D02*
X10461905Y25544962D01*
X10890477Y24592581D02*
X10890477Y25259248D01*
X10890477Y25592581D02*
X10842858Y25544962D01*
X10842858Y25544962D02*
X10890477Y25497343D01*
X10890477Y25497343D02*
X10938096Y25544962D01*
X10938096Y25544962D02*
X10890477Y25592581D01*
X10890477Y25592581D02*
X10890477Y25497343D01*
X11366667Y25259248D02*
X11366667Y24592581D01*
X11366667Y25164010D02*
X11414286Y25211629D01*
X11414286Y25211629D02*
X11509524Y25259248D01*
X11509524Y25259248D02*
X11652381Y25259248D01*
X11652381Y25259248D02*
X11747619Y25211629D01*
X11747619Y25211629D02*
X11795238Y25116391D01*
X11795238Y25116391D02*
X11795238Y24592581D01*
X12271429Y24592581D02*
X12271429Y25592581D01*
X12366667Y24973534D02*
X12652381Y24592581D01*
X12652381Y25259248D02*
X12271429Y24878296D01*
D11*
X666666Y59445181D02*
X666666Y58730896D01*
X666666Y58730896D02*
X619047Y58588039D01*
X619047Y58588039D02*
X523809Y58492800D01*
X523809Y58492800D02*
X380952Y58445181D01*
X380952Y58445181D02*
X285714Y58445181D01*
X1666666Y58445181D02*
X1095238Y58445181D01*
X1380952Y58445181D02*
X1380952Y59445181D01*
X1380952Y59445181D02*
X1285714Y59302324D01*
X1285714Y59302324D02*
X1190476Y59207086D01*
X1190476Y59207086D02*
X1095238Y59159467D01*
D13*
%TO.C,D1*%
X48000000Y6667231D02*
X53000000Y6667231D01*
X48000000Y6467231D02*
X48000000Y6667231D01*
X48000000Y3167231D02*
X48000000Y4867231D01*
X48000000Y1667231D02*
X48000000Y1467231D01*
X48000000Y1467231D02*
X53000000Y1467231D01*
X53000000Y6667231D02*
X53000000Y6467231D01*
X53000000Y4967231D02*
X53000000Y3967231D01*
X53000000Y3967231D02*
X50400000Y1467231D01*
X53000000Y3967231D02*
X53000000Y3167231D01*
X53000000Y1467231D02*
X53000000Y1667231D01*
D14*
X53075000Y1073481D02*
G75*
G02*
X52875000Y1073481I-100000J0D01*
G01*
X52875000Y1073481D02*
G75*
G02*
X53075000Y1073481I100000J0D01*
G01*
D15*
%TO.C,J3*%
X57790000Y92130000D02*
X57790000Y98870000D01*
X57790000Y92130000D02*
X52010000Y92130000D01*
X57790000Y93250000D02*
X52010000Y93250000D01*
X57790000Y98350000D02*
X52010000Y98350000D01*
X57790000Y98870000D02*
X56470000Y98870000D01*
X55870000Y98870000D02*
X52010000Y98870000D01*
X52010000Y92130000D02*
X52010000Y98870000D01*
X56170000Y98870000D02*
X55730000Y99480000D01*
X56610000Y99480000D01*
X56170000Y98870000D01*
G36*
X56170000Y98870000D02*
G01*
X55730000Y99480000D01*
X56610000Y99480000D01*
X56170000Y98870000D01*
G37*
%TO.C,J6*%
X37990000Y92130000D02*
X37990000Y98870000D01*
X37990000Y92130000D02*
X32210000Y92130000D01*
X37990000Y93250000D02*
X32210000Y93250000D01*
X37990000Y98350000D02*
X32210000Y98350000D01*
X37990000Y98870000D02*
X36670000Y98870000D01*
X36070000Y98870000D02*
X32210000Y98870000D01*
X32210000Y92130000D02*
X32210000Y98870000D01*
X36370000Y98870000D02*
X35930000Y99480000D01*
X36810000Y99480000D01*
X36370000Y98870000D01*
G36*
X36370000Y98870000D02*
G01*
X35930000Y99480000D01*
X36810000Y99480000D01*
X36370000Y98870000D01*
G37*
%TO.C,J8*%
X24790000Y92130000D02*
X24790000Y98870000D01*
X24790000Y92130000D02*
X19010000Y92130000D01*
X24790000Y93250000D02*
X19010000Y93250000D01*
X24790000Y98350000D02*
X19010000Y98350000D01*
X24790000Y98870000D02*
X23470000Y98870000D01*
X22870000Y98870000D02*
X19010000Y98870000D01*
X19010000Y92130000D02*
X19010000Y98870000D01*
X23170000Y98870000D02*
X22730000Y99480000D01*
X23610000Y99480000D01*
X23170000Y98870000D01*
G36*
X23170000Y98870000D02*
G01*
X22730000Y99480000D01*
X23610000Y99480000D01*
X23170000Y98870000D01*
G37*
%TO.C,J9*%
X18250000Y92130000D02*
X18250000Y98870000D01*
X18250000Y92130000D02*
X12470000Y92130000D01*
X18250000Y93250000D02*
X12470000Y93250000D01*
X18250000Y98350000D02*
X12470000Y98350000D01*
X18250000Y98870000D02*
X16930000Y98870000D01*
X16330000Y98870000D02*
X12470000Y98870000D01*
X12470000Y92130000D02*
X12470000Y98870000D01*
X16630000Y98870000D02*
X16190000Y99480000D01*
X17070000Y99480000D01*
X16630000Y98870000D01*
G36*
X16630000Y98870000D02*
G01*
X16190000Y99480000D01*
X17070000Y99480000D01*
X16630000Y98870000D01*
G37*
%TO.C,J7*%
X31390000Y92130000D02*
X31390000Y98870000D01*
X31390000Y92130000D02*
X25610000Y92130000D01*
X31390000Y93250000D02*
X25610000Y93250000D01*
X31390000Y98350000D02*
X25610000Y98350000D01*
X31390000Y98870000D02*
X30070000Y98870000D01*
X29470000Y98870000D02*
X25610000Y98870000D01*
X25610000Y92130000D02*
X25610000Y98870000D01*
X29770000Y98870000D02*
X29330000Y99480000D01*
X30210000Y99480000D01*
X29770000Y98870000D01*
G36*
X29770000Y98870000D02*
G01*
X29330000Y99480000D01*
X30210000Y99480000D01*
X29770000Y98870000D01*
G37*
%TO.C,J4*%
X51190000Y92130000D02*
X51190000Y98870000D01*
X51190000Y92130000D02*
X45410000Y92130000D01*
X51190000Y93250000D02*
X45410000Y93250000D01*
X51190000Y98350000D02*
X45410000Y98350000D01*
X51190000Y98870000D02*
X49870000Y98870000D01*
X49270000Y98870000D02*
X45410000Y98870000D01*
X45410000Y92130000D02*
X45410000Y98870000D01*
X49570000Y98870000D02*
X49130000Y99480000D01*
X50010000Y99480000D01*
X49570000Y98870000D01*
G36*
X49570000Y98870000D02*
G01*
X49130000Y99480000D01*
X50010000Y99480000D01*
X49570000Y98870000D01*
G37*
%TO.C,J5*%
X44590000Y92130000D02*
X44590000Y98870000D01*
X44590000Y92130000D02*
X38810000Y92130000D01*
X44590000Y93250000D02*
X38810000Y93250000D01*
X44590000Y98350000D02*
X38810000Y98350000D01*
X44590000Y98870000D02*
X43270000Y98870000D01*
X42670000Y98870000D02*
X38810000Y98870000D01*
X38810000Y92130000D02*
X38810000Y98870000D01*
X42970000Y98870000D02*
X42530000Y99480000D01*
X43410000Y99480000D01*
X42970000Y98870000D01*
G36*
X42970000Y98870000D02*
G01*
X42530000Y99480000D01*
X43410000Y99480000D01*
X42970000Y98870000D01*
G37*
%TO.C,A1*%
X18610000Y46300000D02*
X18610000Y43630000D01*
X18610000Y41090000D02*
X18610000Y2860000D01*
X18610000Y2860000D02*
X23690000Y2860000D01*
X21280000Y43630000D02*
X18610000Y43630000D01*
X21280000Y41090000D02*
X18610000Y41090000D01*
X21280000Y41090000D02*
X21280000Y43630000D01*
X21280000Y41090000D02*
X21280000Y5530000D01*
X21280000Y5530000D02*
X18610000Y5530000D01*
X23690000Y10740000D02*
X31570000Y10740000D01*
X23690000Y320000D02*
X23690000Y10740000D01*
X31570000Y10740000D02*
X31570000Y320000D01*
X31570000Y320000D02*
X23690000Y320000D01*
X33980000Y43630000D02*
X33980000Y5530000D01*
X33980000Y43630000D02*
X36650000Y43630000D01*
X33980000Y5530000D02*
X36650000Y5530000D01*
X36650000Y46300000D02*
X18610000Y46300000D01*
X36650000Y2860000D02*
X31570000Y2860000D01*
X36650000Y2860000D02*
X36650000Y46300000D01*
%TO.C,J17*%
X62530000Y66880000D02*
X69270000Y66880000D01*
X62530000Y66880000D02*
X62530000Y72660000D01*
X63650000Y66880000D02*
X63650000Y72660000D01*
X68750000Y66880000D02*
X68750000Y72660000D01*
X69270000Y66880000D02*
X69270000Y68200000D01*
X69270000Y68800000D02*
X69270000Y72660000D01*
X62530000Y72660000D02*
X69270000Y72660000D01*
X69880000Y68060000D02*
X69270000Y68500000D01*
X69880000Y68940000D01*
X69880000Y68060000D01*
G36*
X69880000Y68060000D02*
G01*
X69270000Y68500000D01*
X69880000Y68940000D01*
X69880000Y68060000D01*
G37*
%TO.C,J16*%
X62530000Y59880000D02*
X69270000Y59880000D01*
X62530000Y59880000D02*
X62530000Y65660000D01*
X63650000Y59880000D02*
X63650000Y65660000D01*
X68750000Y59880000D02*
X68750000Y65660000D01*
X69270000Y59880000D02*
X69270000Y61200000D01*
X69270000Y61800000D02*
X69270000Y65660000D01*
X62530000Y65660000D02*
X69270000Y65660000D01*
X69880000Y61060000D02*
X69270000Y61500000D01*
X69880000Y61940000D01*
X69880000Y61060000D01*
G36*
X69880000Y61060000D02*
G01*
X69270000Y61500000D01*
X69880000Y61940000D01*
X69880000Y61060000D01*
G37*
%TO.C,J15*%
X62530000Y53280000D02*
X69270000Y53280000D01*
X62530000Y53280000D02*
X62530000Y59060000D01*
X63650000Y53280000D02*
X63650000Y59060000D01*
X68750000Y53280000D02*
X68750000Y59060000D01*
X69270000Y53280000D02*
X69270000Y54600000D01*
X69270000Y55200000D02*
X69270000Y59060000D01*
X62530000Y59060000D02*
X69270000Y59060000D01*
X69880000Y54460000D02*
X69270000Y54900000D01*
X69880000Y55340000D01*
X69880000Y54460000D01*
G36*
X69880000Y54460000D02*
G01*
X69270000Y54900000D01*
X69880000Y55340000D01*
X69880000Y54460000D01*
G37*
%TO.C,J14*%
X62530000Y46680000D02*
X69270000Y46680000D01*
X62530000Y46680000D02*
X62530000Y52460000D01*
X63650000Y46680000D02*
X63650000Y52460000D01*
X68750000Y46680000D02*
X68750000Y52460000D01*
X69270000Y46680000D02*
X69270000Y48000000D01*
X69270000Y48600000D02*
X69270000Y52460000D01*
X62530000Y52460000D02*
X69270000Y52460000D01*
X69880000Y47860000D02*
X69270000Y48300000D01*
X69880000Y48740000D01*
X69880000Y47860000D01*
G36*
X69880000Y47860000D02*
G01*
X69270000Y48300000D01*
X69880000Y48740000D01*
X69880000Y47860000D01*
G37*
%TO.C,J13*%
X62530000Y40080000D02*
X69270000Y40080000D01*
X62530000Y40080000D02*
X62530000Y45860000D01*
X63650000Y40080000D02*
X63650000Y45860000D01*
X68750000Y40080000D02*
X68750000Y45860000D01*
X69270000Y40080000D02*
X69270000Y41400000D01*
X69270000Y42000000D02*
X69270000Y45860000D01*
X62530000Y45860000D02*
X69270000Y45860000D01*
X69880000Y41260000D02*
X69270000Y41700000D01*
X69880000Y42140000D01*
X69880000Y41260000D01*
G36*
X69880000Y41260000D02*
G01*
X69270000Y41700000D01*
X69880000Y42140000D01*
X69880000Y41260000D01*
G37*
%TO.C,J12*%
X62530000Y33480000D02*
X69270000Y33480000D01*
X62530000Y33480000D02*
X62530000Y39260000D01*
X63650000Y33480000D02*
X63650000Y39260000D01*
X68750000Y33480000D02*
X68750000Y39260000D01*
X69270000Y33480000D02*
X69270000Y34800000D01*
X69270000Y35400000D02*
X69270000Y39260000D01*
X62530000Y39260000D02*
X69270000Y39260000D01*
X69880000Y34660000D02*
X69270000Y35100000D01*
X69880000Y35540000D01*
X69880000Y34660000D01*
G36*
X69880000Y34660000D02*
G01*
X69270000Y35100000D01*
X69880000Y35540000D01*
X69880000Y34660000D01*
G37*
%TO.C,J11*%
X62530000Y26880000D02*
X69270000Y26880000D01*
X62530000Y26880000D02*
X62530000Y32660000D01*
X63650000Y26880000D02*
X63650000Y32660000D01*
X68750000Y26880000D02*
X68750000Y32660000D01*
X69270000Y26880000D02*
X69270000Y28200000D01*
X69270000Y28800000D02*
X69270000Y32660000D01*
X62530000Y32660000D02*
X69270000Y32660000D01*
X69880000Y28060000D02*
X69270000Y28500000D01*
X69880000Y28940000D01*
X69880000Y28060000D01*
G36*
X69880000Y28060000D02*
G01*
X69270000Y28500000D01*
X69880000Y28940000D01*
X69880000Y28060000D01*
G37*
%TO.C,J10*%
X62530000Y19880000D02*
X69270000Y19880000D01*
X62530000Y19880000D02*
X62530000Y25660000D01*
X63650000Y19880000D02*
X63650000Y25660000D01*
X68750000Y19880000D02*
X68750000Y25660000D01*
X69270000Y19880000D02*
X69270000Y21200000D01*
X69270000Y21800000D02*
X69270000Y25660000D01*
X62530000Y25660000D02*
X69270000Y25660000D01*
X69880000Y21060000D02*
X69270000Y21500000D01*
X69880000Y21940000D01*
X69880000Y21060000D01*
G36*
X69880000Y21060000D02*
G01*
X69270000Y21500000D01*
X69880000Y21940000D01*
X69880000Y21060000D01*
G37*
%TO.C,J2*%
X62530000Y73880000D02*
X69270000Y73880000D01*
X62530000Y73880000D02*
X62530000Y79660000D01*
X63650000Y73880000D02*
X63650000Y79660000D01*
X68750000Y73880000D02*
X68750000Y79660000D01*
X69270000Y73880000D02*
X69270000Y75200000D01*
X69270000Y75800000D02*
X69270000Y79660000D01*
X62530000Y79660000D02*
X69270000Y79660000D01*
X69880000Y75060000D02*
X69270000Y75500000D01*
X69880000Y75940000D01*
X69880000Y75060000D01*
G36*
X69880000Y75060000D02*
G01*
X69270000Y75500000D01*
X69880000Y75940000D01*
X69880000Y75060000D01*
G37*
%TO.C,J1*%
X-6490000Y62780000D02*
X-6490000Y37260000D01*
X-6490000Y62780000D02*
X2140000Y62780000D01*
X-6490000Y62660000D02*
X2140000Y62660000D01*
X-6490000Y62541905D02*
X2140000Y62541905D01*
X-6490000Y62423810D02*
X2140000Y62423810D01*
X-6490000Y62305715D02*
X2140000Y62305715D01*
X-6490000Y62187620D02*
X2140000Y62187620D01*
X-6490000Y62069525D02*
X2140000Y62069525D01*
X-6490000Y61951430D02*
X2140000Y61951430D01*
X-6490000Y61833335D02*
X2140000Y61833335D01*
X-6490000Y61715240D02*
X2140000Y61715240D01*
X-6490000Y61597145D02*
X2140000Y61597145D01*
X-6490000Y61479050D02*
X2140000Y61479050D01*
X-6490000Y61360955D02*
X2140000Y61360955D01*
X-6490000Y61242860D02*
X2140000Y61242860D01*
X-6490000Y61124765D02*
X2140000Y61124765D01*
X-6490000Y61006670D02*
X2140000Y61006670D01*
X-6490000Y60888575D02*
X2140000Y60888575D01*
X-6490000Y60770480D02*
X2140000Y60770480D01*
X-6490000Y60652385D02*
X2140000Y60652385D01*
X-6490000Y60534290D02*
X2140000Y60534290D01*
X-6490000Y60416195D02*
X2140000Y60416195D01*
X-6490000Y60298100D02*
X2140000Y60298100D01*
X-6490000Y60180000D02*
X2140000Y60180000D01*
X-6490000Y57640000D02*
X2140000Y57640000D01*
X-6490000Y55100000D02*
X2140000Y55100000D01*
X-6490000Y52560000D02*
X2140000Y52560000D01*
X-6490000Y50020000D02*
X2140000Y50020000D01*
X-6490000Y47480000D02*
X2140000Y47480000D01*
X-6490000Y44940000D02*
X2140000Y44940000D01*
X-6490000Y42400000D02*
X2140000Y42400000D01*
X-6490000Y39860000D02*
X2140000Y39860000D01*
X-6490000Y37260000D02*
X2140000Y37260000D01*
X2140000Y62780000D02*
X2140000Y37260000D01*
X2140000Y61810000D02*
X2490000Y61810000D01*
X2140000Y61090000D02*
X2490000Y61090000D01*
X2140000Y59270000D02*
X2550000Y59270000D01*
X2140000Y58550000D02*
X2550000Y58550000D01*
X2140000Y56730000D02*
X2550000Y56730000D01*
X2140000Y56010000D02*
X2550000Y56010000D01*
X2140000Y54190000D02*
X2550000Y54190000D01*
X2140000Y53470000D02*
X2550000Y53470000D01*
X2140000Y51650000D02*
X2550000Y51650000D01*
X2140000Y50930000D02*
X2550000Y50930000D01*
X2140000Y49110000D02*
X2550000Y49110000D01*
X2140000Y48390000D02*
X2550000Y48390000D01*
X2140000Y46570000D02*
X2550000Y46570000D01*
X2140000Y45850000D02*
X2550000Y45850000D01*
X2140000Y44030000D02*
X2550000Y44030000D01*
X2140000Y43310000D02*
X2550000Y43310000D01*
X2140000Y41490000D02*
X2550000Y41490000D01*
X2140000Y40770000D02*
X2550000Y40770000D01*
X2140000Y38950000D02*
X2550000Y38950000D01*
X2140000Y38230000D02*
X2550000Y38230000D01*
X3600000Y62780000D02*
X4710000Y62780000D01*
X4710000Y62780000D02*
X4710000Y61450000D01*
D16*
%TO.C,Logo1*%
X5182872Y70600977D02*
X5286471Y70598382D01*
X5375632Y70594246D01*
X5443928Y70588563D01*
X5484934Y70581331D01*
X5493326Y70576971D01*
X5501792Y70552698D01*
X5515565Y70497426D01*
X5533450Y70416662D01*
X5554252Y70315912D01*
X5576777Y70200683D01*
X5588582Y70137902D01*
X5610849Y70018787D01*
X5631021Y69912565D01*
X5648085Y69824427D01*
X5661031Y69759566D01*
X5668845Y69723174D01*
X5670578Y69717184D01*
X5690110Y69707061D01*
X5737157Y69685662D01*
X5804997Y69655839D01*
X5886909Y69620445D01*
X5976172Y69582332D01*
X6066065Y69544353D01*
X6149865Y69509360D01*
X6220853Y69480206D01*
X6272306Y69459743D01*
X6297503Y69450823D01*
X6298604Y69450657D01*
X6318481Y69460769D01*
X6364223Y69489117D01*
X6431283Y69532723D01*
X6515116Y69588606D01*
X6611174Y69653787D01*
X6666350Y69691679D01*
X6767519Y69760725D01*
X6859370Y69822050D01*
X6937256Y69872663D01*
X6996531Y69909571D01*
X7032549Y69929782D01*
X7040623Y69932701D01*
X7059416Y69920153D01*
X7099543Y69885463D01*
X7156507Y69833063D01*
X7225815Y69767384D01*
X7302969Y69692856D01*
X7383475Y69613913D01*
X7462837Y69534983D01*
X7536560Y69460500D01*
X7600148Y69394894D01*
X7649106Y69342596D01*
X7678939Y69308039D01*
X7686058Y69296478D01*
X7676047Y69277654D01*
X7647922Y69232631D01*
X7604546Y69165787D01*
X7548782Y69081499D01*
X7483494Y68984144D01*
X7433754Y68910707D01*
X7181449Y68539667D01*
X7436445Y67921095D01*
X7881069Y67837275D01*
X8325693Y67753454D01*
X8325693Y66828006D01*
X7881069Y66744186D01*
X7436445Y66660365D01*
X7308947Y66351080D01*
X7181449Y66041794D01*
X7433754Y65670754D01*
X7504004Y65566843D01*
X7566728Y65472913D01*
X7619062Y65393348D01*
X7658143Y65332530D01*
X7681107Y65294843D01*
X7686058Y65284579D01*
X7673324Y65266090D01*
X7638118Y65226580D01*
X7584938Y65170478D01*
X7518282Y65102213D01*
X7442646Y65026214D01*
X7362528Y64946908D01*
X7282426Y64868725D01*
X7206836Y64796093D01*
X7140255Y64733441D01*
X7087182Y64685197D01*
X7052113Y64655790D01*
X7040377Y64648759D01*
X7018740Y64658877D01*
X6971338Y64687241D01*
X6902807Y64730871D01*
X6817785Y64786782D01*
X6720907Y64851994D01*
X6665650Y64889781D01*
X6564752Y64958657D01*
X6473701Y65019860D01*
X6397030Y65070422D01*
X6339272Y65107372D01*
X6304957Y65127742D01*
X6297746Y65130803D01*
X6277252Y65123864D01*
X6229487Y65104949D01*
X6161168Y65076913D01*
X6079011Y65042609D01*
X5989730Y65004891D01*
X5900042Y64966613D01*
X5816662Y64930630D01*
X5746306Y64899794D01*
X5695690Y64876961D01*
X5671529Y64864983D01*
X5670578Y64864276D01*
X5665964Y64845469D01*
X5655672Y64795382D01*
X5640713Y64719207D01*
X5622099Y64622135D01*
X5600841Y64509357D01*
X5588582Y64443558D01*
X5565638Y64323050D01*
X5543805Y64214203D01*
X5524278Y64122524D01*
X5508252Y64053519D01*
X5496921Y64012696D01*
X5493326Y64004489D01*
X5468994Y63996452D01*
X5414041Y63989967D01*
X5334892Y63985030D01*
X5237974Y63981636D01*
X5129713Y63979782D01*
X5016535Y63979462D01*
X4904865Y63980673D01*
X4801132Y63983410D01*
X4711759Y63987669D01*
X4643174Y63993445D01*
X4601803Y64000733D01*
X4593190Y64005105D01*
X4582867Y64031236D01*
X4568108Y64086607D01*
X4550648Y64163893D01*
X4532220Y64255770D01*
X4526259Y64287842D01*
X4497934Y64442476D01*
X4475124Y64564625D01*
X4456920Y64658327D01*
X4442417Y64727616D01*
X4430708Y64776529D01*
X4420885Y64809103D01*
X4412044Y64829372D01*
X4403276Y64841374D01*
X4401543Y64843053D01*
X4373629Y64859816D01*
X4319305Y64885386D01*
X4245223Y64917212D01*
X4158035Y64952740D01*
X4064392Y64989417D01*
X3970948Y65024689D01*
X3884353Y65056004D01*
X3811260Y65080807D01*
X3758322Y65096546D01*
X3732189Y65100668D01*
X3731274Y65100324D01*
X3709914Y65086359D01*
X3662916Y65054678D01*
X3595173Y65008609D01*
X3511577Y64951482D01*
X3417018Y64886627D01*
X3390146Y64868157D01*
X3292725Y64802301D01*
X3203837Y64744350D01*
X3128588Y64697462D01*
X3072080Y64664793D01*
X3039419Y64649500D01*
X3035407Y64648759D01*
X3014316Y64661608D01*
X2972536Y64697112D01*
X2914555Y64750707D01*
X2844865Y64817829D01*
X2767955Y64893913D01*
X2688317Y64974396D01*
X2610439Y65054713D01*
X2538814Y65130301D01*
X2477930Y65196595D01*
X2432279Y65249031D01*
X2406350Y65283045D01*
X2402117Y65292455D01*
X2412088Y65314357D01*
X2438980Y65359200D01*
X2478264Y65419679D01*
X2509883Y65466211D01*
X2567902Y65550525D01*
X2636216Y65650374D01*
X2704421Y65750527D01*
X2740925Y65804373D01*
X2864200Y65986629D01*
X2781480Y66139619D01*
X2745241Y66209318D01*
X2717074Y66268586D01*
X2701009Y66308689D01*
X2698774Y66318897D01*
X2715278Y66331171D01*
X2761918Y66355387D01*
X2834391Y66389737D01*
X2928394Y66432412D01*
X3039626Y66481606D01*
X3163785Y66535510D01*
X3296568Y66592316D01*
X3433673Y66650218D01*
X3570798Y66707407D01*
X3703642Y66762076D01*
X3827902Y66812416D01*
X3939275Y66856620D01*
X4033461Y66892881D01*
X4106156Y66919391D01*
X4153059Y66934342D01*
X4169167Y66936746D01*
X4189714Y66917689D01*
X4223067Y66875964D01*
X4262298Y66820294D01*
X4265401Y66815622D01*
X4380577Y66671736D01*
X4514947Y66555717D01*
X4664216Y66468570D01*
X4824087Y66411301D01*
X4990263Y66384914D01*
X5158448Y66390415D01*
X5324345Y66428810D01*
X5483658Y66501105D01*
X5518513Y66522374D01*
X5659263Y66633004D01*
X5772286Y66763698D01*
X5856997Y66909936D01*
X5912806Y67067192D01*
X5939126Y67230943D01*
X5935370Y67396667D01*
X5900950Y67559838D01*
X5835277Y67715935D01*
X5737765Y67860433D01*
X5698187Y67905131D01*
X5574297Y68018888D01*
X5443876Y68101782D01*
X5297685Y68158644D01*
X5152912Y68190313D01*
X4990140Y68198131D01*
X4826560Y68172062D01*
X4667702Y68114755D01*
X4519094Y68028856D01*
X4386265Y67917014D01*
X4274744Y67781877D01*
X4262989Y67764117D01*
X4224492Y67707850D01*
X4191137Y67665077D01*
X4169840Y67644628D01*
X4169167Y67644331D01*
X4146129Y67648721D01*
X4093843Y67666124D01*
X4016610Y67694732D01*
X3918732Y67732735D01*
X3804509Y67778326D01*
X3678242Y67829697D01*
X3544233Y67885038D01*
X3406782Y67942542D01*
X3270192Y68000399D01*
X3138763Y68056802D01*
X3016795Y68109942D01*
X2908591Y68158010D01*
X2818451Y68199199D01*
X2750677Y68231699D01*
X2709570Y68253703D01*
X2698774Y68262564D01*
X2707181Y68289640D01*
X2729728Y68340303D01*
X2762387Y68405817D01*
X2781480Y68441841D01*
X2864200Y68594832D01*
X2740925Y68777088D01*
X2677772Y68870125D01*
X2608273Y68971985D01*
X2542835Y69067438D01*
X2509883Y69115250D01*
X2464727Y69182495D01*
X2428943Y69239436D01*
X2407062Y69278646D01*
X2402437Y69291381D01*
X2414915Y69309917D01*
X2449748Y69350941D01*
X2503322Y69410475D01*
X2572017Y69484542D01*
X2652219Y69569165D01*
X2703714Y69622685D01*
X2795714Y69716319D01*
X2878001Y69797241D01*
X2947055Y69862177D01*
X2999356Y69907858D01*
X3031384Y69931011D01*
X3037884Y69933232D01*
X3062606Y69922924D01*
X3112595Y69894439D01*
X3182788Y69850937D01*
X3268125Y69795577D01*
X3363544Y69731520D01*
X3390146Y69713303D01*
X3486833Y69646927D01*
X3573883Y69587378D01*
X3646405Y69537984D01*
X3699507Y69502075D01*
X3728297Y69482981D01*
X3731274Y69481136D01*
X3754218Y69483895D01*
X3804664Y69498538D01*
X3875959Y69522513D01*
X3961453Y69553266D01*
X4054493Y69588244D01*
X4148426Y69624893D01*
X4236601Y69660661D01*
X4312366Y69692994D01*
X4369069Y69719338D01*
X4400057Y69737142D01*
X4401543Y69738407D01*
X4410399Y69749294D01*
X4419157Y69767682D01*
X4428723Y69797606D01*
X4440004Y69843103D01*
X4453907Y69908209D01*
X4471337Y69996961D01*
X4493202Y70113393D01*
X4520409Y70261542D01*
X4526259Y70293618D01*
X4544626Y70388686D01*
X4562595Y70471565D01*
X4578431Y70534930D01*
X4590400Y70571458D01*
X4593190Y70576356D01*
X4617928Y70584427D01*
X4673210Y70590987D01*
X4752611Y70596033D01*
X4849704Y70599559D01*
X4958062Y70601561D01*
X5071260Y70602036D01*
X5182872Y70600977D01*
G36*
X5182872Y70600977D02*
G01*
X5286471Y70598382D01*
X5375632Y70594246D01*
X5443928Y70588563D01*
X5484934Y70581331D01*
X5493326Y70576971D01*
X5501792Y70552698D01*
X5515565Y70497426D01*
X5533450Y70416662D01*
X5554252Y70315912D01*
X5576777Y70200683D01*
X5588582Y70137902D01*
X5610849Y70018787D01*
X5631021Y69912565D01*
X5648085Y69824427D01*
X5661031Y69759566D01*
X5668845Y69723174D01*
X5670578Y69717184D01*
X5690110Y69707061D01*
X5737157Y69685662D01*
X5804997Y69655839D01*
X5886909Y69620445D01*
X5976172Y69582332D01*
X6066065Y69544353D01*
X6149865Y69509360D01*
X6220853Y69480206D01*
X6272306Y69459743D01*
X6297503Y69450823D01*
X6298604Y69450657D01*
X6318481Y69460769D01*
X6364223Y69489117D01*
X6431283Y69532723D01*
X6515116Y69588606D01*
X6611174Y69653787D01*
X6666350Y69691679D01*
X6767519Y69760725D01*
X6859370Y69822050D01*
X6937256Y69872663D01*
X6996531Y69909571D01*
X7032549Y69929782D01*
X7040623Y69932701D01*
X7059416Y69920153D01*
X7099543Y69885463D01*
X7156507Y69833063D01*
X7225815Y69767384D01*
X7302969Y69692856D01*
X7383475Y69613913D01*
X7462837Y69534983D01*
X7536560Y69460500D01*
X7600148Y69394894D01*
X7649106Y69342596D01*
X7678939Y69308039D01*
X7686058Y69296478D01*
X7676047Y69277654D01*
X7647922Y69232631D01*
X7604546Y69165787D01*
X7548782Y69081499D01*
X7483494Y68984144D01*
X7433754Y68910707D01*
X7181449Y68539667D01*
X7436445Y67921095D01*
X7881069Y67837275D01*
X8325693Y67753454D01*
X8325693Y66828006D01*
X7881069Y66744186D01*
X7436445Y66660365D01*
X7308947Y66351080D01*
X7181449Y66041794D01*
X7433754Y65670754D01*
X7504004Y65566843D01*
X7566728Y65472913D01*
X7619062Y65393348D01*
X7658143Y65332530D01*
X7681107Y65294843D01*
X7686058Y65284579D01*
X7673324Y65266090D01*
X7638118Y65226580D01*
X7584938Y65170478D01*
X7518282Y65102213D01*
X7442646Y65026214D01*
X7362528Y64946908D01*
X7282426Y64868725D01*
X7206836Y64796093D01*
X7140255Y64733441D01*
X7087182Y64685197D01*
X7052113Y64655790D01*
X7040377Y64648759D01*
X7018740Y64658877D01*
X6971338Y64687241D01*
X6902807Y64730871D01*
X6817785Y64786782D01*
X6720907Y64851994D01*
X6665650Y64889781D01*
X6564752Y64958657D01*
X6473701Y65019860D01*
X6397030Y65070422D01*
X6339272Y65107372D01*
X6304957Y65127742D01*
X6297746Y65130803D01*
X6277252Y65123864D01*
X6229487Y65104949D01*
X6161168Y65076913D01*
X6079011Y65042609D01*
X5989730Y65004891D01*
X5900042Y64966613D01*
X5816662Y64930630D01*
X5746306Y64899794D01*
X5695690Y64876961D01*
X5671529Y64864983D01*
X5670578Y64864276D01*
X5665964Y64845469D01*
X5655672Y64795382D01*
X5640713Y64719207D01*
X5622099Y64622135D01*
X5600841Y64509357D01*
X5588582Y64443558D01*
X5565638Y64323050D01*
X5543805Y64214203D01*
X5524278Y64122524D01*
X5508252Y64053519D01*
X5496921Y64012696D01*
X5493326Y64004489D01*
X5468994Y63996452D01*
X5414041Y63989967D01*
X5334892Y63985030D01*
X5237974Y63981636D01*
X5129713Y63979782D01*
X5016535Y63979462D01*
X4904865Y63980673D01*
X4801132Y63983410D01*
X4711759Y63987669D01*
X4643174Y63993445D01*
X4601803Y64000733D01*
X4593190Y64005105D01*
X4582867Y64031236D01*
X4568108Y64086607D01*
X4550648Y64163893D01*
X4532220Y64255770D01*
X4526259Y64287842D01*
X4497934Y64442476D01*
X4475124Y64564625D01*
X4456920Y64658327D01*
X4442417Y64727616D01*
X4430708Y64776529D01*
X4420885Y64809103D01*
X4412044Y64829372D01*
X4403276Y64841374D01*
X4401543Y64843053D01*
X4373629Y64859816D01*
X4319305Y64885386D01*
X4245223Y64917212D01*
X4158035Y64952740D01*
X4064392Y64989417D01*
X3970948Y65024689D01*
X3884353Y65056004D01*
X3811260Y65080807D01*
X3758322Y65096546D01*
X3732189Y65100668D01*
X3731274Y65100324D01*
X3709914Y65086359D01*
X3662916Y65054678D01*
X3595173Y65008609D01*
X3511577Y64951482D01*
X3417018Y64886627D01*
X3390146Y64868157D01*
X3292725Y64802301D01*
X3203837Y64744350D01*
X3128588Y64697462D01*
X3072080Y64664793D01*
X3039419Y64649500D01*
X3035407Y64648759D01*
X3014316Y64661608D01*
X2972536Y64697112D01*
X2914555Y64750707D01*
X2844865Y64817829D01*
X2767955Y64893913D01*
X2688317Y64974396D01*
X2610439Y65054713D01*
X2538814Y65130301D01*
X2477930Y65196595D01*
X2432279Y65249031D01*
X2406350Y65283045D01*
X2402117Y65292455D01*
X2412088Y65314357D01*
X2438980Y65359200D01*
X2478264Y65419679D01*
X2509883Y65466211D01*
X2567902Y65550525D01*
X2636216Y65650374D01*
X2704421Y65750527D01*
X2740925Y65804373D01*
X2864200Y65986629D01*
X2781480Y66139619D01*
X2745241Y66209318D01*
X2717074Y66268586D01*
X2701009Y66308689D01*
X2698774Y66318897D01*
X2715278Y66331171D01*
X2761918Y66355387D01*
X2834391Y66389737D01*
X2928394Y66432412D01*
X3039626Y66481606D01*
X3163785Y66535510D01*
X3296568Y66592316D01*
X3433673Y66650218D01*
X3570798Y66707407D01*
X3703642Y66762076D01*
X3827902Y66812416D01*
X3939275Y66856620D01*
X4033461Y66892881D01*
X4106156Y66919391D01*
X4153059Y66934342D01*
X4169167Y66936746D01*
X4189714Y66917689D01*
X4223067Y66875964D01*
X4262298Y66820294D01*
X4265401Y66815622D01*
X4380577Y66671736D01*
X4514947Y66555717D01*
X4664216Y66468570D01*
X4824087Y66411301D01*
X4990263Y66384914D01*
X5158448Y66390415D01*
X5324345Y66428810D01*
X5483658Y66501105D01*
X5518513Y66522374D01*
X5659263Y66633004D01*
X5772286Y66763698D01*
X5856997Y66909936D01*
X5912806Y67067192D01*
X5939126Y67230943D01*
X5935370Y67396667D01*
X5900950Y67559838D01*
X5835277Y67715935D01*
X5737765Y67860433D01*
X5698187Y67905131D01*
X5574297Y68018888D01*
X5443876Y68101782D01*
X5297685Y68158644D01*
X5152912Y68190313D01*
X4990140Y68198131D01*
X4826560Y68172062D01*
X4667702Y68114755D01*
X4519094Y68028856D01*
X4386265Y67917014D01*
X4274744Y67781877D01*
X4262989Y67764117D01*
X4224492Y67707850D01*
X4191137Y67665077D01*
X4169840Y67644628D01*
X4169167Y67644331D01*
X4146129Y67648721D01*
X4093843Y67666124D01*
X4016610Y67694732D01*
X3918732Y67732735D01*
X3804509Y67778326D01*
X3678242Y67829697D01*
X3544233Y67885038D01*
X3406782Y67942542D01*
X3270192Y68000399D01*
X3138763Y68056802D01*
X3016795Y68109942D01*
X2908591Y68158010D01*
X2818451Y68199199D01*
X2750677Y68231699D01*
X2709570Y68253703D01*
X2698774Y68262564D01*
X2707181Y68289640D01*
X2729728Y68340303D01*
X2762387Y68405817D01*
X2781480Y68441841D01*
X2864200Y68594832D01*
X2740925Y68777088D01*
X2677772Y68870125D01*
X2608273Y68971985D01*
X2542835Y69067438D01*
X2509883Y69115250D01*
X2464727Y69182495D01*
X2428943Y69239436D01*
X2407062Y69278646D01*
X2402437Y69291381D01*
X2414915Y69309917D01*
X2449748Y69350941D01*
X2503322Y69410475D01*
X2572017Y69484542D01*
X2652219Y69569165D01*
X2703714Y69622685D01*
X2795714Y69716319D01*
X2878001Y69797241D01*
X2947055Y69862177D01*
X2999356Y69907858D01*
X3031384Y69931011D01*
X3037884Y69933232D01*
X3062606Y69922924D01*
X3112595Y69894439D01*
X3182788Y69850937D01*
X3268125Y69795577D01*
X3363544Y69731520D01*
X3390146Y69713303D01*
X3486833Y69646927D01*
X3573883Y69587378D01*
X3646405Y69537984D01*
X3699507Y69502075D01*
X3728297Y69482981D01*
X3731274Y69481136D01*
X3754218Y69483895D01*
X3804664Y69498538D01*
X3875959Y69522513D01*
X3961453Y69553266D01*
X4054493Y69588244D01*
X4148426Y69624893D01*
X4236601Y69660661D01*
X4312366Y69692994D01*
X4369069Y69719338D01*
X4400057Y69737142D01*
X4401543Y69738407D01*
X4410399Y69749294D01*
X4419157Y69767682D01*
X4428723Y69797606D01*
X4440004Y69843103D01*
X4453907Y69908209D01*
X4471337Y69996961D01*
X4493202Y70113393D01*
X4520409Y70261542D01*
X4526259Y70293618D01*
X4544626Y70388686D01*
X4562595Y70471565D01*
X4578431Y70534930D01*
X4590400Y70571458D01*
X4593190Y70576356D01*
X4617928Y70584427D01*
X4673210Y70590987D01*
X4752611Y70596033D01*
X4849704Y70599559D01*
X4958062Y70601561D01*
X5071260Y70602036D01*
X5182872Y70600977D01*
G37*
D15*
%TO.C,J18*%
X11880000Y82040000D02*
X13260000Y82040000D01*
X11880000Y80660000D02*
X11880000Y82040000D01*
X11880000Y79390000D02*
X11880000Y56420000D01*
X11880000Y79390000D02*
X14530000Y79390000D01*
X11880000Y56420000D02*
X17180000Y56420000D01*
X14530000Y82040000D02*
X17180000Y82040000D01*
X14530000Y79390000D02*
X14530000Y82040000D01*
X17180000Y82040000D02*
X17180000Y56420000D01*
%TO.C,J19*%
X25270000Y82080000D02*
X26650000Y82080000D01*
X25270000Y80700000D02*
X25270000Y82080000D01*
X25270000Y79430000D02*
X25270000Y56460000D01*
X25270000Y79430000D02*
X27920000Y79430000D01*
X25270000Y56460000D02*
X30570000Y56460000D01*
X27920000Y82080000D02*
X30570000Y82080000D01*
X27920000Y79430000D02*
X27920000Y82080000D01*
X30570000Y82080000D02*
X30570000Y56460000D01*
%TO.C,J20*%
X18620000Y82040000D02*
X20000000Y82040000D01*
X18620000Y80660000D02*
X18620000Y82040000D01*
X18620000Y79390000D02*
X18620000Y56420000D01*
X18620000Y79390000D02*
X21270000Y79390000D01*
X18620000Y56420000D02*
X23920000Y56420000D01*
X21270000Y82040000D02*
X23920000Y82040000D01*
X21270000Y79390000D02*
X21270000Y82040000D01*
X23920000Y82040000D02*
X23920000Y56420000D01*
%TD*%
%LPC*%
D17*
%TO.C,D1*%
X47923000Y5667231D03*
X47923000Y2467231D03*
X53077000Y2467231D03*
X53077000Y5667231D03*
%TD*%
D18*
%TO.C,J3*%
X56170000Y95500000D03*
D19*
X53630000Y95500000D03*
%TD*%
D18*
%TO.C,J6*%
X36370000Y95500000D03*
D19*
X33830000Y95500000D03*
%TD*%
D18*
%TO.C,J8*%
X23170000Y95500000D03*
D19*
X20630000Y95500000D03*
%TD*%
D18*
%TO.C,J9*%
X16630000Y95500000D03*
D19*
X14090000Y95500000D03*
%TD*%
D18*
%TO.C,J7*%
X29770000Y95500000D03*
D19*
X27230000Y95500000D03*
%TD*%
D18*
%TO.C,J4*%
X49570000Y95500000D03*
D19*
X47030000Y95500000D03*
%TD*%
D18*
%TO.C,J5*%
X42970000Y95500000D03*
D19*
X40430000Y95500000D03*
%TD*%
D20*
%TO.C,A1*%
X20010000Y42360000D03*
D21*
X20010000Y39820000D03*
X20010000Y37280000D03*
X20010000Y34740000D03*
X20010000Y32200000D03*
X20010000Y29660000D03*
X20010000Y27120000D03*
X20010000Y24580000D03*
X20010000Y22040000D03*
X20010000Y19500000D03*
X20010000Y16960000D03*
X20010000Y14420000D03*
X20010000Y11880000D03*
X20010000Y9340000D03*
X20010000Y6800000D03*
X35250000Y6800000D03*
X35250000Y9340000D03*
X35250000Y11880000D03*
X35250000Y14420000D03*
X35250000Y16960000D03*
X35250000Y19500000D03*
X35250000Y22040000D03*
X35250000Y24580000D03*
X35250000Y27120000D03*
X35250000Y29660000D03*
X35250000Y32200000D03*
X35250000Y34740000D03*
X35250000Y37280000D03*
X35250000Y39820000D03*
X35250000Y42360000D03*
%TD*%
D22*
%TO.C,J17*%
X65900000Y68500000D03*
D19*
X65900000Y71040000D03*
%TD*%
D22*
%TO.C,J16*%
X65900000Y61500000D03*
D19*
X65900000Y64040000D03*
%TD*%
D22*
%TO.C,J15*%
X65900000Y54900000D03*
D19*
X65900000Y57440000D03*
%TD*%
D22*
%TO.C,J14*%
X65900000Y48300000D03*
D19*
X65900000Y50840000D03*
%TD*%
D22*
%TO.C,J13*%
X65900000Y41700000D03*
D19*
X65900000Y44240000D03*
%TD*%
D22*
%TO.C,J12*%
X65900000Y35100000D03*
D19*
X65900000Y37640000D03*
%TD*%
D22*
%TO.C,J11*%
X65900000Y28500000D03*
D19*
X65900000Y31040000D03*
%TD*%
D22*
%TO.C,J10*%
X65900000Y21500000D03*
D19*
X65900000Y24040000D03*
%TD*%
D22*
%TO.C,J2*%
X65900000Y75500000D03*
D19*
X65900000Y78040000D03*
%TD*%
D23*
%TO.C,HS1*%
X9200000Y18350000D03*
%TD*%
D24*
%TO.C,H1*%
X5000000Y95000000D03*
%TD*%
%TO.C,H3*%
X65000000Y95000000D03*
%TD*%
%TO.C,H2*%
X5000000Y5000000D03*
%TD*%
%TO.C,H4*%
X65000000Y5000000D03*
%TD*%
D25*
%TO.C,J1*%
X3600000Y61450000D03*
D26*
X3600000Y58910000D03*
X3600000Y56370000D03*
X3600000Y53830000D03*
X3600000Y51290000D03*
X3600000Y48750000D03*
X3600000Y46210000D03*
X3600000Y43670000D03*
X3600000Y41130000D03*
X3600000Y38590000D03*
%TD*%
D25*
%TO.C,J18*%
X13260000Y80660000D03*
D26*
X15800000Y80660000D03*
X13260000Y78120000D03*
X15800000Y78120000D03*
X13260000Y75580000D03*
X15800000Y75580000D03*
X13260000Y73040000D03*
X15800000Y73040000D03*
X13260000Y70500000D03*
X15800000Y70500000D03*
X13260000Y67960000D03*
X15800000Y67960000D03*
X13260000Y65420000D03*
X15800000Y65420000D03*
X13260000Y62880000D03*
X15800000Y62880000D03*
X13260000Y60340000D03*
X15800000Y60340000D03*
X13260000Y57800000D03*
X15800000Y57800000D03*
%TD*%
D25*
%TO.C,J19*%
X26650000Y80700000D03*
D26*
X29190000Y80700000D03*
X26650000Y78160000D03*
X29190000Y78160000D03*
X26650000Y75620000D03*
X29190000Y75620000D03*
X26650000Y73080000D03*
X29190000Y73080000D03*
X26650000Y70540000D03*
X29190000Y70540000D03*
X26650000Y68000000D03*
X29190000Y68000000D03*
X26650000Y65460000D03*
X29190000Y65460000D03*
X26650000Y62920000D03*
X29190000Y62920000D03*
X26650000Y60380000D03*
X29190000Y60380000D03*
X26650000Y57840000D03*
X29190000Y57840000D03*
%TD*%
D25*
%TO.C,J20*%
X20000000Y80660000D03*
D26*
X22540000Y80660000D03*
X20000000Y78120000D03*
X22540000Y78120000D03*
X20000000Y75580000D03*
X22540000Y75580000D03*
X20000000Y73040000D03*
X22540000Y73040000D03*
X20000000Y70500000D03*
X22540000Y70500000D03*
X20000000Y67960000D03*
X22540000Y67960000D03*
X20000000Y65420000D03*
X22540000Y65420000D03*
X20000000Y62880000D03*
X22540000Y62880000D03*
X20000000Y60340000D03*
X22540000Y60340000D03*
X20000000Y57800000D03*
X22540000Y57800000D03*
%TD*%
%LPD*%
D27*
X70000000Y95000000D02*
X70000000Y45000000D01*
X65000000Y100000000D02*
G75*
G02*
X70000000Y95000000I0J-5000000D01*
G01*
X70000000Y5000000D02*
G75*
G02*
X65000000Y0I-5000000J0D01*
G01*
X30000000Y100000000D02*
X65000000Y100000000D01*
X0Y95000000D02*
G75*
G02*
X5000000Y100000000I5000000J0D01*
G01*
X70000000Y45000000D02*
X70000000Y5000000D01*
X0Y5000000D02*
X0Y95000000D01*
X5000000Y100000000D02*
X30000000Y100000000D01*
X5000000Y0D02*
G75*
G02*
X0Y5000000I0J5000000D01*
G01*
X37588000Y0D02*
X65000000Y0D01*
X5000000Y0D02*
X37588000Y0D01*
M02*
