M48
; DRILL file {KiCad 9.0.1} date 2026-01-25T20:54:52-0500
; FORMAT={-:-/ absolute / inch / decimal}
; #@! TF.CreationDate,2026-01-25T20:54:52-05:00
; #@! TF.GenerationSoftware,Kicad,Pcbnew,9.0.1
; #@! TF.FileFunction,Plated,1,2,PTH
FMAT,2
INCH
; #@! TA.AperFunction,Plated,PTH,ViaDrill
T1C0.0118
; #@! TA.AperFunction,Plated,PTH,ViaDrill
T2C0.0157
; #@! TA.AperFunction,Plated,PTH,ViaDrill
T3C0.0315
; #@! TA.AperFunction,Plated,PTH,ComponentDrill
T4C0.0394
; #@! TA.AperFunction,Plated,PTH,ComponentDrill
T5C0.0433
%
G90
G05
T1
X0.2421Y0.6356
X0.2854Y0.7419
X0.2933Y0.86
X0.3209Y0.7419
X0.3366Y0.8285
X0.3366Y0.7695
X0.3839Y0.86
T2
X0.1398Y0.6533
X0.1476Y0.5254
X0.2894Y0.9289
X0.561Y0.862
X0.561Y0.7478
X0.561Y0.551
X0.9272Y1.9409
X0.9272Y1.2913
X2.0866Y0.1535
T3
X0.2008Y1.0276
X0.498Y0.4173
T4
X0.1417Y2.4193
X0.1417Y2.3193
X0.1417Y2.2193
X0.1417Y2.1193
X0.1417Y2.0193
X0.1417Y1.9193
X0.1417Y1.8193
X0.1417Y1.7193
X0.1417Y1.6193
X0.1417Y1.5193
X0.522Y3.1756
X0.522Y3.0756
X0.522Y2.9756
X0.522Y2.8756
X0.522Y2.7756
X0.522Y2.6756
X0.522Y2.5756
X0.522Y2.4756
X0.522Y2.3756
X0.522Y2.2756
X0.622Y3.1756
X0.622Y3.0756
X0.622Y2.9756
X0.622Y2.8756
X0.622Y2.7756
X0.622Y2.6756
X0.622Y2.5756
X0.622Y2.4756
X0.622Y2.3756
X0.622Y2.2756
X0.7874Y3.1756
X0.7874Y3.0756
X0.7874Y2.9756
X0.7874Y2.8756
X0.7874Y2.7756
X0.7874Y2.6756
X0.7874Y2.5756
X0.7874Y2.4756
X0.7874Y2.3756
X0.7874Y2.2756
X0.7878Y1.6677
X0.7878Y1.5677
X0.7878Y1.4677
X0.7878Y1.3677
X0.7878Y1.2677
X0.7878Y1.1677
X0.7878Y1.0677
X0.7878Y0.9677
X0.7878Y0.8677
X0.7878Y0.7677
X0.7878Y0.6677
X0.7878Y0.5677
X0.7878Y0.4677
X0.7878Y0.3677
X0.7878Y0.2677
X0.8874Y3.1756
X0.8874Y3.0756
X0.8874Y2.9756
X0.8874Y2.8756
X0.8874Y2.7756
X0.8874Y2.6756
X0.8874Y2.5756
X0.8874Y2.4756
X0.8874Y2.3756
X0.8874Y2.2756
X1.0492Y3.1772
X1.0492Y3.0772
X1.0492Y2.9772
X1.0492Y2.8772
X1.0492Y2.7772
X1.0492Y2.6772
X1.0492Y2.5772
X1.0492Y2.4772
X1.0492Y2.3772
X1.0492Y2.2772
X1.1492Y3.1772
X1.1492Y3.0772
X1.1492Y2.9772
X1.1492Y2.8772
X1.1492Y2.7772
X1.1492Y2.6772
X1.1492Y2.5772
X1.1492Y2.4772
X1.1492Y2.3772
X1.1492Y2.2772
X1.3878Y1.6677
X1.3878Y1.5677
X1.3878Y1.4677
X1.3878Y1.3677
X1.3878Y1.2677
X1.3878Y1.1677
X1.3878Y1.0677
X1.3878Y0.9677
X1.3878Y0.8677
X1.3878Y0.7677
X1.3878Y0.6677
X1.3878Y0.5677
X1.3878Y0.4677
X1.3878Y0.3677
X1.3878Y0.2677
T5
X0.5547Y3.7598
X0.6547Y3.7598
X0.8122Y3.7598
X0.9122Y3.7598
X1.072Y3.7598
X1.172Y3.7598
X1.3319Y3.7598
X1.4319Y3.7598
X1.5917Y3.7598
X1.6917Y3.7598
X1.8516Y3.7598
X1.9516Y3.7598
X2.1114Y3.7598
X2.2114Y3.7598
X2.5945Y3.0724
X2.5945Y2.9724
X2.5945Y2.7969
X2.5945Y2.6969
X2.5945Y2.5213
X2.5945Y2.4213
X2.5945Y2.2614
X2.5945Y2.1614
X2.5945Y2.0016
X2.5945Y1.9016
X2.5945Y1.7417
X2.5945Y1.6417
X2.5945Y1.4819
X2.5945Y1.3819
X2.5945Y1.222
X2.5945Y1.122
X2.5945Y0.9465
X2.5945Y0.8465
M30
